<?xml version="1.0" encoding="UTF-8"?>
<!-- Generator: Adobe Illustrator 18.0.0, SVG Export Plug-In . SVG Version: 6.00 Build 0)  -->
<!DOCTYPE svg PUBLIC "-//W3C//DTD SVG 1.1//EN" "http://www.w3.org/Graphics/SVG/1.1/DTD/svg11.dtd">
<svg version="1.1" id="Layer_1" xmlns="http://www.w3.org/2000/svg" xmlns:xlink="http://www.w3.org/1999/xlink" x="0px" y="0px" viewBox="0 0 51.7 24.2" enable-background="new 0 0 51.7 24.2" xml:space="preserve">
<g>
	<g>
		<path fill="#FFFFFF" d="M4.3,4.2h43c2.4,0,4.4-0.2,4.4-2.1c0-1.8-2-2.2-4.4-2.2h-43C1.8,0,0,0.3,0,2.2C0,4,1.8,4.2,4.3,4.2z     M47.3,10h-43C1.8,10,0,10.3,0,12.2c0,1.8,1.8,2.1,4.3,2.1h43c2.4,0,4.4-0.2,4.4-2.1C51.7,10.3,49.7,10,47.3,10z M47.3,20h-43    C1.8,20,0,20.2,0,22.1c0,1.8,1.8,2.2,4.3,2.2h43c2.4,0,4.4-0.3,4.4-2.2C51.7,20.2,49.7,20,47.3,20z"/>
	</g>
</g>
</svg>