<?xml version="1.0" encoding="utf-8"?>
<!-- Generator: Adobe Illustrator 18.1.0, SVG Export Plug-In . SVG Version: 6.00 Build 0)  -->
<svg version="1.1" id="Layer_1" xmlns="http://www.w3.org/2000/svg" xmlns:xlink="http://www.w3.org/1999/xlink" x="0px" y="0px"
	 viewBox="0 0 612 792" enable-background="new 0 0 612 792" xml:space="preserve">
<g>
	<g>
		<path d="M50.9,302.5h509c28.4,0,52.1-2.4,52.1-24.9c0-21.3-23.7-26-52.1-26h-509C21.3,252.8,0,256.3,0,278.8
			C0,300.1,21.3,302.5,50.9,302.5z M559.9,371.1h-509c-29.6,0-50.9,3.6-50.9,26C0,418.5,21.3,422,50.9,422h509
			c28.4,0,52.1-2.4,52.1-24.9C612,374.7,588.3,371.1,559.9,371.1z M559.9,489.5h-509c-29.6,0-50.9,2.4-50.9,24.9
			c0,21.3,21.3,26,50.9,26h509c28.4,0,52.1-3.6,52.1-26C612,491.9,588.3,489.5,559.9,489.5z"/>
	</g>
</g>
</svg>
