<?xml version="1.0" encoding="utf-8"?>
<!-- Generator: Adobe Illustrator 23.0.1, SVG Export Plug-In . SVG Version: 6.00 Build 0)  -->
<svg version="1.1" id="Layer_1" xmlns="http://www.w3.org/2000/svg" xmlns:xlink="http://www.w3.org/1999/xlink" x="0px" y="0px"
	 viewBox="0 0 405.4 279.4" style="enable-background:new 0 0 405.4 279.4;" xml:space="preserve">
<style type="text/css">
	.st0{fill:#63513D;}
</style>
<path class="st0" d="M34.3,91.4c-1.7-12.3-1.1-24.6-1.7-32.4c-0.6-7.8-1.7-8.9-4.5-0.6c-2.8,8.4-6.7,39.7-6.1,46.4
	c0.6,6.7,12.8,29.1,20.6,35.2c7.8,6.1,27.9,16.8,42.4,21.2c14.5,4.5,61.9,12.9,64.7,15.1c2.8,2.2,16.2,8.4,13.9,12.9
	c-2.2,4.5-2.8,19.6-6.1,22.9c-3.3,3.4-10.6,7.8-8.9,12.3c1.7,4.5-1.7,8.4,4.5,6.1c6.1-2.2,10.6-8.4,10.6-3.4c0,5-2.2,10.6,1.7,11.7
	c3.9,1.1,8.9,3.9,9.5-2.2c0.6-6.1,1.7-9.5,5.6-5.6c3.9,3.9,7.8,6.1,11.2,3.9c3.3-2.2,4.5-6.7,1.1-8.4c-3.3-1.7-8.4-6.7-3.9-7.8
	c4.5-1.1,8.4,0.6,8.9-3.4c0.6-3.9,1.1-7.3-5-5.6c-6.1,1.7-5,2.2-8.9-1.7c-3.9-3.9-6.7-1.7-5.6-11.7c1.1-10.1,2.8-12.3,2.2-19
	c-0.6-6.7-4.5-14-3.9-17.9c0.6-3.9-1.1-2.8,12.8-2.2c13.9,0.6,39.6-4.5,50.8,0c11.2,4.5,9.5,14.5,10,21.8c0.6,7.3,2.2,6.1,6.1,12.3
	c3.9,6.1,2.8,10.6,3.3,15.1c0.6,4.5,0.6,8.4,3.9,5.6c3.3-2.8,5-10.6,7.8-6.7c2.8,3.9,4.5,6.7,7.3,6.1c2.8-0.6,5-1.1,3.9-5
	c-1.1-3.9-5.6-5.6-2.8-7.3c2.8-1.7,3.9,0.6,7.8,1.1c3.9,0.6,5.6,0,5.6-3.9c0,2.2,3.6-4.7-3.3-4.5c-8,0.3-9.5,2.2-7.8-1.7
	c1.7-3.9,3.9-1.7,5-4.5c1.1-2.8,5.6-5,0-6.1c-5.6-1.1-5-2.2-7.8,1.1c-2.8,3.4-5,7.8-8.4,3.4c-3.3-4.5-5-6.1-3.3-12.3
	c1.7-6.1,3.3-9.5,6.1-10.6c2.8-1.1,6.3-5.3,11.3-1.3c5,3.9,18.6,19.4,30,24.3c1.7,4.5,7,9.2,10,10.9c7,4.1,11.9-0.2,11.9-0.2
	s7.1,2.1,16.6,3.2c9.5,1.1,18.5,1.9,22.3-2.8c5-6.1,1.1-17.3-2.8-26.3c-3.9-8.8-7.8-14.8-7.8-14.8s2.8-6.4-2.7-11.2
	c-3.9-3.4-6.6-4.9-11.9-5.8c-14.1-13.6-50.3-9.5-53.1-13.4c-2.8-3.9,7.3-20.2,11.2-21.9c3.9-1.7,3.3,6.1,3.9,8.9
	c0.6,2.8,3.3,2.8,6.1-1.1c2.8-3.9,6.7-1.1,10.6-1.1c3.9,0,6.1-4.5,3.3-7.3c-2.8-2.8-2.8-3.4,2.8-4.5c5.6-1.1,8.4-6.1,3.9-7.3
	c-4.5-1.1-7.8-2.8-5.6-8.9c2.2-6.1-1.1-10.6-4.5-7.3c-3.3,3.4-8.4,7.3-16.2,7.8c-7.8,0.6-11.7,1.8-17.3,4
	c-5.6,2.2-15.3,18.3-22,19.4s-21.5-17.9-42.7-19.6s-34.6,2.2-44.1,3.9c-9.5,1.7-26.8,12.3-26.8,12.3s-4.5-21.8-8.4-27.9
	c-3.9-6.1-6.7-6.7-16.2-7.3c-9.5-0.6-15.6-0.6-12.8-5c2.8-4.5,9.5-13.4,6.1-16.2c-3.3-2.8-10-1.1-11.7,2.2
	c-1.7,3.4-8.4-1.1-11.2-5.6c-2.8-4.5-12.3-2.8-13.4-0.6c-1.1,2.2,6.1,2.8,5.6,7.8c-0.6,5-3.3,8.4-8.9,8.9c-5.6,0.6-8.9,3.9-8.4,6.7
	c0.6,2.8,10.6,3.9,12.8,5c2.2,1.1,3.9,1.1-1.7,5.6c-5.6,4.5-3.3,9.5,0,11.7c3.3,2.2,8.9-4.5,12.3-5c3.3-0.6,11.2-0.6,19,1.1
	c7.8,1.7,7.3,6.1,7.3,14.5c0,8.4-5.6,20.1-7.3,22.4c-1.7,2.2-19.5,11.2-26.2,13.4c-6.7,2.2-30.1-2.2-36.8-8.4
	C53.9,118.8,36,103.7,34.3,91.4z M131.1,132.2c7.9-3,31.6-20.6,41.3-26.1c9.7-5.5,47.4-12.8,54.7-12.8c7.3,0,24.4,7.3,34,15.2
	c6.7,5.5,18.9,21.5,9.7,15.2c-11.6-8-33.8-16-46.6-17.2c-12.8-1.2-44.2,9.7-65.6,19C136.6,134.8,123.2,135.2,131.1,132.2z"/>
</svg>
