<?xml version="1.0" encoding="utf-8"?>
<!-- Generator: Adobe Illustrator 23.0.1, SVG Export Plug-In . SVG Version: 6.00 Build 0)  -->
<svg version="1.1" id="Layer_1" xmlns="http://www.w3.org/2000/svg" xmlns:xlink="http://www.w3.org/1999/xlink" x="0px" y="0px"
	 viewBox="0 0 553.4 323.4" style="enable-background:new 0 0 553.4 323.4;" xml:space="preserve">
<style type="text/css">
	.st0{fill:#FFFFFF;}
	.st1{fill:#DA6118;}
	.st2{fill:#63513D;}
</style>
<title>character-whale</title>
<path class="st0" d="M200.6,242.6c-8.7,4.9-16.2,25.2-13.5,37.5c2,8.8,8.4,15.9,16.7,20.3c19.7,10.5,42.8,13.6,65.2,15.7
	c10.7,1,36.4,2.7,36.4,2.7c54.6,2.9,109.7-0.2,161.8-15.3c17.2-5,35.5-12.5,43.4-27.8c8.6-16.7,1-37.6-13.6-50.2l-3.1-2.5
	c-0.4-0.3-0.7-0.6-1.1-0.8c-17.3-12-39.7-14.9-61.1-14.7c6.4-10.5,7.6-23.5,3.1-35c-4.5-11.3-14.6-20.5-26.7-24.3l0.9,3.5
	c8.2,3,11.2,13.3,8.3,21.3s-10,13.7-17.2,18.5c-41.6,27.4-96.6,23.9-146.5,33.1l-4.5,0.8C232.1,229,215.6,234.1,200.6,242.6z"/>
<path class="st1" d="M200.2,242.6c-8.7,4.9-16.2,25.2-13.5,37.5c2,8.8,8.4,15.9,16.7,20.3c19.7,10.5,42.7,13.6,65.2,15.7
	c10.7,1,21.4,1.9,32.2,2.5c0-2.3-0.4-8.5-2.7-12.4c-1.8-3-4.1-5.7-6.6-8.1c-0.8-0.7-0.9-1.9-0.2-2.7c0.3-0.4,0.8-0.6,1.3-0.7
	l18.9-1.9l5.5-13.7c-1.5,1.3-3.2,2-4.7,2.2c-0.8,0.1-1.6,0-2.4-0.3c-1.3-0.5-2.3-1.7-2.7-3c-2.2,2.4-4.8,3.9-7.2,4.1
	c-2.8,0.3-5-1.3-5.2-3.8c-0.2-1.6,0.6-3.4,1.4-5.3c0.7-1.7,1.5-3.7,1.4-4.9c-0.1-1.4-1.6-1.3-2-1.3c-1.8,0.2-3.7,1.7-4.9,4.1
	c-1.4,2.6-3,5.9-3.7,7.5l-1.9,4.5c-0.4,1-1.5,1.4-2.5,1c0,0,0,0,0,0c-0.3-0.2-0.6-0.4-0.8-0.7c-1,0.8-2.3,1.3-3.6,1.5
	c-0.5,0.1-1,0-1.5-0.1l-0.2,0c-1.5-0.5-2.8-1.5-3.5-3c0-0.1-0.1-0.2-0.1-0.3c-2.2,2.7-4.7,4.3-7,4.5c-0.8,0.1-1.6,0-2.3-0.3
	c-1.2-0.5-3.8-2.1-2.9-7.7c0.6-3.5,2.6-6.3,4.1-8.1c2.9-3.5,6.8-5.2,9.8-4c0.7,0.3,1.3,0.7,1.8,1.2l0.4-0.9c0.4-1,1.5-1.4,2.5-1
	c0.9,0.4,1.4,1.5,1,2.4c-0.9,2.2-1.8,4.4-2.4,6c-0.4,1-0.7,1.8-0.9,2.3c-0.7,1.8-0.9,3.3-0.4,4.2c0.2,0.4,0.6,0.8,1,1
	c1.7,0.2,4.5-2.3,7.6-7.9c0,0,0.1-0.1,0.1-0.1l4.3-10.5c0.4-1,1.5-1.5,2.5-1.1c0.9,0.3,1.4,1.3,1.2,2.2c0.7-0.3,1.4-0.5,2.2-0.6
	c3.3-0.3,5.8,1.7,6.2,4.7c0.2,2.2-0.8,4.6-1.6,6.8c-0.5,1.3-1.2,2.9-1.1,3.5c0,0.3,0.4,0.4,1,0.4c2-0.2,5.3-2.3,8-7.6
	c0.1-0.1,0.2-0.2,0.3-0.3c0.8-1.8,1.9-3.6,3.2-5.1c2.9-3.5,6.8-5.2,9.8-4c1,0.4,1.9,1.1,2.5,2.1l0.8-2c1-2.7,4.5-1.1,3.5,1.4
	l-5.8,14.3c2.9-0.6,6.4-3,9.3-8.6c0.5-0.9,1.6-1.3,2.6-0.8l0,0c0.9,0.5,1.3,1.6,0.8,2.6c-3.8,7.4-8.8,10.3-13,10.8
	c-0.4,0-0.8,0.1-1.3,0.1l-4.6,11.5l5.2-0.5c1.1-0.1,2,0.8,2,1.8c0,1-0.7,1.8-1.6,2l-7.1,0.7l-9,22.3c54.6,2.9,109.7-0.2,161.8-15.3
	c17.2-5,35.5-12.5,43.4-27.8c8.6-16.7,0.9-37.6-13.6-50.3l-10.5,26c-0.4,1-1.5,1.5-2.5,1.1c-1-0.4-1.5-1.5-1.1-2.5l10.9-27
	c-0.4-0.3-0.7-0.6-1.1-0.8c-17.3-12-39.7-14.9-61.1-14.7c6.4-10.5,7.6-23.5,3.1-35c-4.5-11.3-14.6-20.5-26.7-24.3l0.9,3.5
	c8.2,3,11.2,13.3,8.3,21.3c-2.9,7.9-10,13.7-17.2,18.5c-41.6,27.4-96.6,23.9-146.5,33.1l-13.8,34.2l16.1-2.4l10.5-25.6
	c0.4-1,1.5-1.4,2.5-1c1,0.4,1.4,1.5,1,2.5l0,0l-9.6,23.5l12.5-1.9c1-0.2,2,0.6,2.2,1.6c0.2,1-0.6,2-1.6,2.2l-14.7,2.2l-11,27
	c-0.3,0.7-0.9,1.1-1.6,1.2c-0.2,0-0.4,0-0.6,0c-0.9-0.2-1.6-1.1-1.5-2c0.7-7.6-0.7-13.3-4.3-16.9c-0.9-0.9-1.9-1.6-3-2.3l-8.8,22
	c-0.4,1-1.5,1.5-2.5,1.1c-1-0.4-1.5-1.5-1.1-2.5l8.9-22c-2.2-0.6-4.4-0.9-6.7-0.7c-1.1,0.1-2-0.7-2.1-1.8c-0.1-1,0.6-1.9,1.6-2
	l9.5-1.4l13.7-34C231.7,229,215.2,234.1,200.2,242.6z M480.2,257.5c1-0.1,2,0.4,2.5,1.2c0.7,1.1,0.7,2.6,0.1,3.7
	c-0.4,0.9-1.3,1.5-2.3,1.7l0,0c-1,0.1-1.9-0.4-2.5-1.2c-0.7-1.2-0.7-2.6,0-3.8C478.4,258.2,479.3,257.6,480.2,257.5L480.2,257.5z
	 M353.2,238.9c0.6-0.9,1.8-1,2.7-0.4c0.4,0.3,0.7,0.8,0.8,1.4c0,0.5-0.1,0.9-0.4,1.3c-1.5,2-2.2,4.5-2,7c0.1,1,0.4,1.9,0.9,2.8
	c1.4,2.5,4.2,3.7,8.2,3.3l0.3,0c1.6-0.2,3.1-0.5,4.6-0.9c3.7-9.6,7.8-20.5,13.8-28.7c3.8-5.3,9.4-10,14.3-10.5
	c1.5-0.2,3.1,0.1,4.4,0.9c2,1.2,3,3.1,3.2,5.4c0.3,2.9-0.6,6.3-2,9.3c-5.8,12.8-19.2,22.9-30.8,26.7c-1.6,4.2-3.1,8-4.6,11.2
	c4.3,1.4,10.3,3.8,15.9,3.2c4.3-0.4,6.6-2.7,9.8-7.9c0.1-0.1,0.2-0.2,0.2-0.3c0.8-5.7,5-9.9,9.2-10.3c0.7-0.1,1.3,0,2,0.1
	c1.8,0.3,3.3,1.4,4.2,2.9c1.3,2.2,1.4,5.2,0.5,8.9c2,0.1,3.7-1.1,4.8-3.4c0.1-0.3,0.3-0.5,0.6-0.7c0.9-5.5,5-9.4,9.1-9.8
	c0.7-0.1,1.3,0,2,0.1c1.8,0.3,3.3,1.4,4.2,2.9c0.8,1.5,1.2,3.3,1.1,5.4c2.9-0.9,6.4-3.3,9.9-10.4c0.1-0.1,0.1-0.3,0.2-0.4l0,0l0,0
	l0,0l0,0l0,0l0,0l0,0l0,0l0,0l0,0l0,0l0,0v0c0.2-0.2,0.4-0.3,0.6-0.4l0,0l0,0c0.1,0,0.2-0.1,0.2-0.1h0.1c0.4-0.1,0.9,0,1.2,0.1
	c0.3,0.1,0.5,0.3,0.7,0.6l0,0l0,0l0,0l0,0l0,0l0,0l0,0l0,0l0,0l0,0l0,0l0,0l0,0l0,0l0,0l0,0l0,0l0,0l0,0c0,0.1,0.1,0.2,0.1,0.2
	c0.1,0.3,2.1,5.1,3.7,8.1c0.3,0.6,0.6,1.3,0.7,2c0.8,0.9,1.8,1.3,2.9,1.1c1.5-0.2,2.9-1.4,3.7-3c0,0,0.1-0.1,0.1-0.1
	c1.3-4.8,5.6-9.9,10.4-10.4c3-0.3,5.3,1.3,5.7,4c0,0.1,0,0.1,0,0.2c0.2,2-0.8,4.9-4.4,7.2c-2,1.3-5.1,2.8-8.1,3.2
	c0.5,1.1,1.7,1.5,2.8,1.7c5.9,1,11.1-4.4,13.3-8.4c0.5-0.9,1.7-1.2,2.6-0.7c0.9,0.5,1.2,1.6,0.7,2.5c-3.5,6.4-9,9.9-14.1,10.4
	c-1.1,0.1-2.2,0.1-3.2-0.1c-2.7-0.5-4.7-1.9-5.6-4.1c-1,0.7-2.1,1.1-3.3,1.2l-0.2,0c-1.1,0.1-2.1,0-3.1-0.4
	c-0.2,0.6-0.4,1.2-0.7,1.8c-1.1,2-3.1,3.3-5.4,3.5c-2.4,0.2-4.4-1-5-3.1c-0.6-1.9,0.1-3.9,1.7-4.6c0.9-0.5,2.1-0.2,2.6,0.7
	c0.5,0.9,0.2,2.1-0.7,2.6c0,0.2,0,0.3,0.1,0.5c0.1,0.2,0.4,0.3,0.9,0.2c1-0.1,1.9-0.6,2.4-1.5c0.5-1,0.6-2.1,0.4-3.2
	c0,0,0-0.1,0-0.1c-0.1-0.5-0.3-1-0.5-1.5c-0.7-1.5-1.5-3.2-2.2-4.8c-4.3,7-8.9,8.8-12.2,9.3c-0.1,0.3-0.2,0.5-0.2,0.8
	c-1.3,3.9-4.4,6.7-8,7.1c-2.9,0.3-5.9-1.2-7.1-4.8c-1.3,1.1-2.9,1.9-4.6,2c-0.8,0.1-1.7,0-2.5-0.1c-1.6,2.7-4.2,4.5-7,4.8
	c-2.7,0.3-5.6-1-6.9-4.3c-2.7,3.6-5.7,5.6-10.2,6.1c-6.7,0.7-13.5-2.2-18.1-3.6c-0.4,0.6-0.8,1.2-1.2,1.8c-3.3,4.2-5.9,5.5-7.8,5.7
	l0,0c-0.5,0-0.9,0-1.4-0.1c-1.5-0.3-2.8-1.5-3.1-3c-0.1-0.3-0.1-0.6-0.2-0.9c-0.2-2.1,0.8-4.4,2.7-6.1c1.3-1.3,3.1-2,4.9-2.2
	c1.4-0.1,2.9,0,4.2,0.3c1.2-2.5,2.5-5.5,3.8-8.9c-0.9,0.2-1.7,0.3-2.5,0.4l-0.5,0c-7.4,0.6-10.6-3-11.8-5.3
	c-0.7-1.3-1.2-2.8-1.3-4.3C350,245,351.1,241.6,353.2,238.9L353.2,238.9z"/>
<path class="st2" d="M7.3,100.1c-5,0.3,4.9,5.7,7.8,8.3c2.9,2.6,18.2,4.9,23.8,6.9s27.2-4.9,29.9-6.8s19-5.7,26.7-8
	s76.9-5.8,86.1-4.5c9.3,1.3,47,10.1,78.2,17.1c10.1,2.2,23.5,4.9,37.4,7.5c-2.6,1.2-7.1,1.9-10.1,3.3c-2.2,1-3,2.7-5.2,3.6
	c-3.3,1.4-6.7,1.6-9.4,2.7c-3.6,1.6-6,4.1-6.8,4.6c-3.1,2-7.1,6-2.3,7.5c4.7,1.5,35.6-4.4,46.4-7.7c4.9-1.5,12.6-4.1,19.6-6.4
	c-2.4,4.5-2,8.6-4.1,12.7c-1.5,3-5.5,6.5-6.9,7.9c-1.6,1.6-4.6,6.9-9.7,11.3c-2.8,2.4-7.1,3.4-10.1,6.1c-2.6,2.3-3.6,5.4-6.1,7.7
	c-5,4.6-10.9,8-12.9,10.7c-6.4,8.6-16,17-3.7,16.3s32-2.8,47.1-12.4s33.9-25.9,43.4-37c4.8-5.7,10.1-13.8,14.2-20.4
	c12.3-1.5,28.1-4.6,45.4-6.5c25.6-2.9,68.1-14.1,80.5-14.8c12.4-0.7,25.2-1,30.7-1.8c5.5-0.8,10.8-11.2,10.1-15.8
	c-4.7-5.4-10.2-10.1-16.4-13.8c-10-5.8-61.8-18.9-70.2-21.2s-25.3-9.1-30.5-10.6c-5.1-1.5-82.3-15.9-101.7-18.9s-35.8-1.7-45.8-5.6
	s-19-10.4-27.4-13.6s-23-6.2-24.6-4.5c-1.6,1.7-1.3,3.3-5.4,9.5S179,33.2,167.7,36.1c-11.3,3-65.9,36.9-72.1,40.5
	c-6.2,3.6-9.3,5.6-16.4,2.8S60,72.2,54.4,71.6s-1.1,0.7-0.5,6.5c0.5,5.8,2.1,4.9-6.4,7.7s-10.6,7.5-18.2,10.7
	C21.6,99.7,12.4,99.8,7.3,100.1z M446.1,77.1c20.5-3.9,33.8,0.8,51.3,4.6c17.5,3.8,34.9,6.9,34.9,6.9c3.2,0.9,6.1,6.5,3.9,9.9
	c-2.2,3.3-2,3.7-6.4,3.8c-4.5,0.1-11.4-0.7-13.1-0.4c-1.7,0.3-9.6,2.9-14.8,3.6s-3,0.2-1.5-0.8c1.4-1,1.8-1.1,0.8-1.5
	c-0.9-0.4-3.5-0.3-6.1,0.6c-2.6,0.8-15.3,4.3-20.5,5.6c-5.2,1.2-31.4,7.3-33.5,7.3c-2.1,0-10.4,1.3-11.6,1.4c-1.3,0.1-4-0.3-3.2-0.9
	c0.9-0.5,6.8-3.4,8.8-4s17.3-4,19.8-4.8s9.7-2.9,13.9-4.5s18.8-4.8,20.9-5.4c2.1-0.6,1.8-1.1,0.9-1.2c-1-0.1-2.1-0.2-3.1-0.2
	c-0.9,0.1-5.6,0.9-7.3,1.2c-1.7,0.3-23.4,5.2-29.8,6.6c-6.3,1.4-23.2,3.8-26.5,4.8c-3.3,1-19.2,3.5-20.6,3.6c-1.4,0.1-4.5,1-5.6,0.9
	c-1-0.1-1.9,0.3-1.4-0.5s3.3-2.3,5.8-2.7c2.5-0.5,8.5-2.3,11.6-3.8s22.3-8.5,25.5-9.3s20.2-4.8,21.8-5.1c1.6-0.2,3-0.2,2-0.6
	c-1-0.4-2.1-0.6-3.1-0.6c-3,0.1-6.1,0.4-9,1.1c-3.1,0.8-7,1.4-9.9,2.2s-24.5,7.9-27,8.6s-12.1,3.1-14.3,3.4
	c-2.2,0.2-15.3,1.6-17.3,1.6c-2,0-12.9,0.1-14.1,0c-1.3-0.1-3.5-0.1-2.6-0.5c0.9-0.4,2.6-1.5,4.3-1.7c1.7-0.2,5.6-0.3,7.4-0.7
	c1.8-0.3,12.4-1.6,14.9-2.6s15-5.3,18.9-6.5s7.7-3.2,7.3-3.2c-0.5,0-1.9-0.4-3.2,0s-6,1.7-10.3,2.9c-4.3,1.2-14.6,3.3-17.1,3.5
	s-4.4,0.9-3-0.1c1.4-1,3.3-3.2,6.7-4.1s5.5-2.3,10.3-4.2S425.6,81,446.1,77.1L446.1,77.1z M268.5,26.9c4.6,0.2,12.7,4.8,19.6,5.3
	c6.9,0.5,29.1,2,49.4,3.6c20.3,1.6,49.6,7.2,49.6,7.2c20,3.9-15.9,2.8-27.1,0.7s-28.2-3.9-50.3-4c-22.1-0.1-14.5,3.1-21.9,3.1
	c-7.4,0-18.9-9.5-23.3-14.3C260,23.8,263.9,26.7,268.5,26.9z M175.7,87.2c8.9-1.2,19.7-4.2,26.7-3.6c6.9,0.6,5.4,3.1,15.9,6.7
	s15.7,4,22,4.5c6.2,0.4,32.1,13.1,32.1,13.1s-13.1-3.4-26.2-5.7S207,92.3,197,91.5c-10-0.8-28.4-1.5-35.2-0.7S166.8,88.4,175.7,87.2
	L175.7,87.2z M44.5,91.2c2.9-1.3,4.4-3.7,7.5-4.8c3.2-1.1,4.8-0.7,6.1-2c1.3-1.2-0.4-2.7,0.5-3.9c0.8-1.2-1.4-3-2.1-4.5
	c-1.6-3.1,3.7,0,6.5,1s6.2,3.1,9.9,5.2c3.8,2.1,7.2,0.7,11.6,2.3s-8.8,2.1-17.1,2.4c-8.3,0.2-8.9,1.4-13.9,2.2
	C48.6,89.8,41.6,92.5,44.5,91.2L44.5,91.2z"/>
<path class="st0" d="M268.5,26.9c4.6,0.2,12.7,4.8,19.6,5.3c6.9,0.5,29.1,2,49.4,3.6c20.3,1.6,49.6,7.2,49.6,7.2
	c20,3.9-15.9,2.8-27.1,0.7s-28.2-3.9-50.3-4c-22.1-0.1-14.5,3.1-21.9,3.1c-7.4,0-18.9-9.5-23.3-14.3C260,23.8,263.9,26.7,268.5,26.9
	z"/>
<path class="st0" d="M175.7,87.2c8.9-1.2,19.7-4.2,26.7-3.6c6.9,0.6,5.4,3.1,15.9,6.7c10.5,3.5,15.7,4,22,4.5s32.1,13.1,32.1,13.1
	s-13.1-3.4-26.2-5.7S207,92.3,197,91.5c-10-0.8-28.4-1.5-35.2-0.7C154.9,91.5,166.8,88.4,175.7,87.2z"/>
<path class="st0" d="M446.1,77.1c20.5-3.9,33.8,0.8,51.3,4.6c17.5,3.8,34.9,6.9,34.9,6.9c3.2,0.9,6.1,6.5,3.9,9.9
	c-2.2,3.3-2,3.7-6.4,3.8c-4.5,0.1-11.4-0.7-13.1-0.4s-9.6,2.9-14.8,3.6c-5.2,0.8-3,0.2-1.5-0.8c1.4-1,1.8-1.1,0.8-1.5
	c-0.9-0.4-3.5-0.3-6.1,0.6c-2.6,0.8-15.3,4.3-20.5,5.6c-5.2,1.2-31.4,7.3-33.5,7.3c-2.1,0-10.4,1.3-11.6,1.4c-1.3,0.1-4-0.3-3.2-0.9
	c0.9-0.5,6.8-3.4,8.8-4c2-0.6,17.3-4,19.8-4.8s9.7-2.9,13.9-4.5c4.2-1.6,18.8-4.8,20.9-5.4c2.1-0.6,1.8-1.1,0.9-1.2
	c-1-0.1-2.1-0.2-3.1-0.2c-0.9,0.1-5.6,0.9-7.3,1.2s-23.4,5.2-29.8,6.6c-6.3,1.4-23.2,3.8-26.5,4.8c-3.3,1-19.2,3.5-20.6,3.6
	c-1.4,0.1-4.5,1-5.6,0.9c-1-0.1-1.9,0.3-1.4-0.5s3.3-2.3,5.8-2.7c2.5-0.5,8.5-2.3,11.6-3.8s22.3-8.5,25.5-9.3s20.2-4.8,21.8-5.1
	c1.6-0.2,3-0.2,2-0.6c-1-0.4-2.1-0.6-3.1-0.6c-3,0.1-6.1,0.4-9,1.1c-3.1,0.8-7,1.4-9.9,2.2s-24.5,7.9-27,8.6s-12.1,3.1-14.3,3.4
	c-2.2,0.2-15.3,1.6-17.3,1.6c-2,0-12.9,0.1-14.1,0c-1.3-0.1-3.5-0.1-2.6-0.5c0.9-0.4,2.6-1.5,4.3-1.7c1.7-0.2,5.6-0.3,7.4-0.7
	c1.8-0.3,12.4-1.6,14.9-2.6s15-5.3,18.9-6.5s7.7-3.2,7.3-3.2c-0.5,0-1.9-0.4-3.2,0s-6,1.7-10.3,2.9c-4.3,1.2-14.6,3.3-17.1,3.5
	s-4.4,0.9-3-0.1c1.4-1,3.3-3.2,6.7-4.1s5.5-2.3,10.3-4.2S425.6,81,446.1,77.1z"/>
</svg>
