<?xml version="1.0" encoding="utf-8"?>
<!-- Generator: Adobe Illustrator 23.0.1, SVG Export Plug-In . SVG Version: 6.00 Build 0)  -->
<svg version="1.1" id="Layer_1" xmlns="http://www.w3.org/2000/svg" xmlns:xlink="http://www.w3.org/1999/xlink" x="0px" y="0px"
	 viewBox="0 0 320.6 323.4" style="enable-background:new 0 0 320.6 323.4;" xml:space="preserve">
<style type="text/css">
	.st0{fill:#63513D;}
	.st1{fill:#DA6118;}
</style>
<title>character-whale</title>
<g>
	<path class="st0" d="M291.1,215.2c4.8-11.1,11.4-44.8,10.6-54.2c-0.7-9.4-8-40.7-8-49.1c0-8.5,2.9-47.4-0.5-61.7
		c-3.4-14.3-12.1-29.8-18.4-31.9c-6.3-2.2-27.6-3.6-33.2-0.5c-5.6,3.1-11.6,13.8-12.3,14.3c-0.7,0.5-14,8.2-15,9c-1,0.7-5,2.7-5,2.7
		s-1.6,4.5-0.6,4.5c1,0,7,1.7,10.4,1.5c3.4-0.2,14.5-0.2,14.5-0.2s0,0-4.6,3.1c-4.6,3.1-9.9,5.8-9.2,6.8c0.7,1,3.1,1,5.7,0.2
		c2.6-0.7,13.9-6,18.2-5.8c4.4,0.2,6.8-1.2,9.4,3.1c2.7,4.4,8.5,20.8,9,27.6c0.5,6.8,1.7,35.8-1.2,40.7
		c-2.9,4.8-17.2,15.5-19.6,15.2c-2.4-0.2-24.9-4.1-28.3-4.1s-30.5,1.9-33.2,1.7c-2.7-0.2-22.3-1.5-26.1-1.7c-3.9-0.2-7.5-1-7.7,1.2
		c-0.2,2.2,0.7,2.2,0.7,2.2s-12.3-1-12.6,0.2c-0.2,1.2,0.5,6.1,2.2,8c1.7,1.9,9,4.4,9,4.4s-31.9,22.7-38.7,27.8
		c-6.8,5.1-45.7,41.1-49.1,46.5c-3.4,5.3-11.6,19.6-11.4,22.5c0.2,2.9,7.7,13.8,10.2,13.3c2.4-0.5,10.6-3.6,10.6-3.6s6.3,0,10.6-2.4
		c4.4-2.4,23.7-19.4,28.6-18.6c4.8,0.7,39.4,10.9,56.6,15.7c7.4,2.1,18.6,3.8,30.5,4.6c1.7,4.3,5,13.2,4.9,15.8
		c-0.1,3.5-1.2,18.4-3.7,26s1.4,6.8,6.2,6.7c4.8-0.2,24.5,0.8,30.6,1c6.1,0.2-1.5-4.2-1.5-4.2s-6-3.9-11.7-7.3
		c-5.7-3.4-7.6-3.6-7.5-7.5c0.1-3.9-0.2-13.6,0.6-19.3c0.4-2.7,1.5-7,2.5-10.9c8.8-0.5,17-1.7,23.1-4.1
		C255.5,246.9,286.2,226.3,291.1,215.2z M294.2,146.5c1,3.2,1,8.1,0,8.4c-1,0.3-6.5-10.3-9-13.6c-2.6-3.2-6.8-11.6-9-15.2
		c-2.3-3.5-5.5-7.7-6.1-9.7c-0.6-1.9-1.3-9,2.3-2.9c0,0,4.5,6.1,7.7,9.4c3.2,3.2,10,10,10.3,11.9
		C290.7,136.9,293.3,143.3,294.2,146.5z M282.9,120.4c-3.9-1.3-5.2-9-8.4-13.2c-3.2-4.2-6.5-7.7-6.8-10c-0.3-2.3,3.5-4.8,4.5-1.6
		c1.7,5.7,11.6,11.6,13.6,14.8c1.9,3.2,3.5,8.7,3.9,11C290,123.6,286.8,121.7,282.9,120.4z M262,61.7c0-4.5,2.3-14.2,4.8-16.1
		c2.6-1.9,10.3-6.1,13.2-3.9c2.9,2.3,8.1,10.6,8.7,17.7c0.6,7.1,0.3,24.5,0.3,24.5c0,4.5,1,20.3-0.6,18.7S269.7,88.8,268.1,83
		S262,66.2,262,61.7z M147.7,237.5C147.7,237.5,147.7,237.5,147.7,237.5c0,0-16.1-5.2-12.9-7.7c2.6-2,10-10.5,18.4-17.8
		c2.1,4.5,5,10.7,7.3,15.7c2.5,5.4,8.4,11.9,13.4,16.6C164.3,241.6,154.5,238.5,147.7,237.5z M247.1,229.8c0.9,2.6,2.5,4.9,4,6.7
		c-1.6,0.5-3.4,1.1-5.2,1.6c-2.1-3.1-5.3-7.6-7.7-11.1c-4.4-6.3-15.5-20.3-18.4-25.2c-2.9-4.8-5.8,11.6-5.8,11.6s7.7,16.5,12.1,21.8
		c2.1,2.6,7,4.2,11.6,5.1c-11.4,3-24.1,5.7-32.5,7.1c-5.6-5.9-9-14.8-9-14.8c-0.6-5.2-12.3-0.6-11.6,1.9c0,0.1,0.1,0.2,0.1,0.2
		c-5.6-5.6-17.1-17.3-20.5-21.3c-1.3-1.5-3.6-3.7-6-5.7c0.6-0.4,1.2-0.9,1.8-1.3c11-7.7,11-5.8,5.2-9.7c-5.8-3.9,0,0,15.5-8.4
		c15.5-8.4,21.3-7.7,5.8-8.4c-7.9-0.3-16.2,0.3-22.5,1.1c5.5-3.5,11.2-7.2,16.1-10.1c6.7-4.1,20.1-7.9,33.7-10.8
		c6.1,6.3,19.3,19.9,23.8,22.5c5.8,3.4,10.5-0.5,13.9,0.5c3.4,1-4.4-3.9-9.7-9.2c-3.4-3.4-9.2-11.2-13.1-16.5
		c4.8-0.7,9.4-1.3,13.3-1.7c5.3-0.5,28.1-20.8,31-15.5c2.9,5.3,2.6,6.8,6.5,24.8c0.7,3.4,1.3,6.9,1.8,10.2
		c-6.9-0.2-20.5-0.7-24.4-1.2c-5.2-0.6-8.1-2.3-1.6,2.3c6.5,4.5,11,4.2,13.9,5.5c2,0.9,8.9,1.9,13.2,2.5c0.3,2.4,0.5,4.7,0.8,6.7
		l-11.7-4.4c-4.8-2.6,1.9,4.2,5.8,5.8c2,0.8,4.6,2.4,6.7,3.9c0.2,1.3,0.5,2.5,0.8,3.6c1.9,7.1-15.5,24.5-21.9,31
		c0,0-16.8-10.3-18.7-10.3S245.2,224,247.1,229.8z"/>
	<path class="st0" d="M209,209.8c0,0,0.6-5.8-2.9-12.9c-3.5-7.1-12.6-14.2-8.7-9C199,190,209,209.8,209,209.8z"/>
	<path class="st0" d="M247.2,211.9c-4.3-3.2-16.2-9.1-19.5-12.4c-15.2-15.7-4.9,2.2,1.1,6.5c6,4.3,6.5,8.1,14.1,9.2
		C250.5,216.2,251.6,215.2,247.2,211.9z"/>
	<path class="st0" d="M198.1,204.6c-1.9-7.1-7.7-11.6-7.7-11.6l-8.4,8.4c0,0,0,5.2,5.2,11.6c5.2,6.5,13.6,15.5,20,19.4
		c6.5,3.9,13.6,2.6,13.6,2.6s-5.2-5.8-9.7-12.3C206.5,216.2,200,211.7,198.1,204.6z"/>
</g>
<g>
	<path class="st1" d="M50.9,117.2c25.6,7.8,54.6,4.6,79-6.4c24.4-11,44.5-29.1,59.3-49.9l5.3-3.4c-17-1.7-29.5-14.3-43.4-23.1
		c-31-19.8-74.8-21.6-108.3-4.6C25.7,38.5,10.6,53.4,9.6,71C8.4,92.4,28.6,110.4,50.9,117.2z M155.7,68.5c0,0.9-0.4,1.5-1.3,1.7
		l-2.7,0.5c-0.9,0.2-1.4-0.2-1.4-1.1l0-1.8c0-1,0.4-1.5,1.3-1.7l2.7-0.5c0.9-0.2,1.4,0.2,1.4,1.1L155.7,68.5z M151.2,45.3l2.5-0.5
		c0.9-0.2,1.3,0.2,1.4,1.1l0.3,14.2c0,1-0.4,1.5-1.3,1.7l-2.5,0.5c-0.9,0.2-1.4-0.2-1.4-1.1L149.9,47
		C149.8,46.1,150.3,45.5,151.2,45.3z M135.2,48.5l4.2-0.8c3.1-0.6,5.2,1.2,5.3,4.3l0.4,14.6c0.1,3.2-2,5.8-5.1,6.4l-4.2,0.8
		c-3.1,0.6-5.3-1.1-5.3-4.4l-0.3-14.6C130,51.7,132.1,49.1,135.2,48.5z M117.2,52.1l4.2-0.8c3.1-0.6,5.2,1.2,5.3,4.3l0.4,14.6
		c0.1,3.2-2,5.8-5.1,6.4l-4.2,0.8c-3.1,0.6-5.3-1.1-5.3-4.4l-0.3-14.6C112,55.3,114.1,52.7,117.2,52.1z M94.3,56.6l2.5-0.5
		c0.9-0.2,1.3,0.2,1.4,1.1l0.2,8.7l4.8-0.9l-0.2-8.7c0-0.9,0.4-1.5,1.3-1.7l2.5-0.5c0.9-0.2,1.3,0.2,1.4,1.1l0.5,22.5
		c0,0.9-0.4,1.5-1.3,1.7L105,80c-0.9,0.2-1.4-0.2-1.4-1.1l-0.2-9l-4.8,0.9l0.2,9c0,0.9-0.4,1.5-1.3,1.7l-2.5,0.5
		c-0.9,0.2-1.4-0.2-1.4-1.1L93,58.3C93,57.3,93.4,56.8,94.3,56.6z M79.5,59.5l9.1-1.8c0.9-0.2,1.3,0.2,1.4,1.1l0,2
		c0,0.9-0.4,1.5-1.3,1.7l-4.6,0.9c-0.4,0.1-0.6,0.3-0.6,0.8l0.1,4.7l3.7-0.7c0.8-0.2,1.3,0.2,1.4,1.1l0,2c0,0.9-0.4,1.5-1.3,1.7
		l-3.7,0.7l0.1,5c0,0.4,0.3,0.6,0.6,0.5l4.6-0.9c0.9-0.2,1.4,0.2,1.4,1.1l0,2c0,0.9-0.4,1.5-1.3,1.7l-9.1,1.8
		c-0.9,0.2-1.4-0.2-1.4-1.1l-0.5-22.5C78.1,60.3,78.6,59.7,79.5,59.5z M64.6,62.5l9.1-1.8c0.9-0.2,1.3,0.2,1.4,1.1l0,2
		c0,0.9-0.4,1.5-1.3,1.7l-4.6,0.9c-0.4,0.1-0.6,0.3-0.6,0.8l0.1,4.7l3.7-0.7c0.8-0.2,1.3,0.2,1.4,1.1l0,2c0,0.9-0.4,1.5-1.3,1.7
		l-3.7,0.7l0.1,5c0,0.4,0.3,0.6,0.6,0.5l4.6-0.9c0.9-0.2,1.4,0.2,1.4,1.1l0,2c0,0.9-0.4,1.5-1.3,1.7l-9.1,1.8
		c-0.9,0.2-1.4-0.2-1.4-1.1l-0.5-22.5C63.2,63.2,63.7,62.7,64.6,62.5z M45.3,66.3l2.5-0.5c0.9-0.2,1.3,0.2,1.4,1.1l0.2,8.7l4.8-0.9
		L54,66c0-0.9,0.4-1.5,1.3-1.7l2.5-0.5c0.9-0.2,1.3,0.2,1.4,1.1l0.5,22.5c0,0.9-0.4,1.5-1.3,1.7l-2.5,0.5c-0.9,0.2-1.4-0.2-1.4-1.1
		l-0.2-9l-4.8,0.9l0.2,9c0,0.9-0.4,1.5-1.3,1.7l-2.5,0.5c-0.9,0.2-1.4-0.2-1.4-1.1L44,68C43.9,67,44.4,66.5,45.3,66.3z M33.9,68.5
		l5.6-1.1c0.9-0.2,1.3,0.2,1.4,1.1l0,2c0,0.9-0.4,1.5-1.3,1.7l-3.4,0.7c-1.4,0.3-2.1,1.2-2,2.7l0.2,11.2c0,1.5,0.8,2.1,2.3,1.8
		L40,88c0.9-0.2,1.4,0.2,1.4,1.1l0,2c0,0.9-0.4,1.5-1.3,1.7l-5.6,1.1c-3.1,0.6-5.3-1.1-5.3-4.3l-0.3-14.6
		C28.8,71.7,30.9,69.2,33.9,68.5z"/>
	<path class="st1" d="M137.7,68.7l0.2,0c1.3-0.3,2-1.1,1.9-2.5l-0.3-11.7c0-1.4-0.7-1.9-2-1.7l-0.3,0.1c-1.3,0.2-1.9,1.1-1.9,2.5
		l0.3,11.7C135.7,68.4,136.4,68.9,137.7,68.7z"/>
	<path class="st1" d="M119.6,72.3l0.2,0c1.3-0.3,2-1.1,1.9-2.5l-0.3-11.7c0-1.4-0.7-1.9-2-1.7l-0.3,0.1c-1.3,0.2-1.9,1.1-1.9,2.5
		l0.3,11.7C117.7,71.9,118.3,72.5,119.6,72.3z"/>
</g>
</svg>
