<svg xmlns="http://www.w3.org/2000/svg" width="400" height="400" viewBox="0 0 400 400"><path d="M253.73,168.13c4.59-1,58.93-23.92,57.28-28.9S303,125,303,125c-47.83-29.07-111.7-27.84-117.71-27.66a.47.47,0,0,0,.05-.1l-.24.11h-.27l.09.06c-5.51,2.4-63.8,28.53-94.66,75.23,0,0-1.79,11.12-1.16,16.34s59.55,2.73,64.14,1.7c2.06-.46,3.13-3.39,3.69-6.49.73,2.79,1.79,5.2,3.25,5.21,3.33,0,25.31-1.94,40.39-5.05l27.15,112.4c-15.25-2.47-12.57,0-26.66-1.69-14.79-1.74-15.32-.69-32.22,2.1l-.45.07V231c0-8.9-5.09-15-9.16-14.46s-29.5.56-45.27.56S93.1,219.31,93.1,232.66v69.68h5.59V288.83l65.11-.55v9.45c0,.06,0,.11,0,.17-14.91,2.25-28,3.36-30.83,4.44,0,0,146.76,1.05,137.25,0-8.47-.93-19.46-1.86-34.44-4.27l-27.27-115.6c15.28-3.75,36.21-9.94,37.1-12.26.67-1.73-.08-7.22-.67-10.77C246.81,163,250.47,168.86,253.73,168.13Zm-152.5,65.64s-3.56-7.78,3.57-9.45,43.23-1.12,50.86-1.12,7.63,5,7.63,8.35ZM242.44,168c-1.81,1.48-27.82,9.72-41,12.94s-38.7,5.46-40.23,3.39c-1-1.29-2.49-5.59-3.5-8.64,1.7-6.1,16-53.89,27.71-75.81,18.86,14,50.18,47.71,57,55.58C242.94,159.36,243.77,166.9,242.44,168Z" fill="#63513d"/></svg>