<svg xmlns="http://www.w3.org/2000/svg" width="262.54" height="342.22" viewBox="0 0 262.54 342.22"><path d="M151.24,303.11c.14,3.14,3.42,14.81,5.84,18.23s12.76,4.84,22.27,4.84,19.9-1.49,22.28-4.84,5.69-15.09,5.83-18.23-3.52-26.24-4.55-32.75c-1-6.26-4.56-8.54-4.56-12.81,0-1.42.57-2.25.57-6,0-6.55-6.41-16.52-6.41-26.2a87.74,87.74,0,0,1,.71-10.25s1.85-1.57,2-2.85a1.86,1.86,0,0,0-.72-1.47,8.44,8.44,0,0,0,2.29-1.31c.64-.71,1.35-8.54,1.35-8.54s3.51-1.1,3.94-1.1,1.13-3.92,1.21-4.92.07-1.63-.57-2-8.48-2.44-23.37-2.44-23.22,2.35-23.86,2.71-.64,1-.57,2,.79,4.91,1.21,4.91,4.43.84,4.43.84.71,7.83,1.35,8.54a8.44,8.44,0,0,0,2.29,1.31,1.82,1.82,0,0,0-.71,1.47c.14,1.28,2,2.85,2,2.85a87.74,87.74,0,0,1,.71,10.25c0,9.68-6.41,19.65-6.41,26.2,0,3.73.57,4.56.57,6,0,4.27-3.56,6.55-4.55,12.81C154.76,276.87,151.1,300,151.24,303.11Zm42.21-37.82c1.67,1.39,1.71,7.26,1.71,10.68s2.85,21.64,2.71,26.19-.71,5.7-2.28,11.54-3.28,6.69-4.7,7-2-2.14-2.28-7.41-.14-8.83-.14-12.1,1.14-21.08,1.14-25.06a37.41,37.41,0,0,1,.85-8.69C190.89,265.86,191.74,263.86,193.45,265.29ZM192,252.42c-1.28,2.42-4.56,1.43-5.55.29s.14-5.7-1-11.68a57.31,57.31,0,0,1-1.42-11.1,60.25,60.25,0,0,1,.57-11.39c.14-.57,2.42-.29,2.42-.29a119.89,119.89,0,0,0,1.28,15.52C189.47,240.18,193.31,250,192,252.42Zm-12.68-41.2c6,0,12.91-.39,12.91-.39s-2.19,2.77-12.91,2.77-12.9-2.77-12.9-2.77S173.39,211.22,179.35,211.22Z" fill="#e7e4dc"/><path d="M213.3,99.5c-5.2-9.67-6.28-13.4-19.2-18.61s-16.36-6.69-29.87-.74l-16.35,7.21,2.93-4.51s-3.73-.56-2.13-3.07,6.13-5.58,11.73-7.54,6.67-2.23-1.6-2.51-7.2-1.4-7.2-1.4,8-1.39,13.07-1.67,4.53-4.75,9.86-5,1.07-2.52,6.4-2.24,4.27.56,5.6-1.39.54-4.47,10.94-3.91,8.26,1.12,2.48-5.47-6.48-6.53-10.75-7.09a56,56,0,0,0-20.27,2,67.36,67.36,0,0,0-8.76,3.22c.57-2.14,2.31-3.27-.3-6s-.8-2,1.6-5,4-3.35,4.26-7-2.4-2.23,1.87-5,2.4-2.52-2.93-1.12S150,26,144.14,30.65A64.26,64.26,0,0,0,130.54,46c-3,4.49-3.41,14-4.29,22.63a2.71,2.71,0,0,1-2.19-2.25c-.36-1.49,0-8.56,0-11.16s-3.56-8.56-3.56-10.8-2.49-7.81-4.27-7.81h-1.77s-7.12-5.21-7.83-8.93-1.77-8.56-5-11.17S97.39,22.84,97,27.3,96,37.35,96,37.35A4.54,4.54,0,0,0,93.12,40c-1.06,2.23-.35,5.95,0,8.56s10,13,10,13-5.69-1.49-6.76,1.12,3.91,6.33,5.34,7.81L109.83,79a9.69,9.69,0,0,0-4.62-.37c-2.84.37-2.13,4.84-2.13,4.84-7.47-5.21-6.76-8.93-14.93-11.16S70,70.85,69,71.22s-9.25-.75-4.63,3.72S72.83,79.35,76,83.29s-.34,6.16,5.71,7.28a40.39,40.39,0,0,1,12.8,4.1c4.62,2.23,3.91,2.6,2.48,4.09s.72,3,5,4.46l.43.15c-6.48,1.31-13.16,3-16.31,5.85-5.81,5.17-18.25,10.75-22.87,15.59S54.72,136,52.24,139s1.42.75,6-.74,6.75-3.72,9.6-1.12,2.49,1.86,5.33-2.23,10-10.12,10-10.12,2.49,9,4.26,9.37,4.22-5.7,7.12-6,3.91,3.72,7.46,2.23,3.56-8.18,7.47-10.79c2.53-1.68,6.09-4.92,9.16-7.3-.87,6.84-2.38,18-4.18,28.14-.92,5.14-2.56,14.94-4.53,26.28a28.64,28.64,0,0,1,4.88.14c.94.33-2,1.52-5.35,2.56-3.15,18-7,39.18-10.16,51.66,3.74-.81,8.59-1.63,11.2-1.14,1.48-5.08,2.63-9.43,3.25-12.51,2.2-11,10-52.32,14.58-77,1.09,1.46,2.59,3.19,3.81,4.63,2.14,2.52,1.34,6.42,1.34,10.33s.26,6.14,1.33,8.65,4.53-.55,4.53-.55a66.93,66.93,0,0,1-.19,9.21c-.45,3.06,4.46,7.53,5.26,8.09s3.14-2.45,5.87-1.11a88,88,0,0,1,8.66,5.72,9,9,0,0,0,1.74-5.45c-.27-2.79-3.47-12-4.27-14.79s-4-6.14-4-6.14c2.93,1.4,2.67-.28,1.07-2.79s-8.48-13.74-9.07-17.31c-.21-1.28-1.16-5.27-2.3-9.87a29.24,29.24,0,0,0,2.92,4.66c1.07,1.12,3.91,3.35,3.56,1.12s3.2-2.23,5.33.74,6.4,12.29,7.82,13.77,6,4.1,3.56-1.86,5.33,1.49,9.24,5.59,6.76,7.07,8.18,5.95,5.69-.74,9.1.93,11.88,7.26,11.88,7.26a52.58,52.58,0,0,0-.71-7.45c-.71-4.46-1.78-17.86-7.11-24.19s-13.16-8.93-26.32-17.37A78.84,78.84,0,0,0,157.79,102c2.34-.74,2.29-1.75,7.15-1,7.47,1.12,3.56.75,7.47.37s-.36-4.83-3.2-6.69-2.59-7-2.59-7,9,8.07,15.22,10.52a13.56,13.56,0,0,1,3.94,2.11,3,3,0,0,1-.21-.84,18.09,18.09,0,0,0-2.14-5.58s10.67,9.3,16.36,11.17.64-4.45,8.53-1.12S218.5,109.18,213.3,99.5Z" fill="#e7e4dc"/><path d="M52.48,305.89a179.25,179.25,0,0,1-18.89,15,1.7,1.7,0,0,0,1,3.09s99.54.49,95.55-.17a253.76,253.76,0,0,1-27.41-5.38c-12.27-3.22-9.74-.35-19.84-2.15-4.61-.81-7.18-1-9.72-.76,1.56-3.89,3.51-8.66,5.53-13.41-6-.5-14.64-1.64-14.64-1.64-3.49.36,6-3,9.18-3.34,1.52-.18,4.79-.35,7.82-.49.57-1.3,1.13-2.56,1.69-3.78-3-.22-6.76-.57-7.73-.57-1.42,0,1.19-2.43,4.68-2.7,1.12-.09,2.85-.19,4.7-.28,1.13-2.38,2.18-4.43,3.06-5.95,2.72-4.65,8.18-18.71,13.46-33.83-15.32,0-7.72-1.52,1.07-3.07,2.71-7.84,5.31-15.81,7.42-22.77-2.9.78-7.42,1.07-11.24,1.75a43.71,43.71,0,0,1-1.46,4.33C94,236.23,85.79,252.55,77.41,268c4.83-.13,10,0,10,1.19,0,2.23-1.77.74-6,1.86-1.67.44-4,.87-6.32,1.24-6.47,11.76-12.75,22.42-16.43,27-.68.86-1.44,1.72-2.24,2.6,4.52,2,10.72,4.65,11.83,4.48,1.79-.29-4.73,1.51-4.73,1.51Z" fill="#e7e4dc"/></svg>