<svg xmlns="http://www.w3.org/2000/svg" width="971.11" height="1058.12" viewBox="0 0 971.11 1058.12"><title>icon-leaf-lighttan</title><path d="M611.6,37.94c12.7,43.15.89,85.24,2,126.09,1.57,57.07-19.55,111.39-27.23,167.31-5.87,42.66-19,85.43-53.5,118.06-11.2,10.59-22.73,13.25-33.71,9.41-5.43-1.9-11.17-14.17-9.71-20.56,4.2-18.24,9.89-37,18.76-53.56,40.65-75.92,64.84-155.54,70.29-239.74,1.64-25.43.84-50.85,3.27-76.25C584.09,44.45,569.92,35,553.1,28.06c-19.65-8.14-39.66-15.92-60.34-21.13-17-4.28-35.13-4.57-55.4-6.93,18.12,27.17,32.93,49.74,37.43,81.84,5.57,39.71-3,77.93-6.55,116.74-3.94,43.55-15,86.07-30.79,127.69-5.28,13.93-14.8,18.05-26.6,18.89-12.6.91-18.79-8.67-18.35-19.18,1.21-28.93,2.31-58.29,7.93-86.89,9.23-47,22-93.54,17.19-141.19-1.6-16-.92-32.4-2.83-48.28-2.77-23-8.89-27.1-30.25-26.9C343.1,23.1,302,26.47,261,39.26c-10.68,3.33-22.33,2-34.15,2.81,12.16,17.46-3.45,29.69-13.21,43.36-.6.84-2,1.07-2.61,1.9C203.37,97.88,189.67,109,189.62,119c-.07,15.55,6.86,32,14.84,45.13,19,31.38,40.75,60.77,60.32,91.77,3,4.8,2.92,15.46-.26,20.51-5.14,8.15-11.4,2.33-16.13-2.38-10.17-10.14-20.44-20.16-30.53-30.39-14.93-15.15-29.26-31-44.72-45.51-13.81-13-18.32-23-24.75-63.2-4.76,5.29-9.1,8.87-11.84,13.42-6.71,11.14-11.85,23.3-19.11,34C105.1,200.54,106,217.46,115,234.54c6.74,12.78,14.47,25.08,19.76,38.6,19.73,50.51,61.72,75.61,104.08,100.29,23.47,13.68,47.68,26.09,71.14,39.77,8,4.65,16.22,10.21,21.52,17.66,3.36,4.74,3.5,14.3,1.4,20.65-1.76,5.3-9,12.65-13.58,12.86-12.37.57-27.26,1.87-36.46-4.3-45.24-30.36-90.53-61-132.69-95.59-29.59-24.27-45.56-61.13-59.67-98-1.6-4.18-2.25-8.83-6.41-14.24-9.3,27.88-22.16,55.47-26.57,83.76-2.67,17.18-7.26,32.19-13.54,48C33.31,411,48.91,430.7,60.53,449.65,87.88,494.3,130.85,517.18,179,531.52s96.66,28.57,145,42.81c7.43,2.19,16.69,4.63,12.24,15-2.43,5.67-11.6,12.62-17,12.45-25.55-.81-51.27-2.15-76.13-6.64-24.52-4.42-49.16-10.41-71.81-20-44.77-19-94.47-15.46-141-25.67-9.71-2.13-19.74-3.1-30.25-4.7,2.38,33.52,4.41,65.88,7.24,98.11.43,4.85,3.4,10.94,7.15,13.24,46.19,28.37,96.08,49.17,151.74,49.6,49.54.37,109.6-9,145.39-12.52s16.8,25.35-11.07,38c-34.71,3.36-66.36,8.57-100.2,5.66-47.43-4.08-91.91-22.7-138.68-31-6.83-1.22-13.72-2.18-21.94-3.48-.91,32.5,3.51,62.46,13.24,91.11,2.51,7.41,6.91,14,9.25,21.47,6.18,19.7,17.11,29.64,38.5,34.15,52.41,11,104.18,4.11,156.3-10.63,35.73-10.1,71-22.53,106.57-33.67,3.67-1.15,18.44-9,29.21.2s-9.06,22.57-13.65,26c-41.45,31.23-101,40.63-148.64,55.53q-47.32,14.8-94.51,30.22c-9.41,3.08-18.59,7.17-27.88,10.8,4.42,9.41,6.7,21.28,13.62,27.83,32.12,30.41,64.62,61.52,113.35,61.09,8.72-.08,18.18-6.81,26.87-11.48,6.38-3.43,12.06-8.52,17.42-12.41,25.4,25.37,53.41,42.94,87.61,49.06,33.44,6,66.83,12.64,100.74,16,16.4,1.63,34.23-1.79,50.92-6.07,19.35-5,28.47-22.61,37.51-40.07,10.42-20.12,22.63-39.32,36.36-62.87l27.42,97.1,22.65-12.55q-20.28-57.57-40.59-115.12c-1.73-4.87-13.53-21.77-18.21-36.59-5.46-17.31-12-34.16-17.1-51.62a78.13,78.13,0,0,1-2.81-25.85c.26-4.4,5.21-8.91,8-13.37l6.58.66C585.92,817,592.56,843,601.18,868c11.72,34.09,36.83,52.65,70.89,57.7,36.49,5.4,73.35,9.2,111.13,1,27.25-5.9,46.75-25.57,67.45-44,29.22-26,56-53.5,70-91.47a139.9,139.9,0,0,0,6.4-22.81c3.6-19.43,9-37.35,21.34-54.36,18-24.72,22.6-54.71,22.67-83.25.1-34.87-4.75-69.33-7.57-105.34-11.66,12.63-21.6,25.33-33.36,35.71C902.1,586,873.3,609.88,844.56,633.8c-18.47,15.37-35.81,34.77-56.48,43.93-19.35,8.57-42.45,6.71-63.86,8-6.61.39-6.54-7.86,1.11-13.78,14-10.82,28.14-21.6,42.9-31.11,33-21.25,67.29-40.21,99.32-63,24.62-17.49,49.44-39,59.35-68.54,13.7-40.83,5.91-79.89-21.26-113.56C885,370.15,868.66,346.09,867,359c-.42,3.17.81,38.41-5.05,53.15-8.87,22.29-17,44.91-24.13,67.74-14.07,45.11-52,49.48-86.44,81.17-20.24,18.63-34.59,65.25-53.36,55.43s-5-44.5,3.49-54.31c20.44-23.49,40.78-47.1,60.67-71.09q34.07-41.07,67.24-82.91c14-17.54,20.34-37,21-59.56.43-14.34,5-30.27,11.94-43.25,9.31-17.39,8.91-32.76.3-46.52-18-28.78-35.43-57.92-63.14-78.69-15.77-11.83-27.1-29.85-39.93-44.52.29,15.26.15,32.77,1.06,50.13,2.66,50.54-9,98-33,144.58a313.91,313.91,0,0,0-28.21,80.8c-6.52,32.58-17.92,58.69-46.38,77.71-10.92,7.3-18.1,21.16-27.25,31.78-3.13,3.62-6.71,7.48-10.76,9.39-4.38,2.08-9.53,2-14.35,2.86.55-5.5-.64-12.1,2-16.33,10.79-17.54,23.3-34,34.14-51.54,28.67-46.38,57.66-92.72,75.24-144.66,4.32-12.75,6-26.25,9-39.39,1.2-5.26,1.36-11.31,4.12-15.58,13.84-21.33,10-42.18,7.36-64.44-1.67-14.3,4.49-30.28,7.18-45.49,6.27-35.47,2.42-46.36-26.09-62.53C681,74.41,647.65,57.28,611.6,37.94Zm-193,861c-3.25,8.41-4.49,18.88-10.1,24.86C388.82,944.74,368,964.46,347,984c-18.49,17.23-32.43,18.36-52.53,6-2.07-1.26-4.26-2.32-9.18-5l128.25-90Zm16-226.67c13.84,17.9-12.87,27.22-46.44,36.6s-35.69-2.69-38.1-24C347.45,662.4,420.7,654.39,434.53,672.3ZM919,745.73a76.25,76.25,0,0,1-7.79,7.18,130,130,0,0,1-14.61,9.82c-27.43,15.94-54.51,32.8-82.59,47.13-13.94,7.12-28.5,4.67-41.53-4.17-9.56-6.49-20.79-10.46-31.27-15.55-.08-1.68-.16-3.36-.23-5,5.49-3.05,10.82-7.74,16.49-8.8,13.48-2.52,27.22-2.32,40.66-5C839.43,763,880.63,753.91,919,745.73ZM647.53,700.45c-32.89,24.24-40.28-12.57-11.92-53.93C660.14,610.75,680.41,676.22,647.53,700.45ZM495.08,484.6c8.18,8.39,9.78,24-6.22,39.19-4.47,4.22-12.7,9.46-21.07,3.61s-3.64-16-.62-21.1C477.5,488.64,486.89,476.22,495.08,484.6Z" fill="#e7e4dc" opacity="0.8"/></svg>