<svg xmlns="http://www.w3.org/2000/svg" width="22" height="22" viewBox="0 0 22 22"><title>icon</title><path d="M13.43,6.06a2.27,2.27,0,0,0,.25-.49,1.83,1.83,0,0,0-.82-2.09,1.59,1.59,0,0,1,.71-.59.41.41,0,0,0,.24-.52.4.4,0,0,0-.52-.24A2.42,2.42,0,0,0,12.1,3.18,1.85,1.85,0,0,0,9.93,4.33a4,4,0,0,0-.15,1L8.33,5.13,3.61,11.2v2.87L17.8,10.33V7.46S17.31,6.91,13.43,6.06ZM10.3,7.74l.42.06a.38.38,0,0,1,.32.42.38.38,0,0,1-.37.32h-.05l-.42,0a.37.37,0,1,1,.1-.74Zm3.53-.53.28-.31a.37.37,0,0,1,.53,0,.37.37,0,0,1,0,.52l-.28.32a.36.36,0,0,1-.27.12.35.35,0,0,1-.25-.1A.37.37,0,0,1,13.83,7.21ZM11.7,3.8h.08l0,.15a.4.4,0,0,0,.26.5l.12,0a.42.42,0,0,0,.39-.28.67.67,0,0,1,0-.12A1.15,1.15,0,0,1,13,5.36a2.22,2.22,0,0,1-.43.68c-.09.11-.19.21-.29.32s-.12.12-.19.17a1.77,1.77,0,0,1-1,.49A.5.5,0,0,1,11,7a.49.49,0,0,1-.22-.17l0-.07a.89.89,0,0,1-.12-.26l0-.09a3.26,3.26,0,0,1-.12-.9,2.86,2.86,0,0,1,.12-1A1.14,1.14,0,0,1,11.7,3.8Zm-4,3.54a.37.37,0,0,1,.49.19l.12.26a.38.38,0,0,1-.18.49.45.45,0,0,1-.16,0,.36.36,0,0,1-.33-.22l-.12-.26A.37.37,0,0,1,7.7,7.34ZM5.5,9.58l.4-.13a.38.38,0,0,1,.47.24.39.39,0,0,1-.24.47l-.4.13H5.61a.38.38,0,0,1-.35-.25A.37.37,0,0,1,5.5,9.58Z" fill="#d96227"/><path d="M15.14,11.9a2.66,2.66,0,0,0-1.45.93,2.17,2.17,0,0,1-1.18.76,2.11,2.11,0,0,1-1.39-.07,2.77,2.77,0,0,0-1.73-.06A2.63,2.63,0,0,0,8,14.39a2.22,2.22,0,0,1-1.18.76,2.14,2.14,0,0,1-1.4-.07A2.79,2.79,0,0,0,3.65,15l0,0V18.8L17.8,14.5V12.11a2.35,2.35,0,0,1-.94-.15A2.73,2.73,0,0,0,15.14,11.9Z" fill="#d96227"/></svg>