<svg xmlns="http://www.w3.org/2000/svg" width="400" height="400" viewBox="0 0 400 400"><path d="M345,174.52c10-4.55,17.18-16.65,17.18-30.9,0-18.15-11.61-32.86-25.93-32.86s-25.92,14.71-25.92,32.86c0,14.25,7.17,26.35,17.18,30.9l2,1.63v14.46a7.93,7.93,0,0,0-1.28,4l-3.73,79.68a11.73,11.73,0,0,0,11.72,12.17h0a11.73,11.73,0,0,0,11.73-12.17l-3.73-79.68a7.93,7.93,0,0,0-1.28-4V176.15Zm-16.77,99.24,2.5-68.84,2.82,76.66C330.07,281.26,328.19,273.76,328.19,273.76Z" fill="#63513d"/><path d="M303.31,171.12a2.25,2.25,0,0,0,.84-1.92l-4.39-58.44h-2.05V151h-4.07V110.76h-3.88V151h-4.07V110.76h-3.88V151h-4.07V110.76h-2.05l-4.39,58.45a2.25,2.25,0,0,0,.83,1.9l8.88,7.15v14.38a8,8,0,0,0-1.32,4.08L276,274.29a11.73,11.73,0,1,0,23.45,0l-3.73-77.57a7.9,7.9,0,0,0-1.24-3.94V178.26ZM279.74,273.76l2.51-68.84,2.81,76.66C281.62,281.26,279.74,273.76,279.74,273.76Z" fill="#63513d"/><path d="M262.32,234.3,261,115.19a4.48,4.48,0,0,0-7.53-3.23c-44,41.75-17.69,94-8.41,109.24l-3.32,53.09a11.74,11.74,0,1,0,23.46,0Zm-16.94,39.46,2.5-51.82,1.41,29.82,1.41,29.82C247.26,281.26,245.38,273.76,245.38,273.76Z" fill="#63513d"/><path d="M127.1,110.76A89.24,89.24,0,1,0,216.34,200,89.25,89.25,0,0,0,127.1,110.76Zm61.1,114.55a66.28,66.28,0,0,1-14.52,21.27A63.61,63.61,0,0,1,127.1,265a67.56,67.56,0,0,1-45.54-19.42,69.21,69.21,0,0,1-8.19-9.64,64.68,64.68,0,0,1-6.3-11A63.53,63.53,0,0,1,61.46,200a61.3,61.3,0,0,1,4.9-25.16c.41-1,.89-2,1.33-2.93s1-1.91,1.49-2.87,1.1-1.84,1.65-2.77,1.19-1.78,1.78-2.67A62.67,62.67,0,0,1,81,153.93a66.45,66.45,0,0,1,21.48-13.3,68.27,68.27,0,0,1,12.11-3.38,69.84,69.84,0,0,1,25,0,68.24,68.24,0,0,1,12.11,3.37,66.29,66.29,0,0,1,21.5,13.31A61.92,61.92,0,0,1,188,174.76a64.2,64.2,0,0,1,.17,50.55Z" fill="#63513d"/><path d="M171,156.12A61.68,61.68,0,0,0,151.2,141.8a58.22,58.22,0,0,0-11.75-3.88,58.22,58.22,0,0,0-24.7,0A58.8,58.8,0,0,0,103,141.76a61.49,61.49,0,0,0-19.79,14.33A66.39,66.39,0,0,0,65.43,200a63.45,63.45,0,0,0,4.09,23.84,62.37,62.37,0,0,0,5.49,11,59.41,59.41,0,0,0,28.05,23.25,60.64,60.64,0,0,0,24,4.3,63.57,63.57,0,0,0,43.4-19A62.36,62.36,0,0,0,188.21,200,64.6,64.6,0,0,0,171,156.12ZM97.27,231.66a32.23,32.23,0,0,1-12.71-24.88,29.43,29.43,0,0,1,.38-5.47,1.07,1.07,0,0,1,2.13.15,41.09,41.09,0,0,0,.41,5.09,39.41,39.41,0,0,0,11.68,22.89,46.53,46.53,0,0,0,11,7.78A28.4,28.4,0,0,1,97.27,231.66Z" fill="#63513d"/></svg>