<svg xmlns="http://www.w3.org/2000/svg" width="400" height="400" viewBox="0 0 400 400"><path d="M165.77,194.59c15.8,2.43-5-5.39-12.28-6.44a179.07,179.07,0,0,1-19.15-3.82,109,109,0,0,0-18.59-3.48c-6.7-.52.74,1.39,4.09,2.78s12.64,5.91,19.71,7S165.77,194.59,165.77,194.59Z" fill="#63513d"/><path d="M123.93,171.81s8.18,5,11.9,6.95,10.6,3.48,14.69,4.87,7.06,1.57-1.3-3.48-13-7.82-16.55-9.91S115,165.72,123.93,171.81Z" fill="#63513d"/><path d="M168.93,198.93c-5.4.7-12.65,1.39-20.64,2.26s-15.06.7-21.39,1.74-7.25,1.91-.18,2.61a119.91,119.91,0,0,0,22.5.17c8.18-.69,22.68-3.65,22.68-3.65C182.69,200.67,174.32,198.24,168.93,198.93Z" fill="#63513d"/><path d="M231.87,176c1.67-2,5.3-7.84,8.47-11.35a69.48,69.48,0,0,1,6.37-5.74c1.49-1.29,3-2.51,3.43-5.3a21.33,21.33,0,0,0-9.88,6.74C235.35,165.9,230.2,178,231.87,176Z" fill="#63513d"/><path d="M260.55,193.33a91,91,0,0,0-12.13,1.3c-2.93.52-11,2.87-11,2.87-5,1.43.84,1,3.63.78s7.67-.26,10.46-.91a69.34,69.34,0,0,0,9.62-2.74C263.06,193.72,263.76,193.33,260.55,193.33Z" fill="#63513d"/><path d="M225.13,208.32s10.6,2.35,16,3.65,17,4.18,20.64,4.83,16.32,1.69,20.36,2,.42-2.35-2.65-3.26-12.69-2.74-18.27-3.79-15.34-3-21.34-3.52S218.3,206.24,225.13,208.32Z" fill="#63513d"/><path d="M243.12,186.41c-5.86,4.57,10.18-2.87,12.83-4.3s5.44-4.56,10.74-7.3,5.86-1.7,8.09-5.87-2.51-2-6,.13-10.88,6.91-13.53,9.26S246.9,183.47,243.12,186.41Z" fill="#63513d"/><path d="M120.56,277.74c4,7.54,11,11.72,18.59,14a25.15,25.15,0,0,0,20-2.22c3.33-1.87,7-3.08,10.32-5a102.57,102.57,0,0,0,9.87-6.64c2.28-1.68,4.33-3.68,6.47-5.52,5.83,2.93,11.95,3.82,18.09,4.5a19.72,19.72,0,0,0,7.11-.11c2.56-.69,4-.13,5.81,1.86,6.88,7.74,22.38,16.38,23.11,16.81,3.93,2.3,11.91,2.25,15.84.28,4.56-2.26,9.25-4.24,13.9-6.3,7.34-3.24,10.05-9.14,10.45-16.45.35-6.22-3-13.55-4.67-14.31,2.33-1.33,13.31-9.08,16.06-16.63a7.41,7.41,0,0,1,1-1.42A95.63,95.63,0,0,0,303,218.67a21.87,21.87,0,0,1,2-4.8c4-6.24,3.71-12.94,1.17-19.34-2.81-7.1-6.41-13.87-9.89-20.67-2.14-4.18-5.46-7.26-9.23-10-6.57-4.8-12.11-11.23-20.29-13.44-.9-.24-1.63-1.12-2.47-1.65a7.36,7.36,0,0,0-2.59-1.41c-6.91-.73-13.38-4.71-21.35-2.49a13.92,13.92,0,0,0-.53-11.6c-1.59-3.42-2.71-7.08-4.39-10.45-2.75-5.52-4.88-11.44-10.45-15-6-3.84-11.86-6.7-19-3.7a12.62,12.62,0,0,1-5,.69c-8.83-.14-15.36,4.18-20.32,11.34-2.78,4-5.23,8.3-7.68,12.55-2.15,3.75-4.22,7.56-6.08,11.47a31.38,31.38,0,0,0-1.62,5.42c-4.73.36-7.41.45-10,.41-3-.4-7.14-.84-9.17-1.19a10.31,10.31,0,0,0-7.65,1.73c-9.82,6.56-19.73,13-29.39,19.81-11.36,8-20.07,25.19-16.22,41,1.38,5.65,3.37,11.15,5.25,16.66,4.5,13.24,12.23,23.87,23.92,31.59-.73,2-1.54,3.94-2.2,6C118.06,267,117.91,272.73,120.56,277.74Zm12.87,8c-4.28-1.53-6.64-5.16-9.62-8.72l17.84-9.68c-4,4.37-8.85,7.82-12.71,12.28l.71,1.1a13.34,13.34,0,0,0,3.54-1.5c4.63-3.77,9.07-7.8,13.73-11.53,2.19-1.75,4-4.66,7.9-4.05-2.54,2.86-4.7,5.49-7.09,7.89S137.13,282.92,133.43,285.78Zm10.08,3.53c5.16-6.2,9-12.79,14.9-17.54-2.42,5.35-6.51,9.93-6.66,16.76Zm24-7.84c-3,1.46-7,3.18-9.21,4.23-.22-.24,7-12.26,9.89-17.69l.76.36c-1,2.3-1.94,4.62-3,6.88S164.57,279.38,167.54,281.47Zm49.39-11.84c-4.32,2.55-9,4.3-14,4a87.17,87.17,0,0,1-10.46-1.18,14.53,14.53,0,0,1-9.37-6.21,9.29,9.29,0,0,1-1.74-7.8c.59-2.68,1-5.39,1.59-8.34l7.71,3c.31,1.56.61,3.25,1,4.92,1.9,8.5,13.87,10,15,5.78s-3.42-2.12-2.81-6.27,10.41-11.67,12.88-11.25,1.51,3.42,2.09,5.26c.79,2.49,1.35,5.07,2,7.6C222,263.5,220.69,267.41,216.93,269.63Zm-26.17-29.19c-3.12,2-1.69,4.85-.66,8.51a10,10,0,0,1-4.83-6.5c-.58-2.3-1.48-4.72.23-7.11.55-.77.43-2.07.6-3.13s3.58-5,6.24-6.82,3.76-.45,3.42,6.27C189.16,234.46,188.61,236.56,190.76,240.44Zm9.2,1.4c.21-2.35.43-3.67,4.36-4s7.76,2.71,7.42,5.42-2.7,5.34-6.16,6.52S199.76,244.19,200,241.84Zm12.47-10.74c2.74,1.36,3.26,3.44,1.79,8.31A8.53,8.53,0,0,1,212.43,231.1ZM241.6,287c2.43-.49,3.48.52,3.39,3.61C242.73,290.3,240.74,290.27,241.6,287Zm8,5.71c-.19-8.45-5.7-14.37-7.71-21.67,2.91,1.76,6.46,6.2,9,10.77a34.81,34.81,0,0,0,4.09,6.06c1.13,1.31,2.78,2.13,4.38.11-2.12-5.65-6.35-9.78-10-14.67,3.37,1.09,6.87,2.51,9.3,6,1.8,2.58,3.6,5.81,6.39,9.63C264.11,288.7,255.36,291.59,249.59,292.66Zm.57-25.89c3.4.41,3.38,3.29,4.5,5.1A8.66,8.66,0,0,1,250.16,266.77Zm19.13,16.46c-2-2.53-10.82-14.06-12.5-16C274.08,268.31,273.57,276.14,269.29,283.23ZM245.36,150.05a9,9,0,0,1,4.16-.15c5.45,1.16,11,1.74,16.16,4.38,3,1.53,20.3,13.37,23.37,17.7a106.23,106.23,0,0,1,8.37,13.39,69.49,69.49,0,0,1,2.86,7.94c-2.58.85-9,2.87-13.09,3.28-5.16.52-12.83,1.56-22.45,1.95s-13.39.26-17.44,2.61S256,203,262.79,203s16.31-.53,22.45-1c4.91-.42,13.75-1.25,17.09-1.57a22.78,22.78,0,0,1-1,7.79c-.87,2.78-3.84,9.85-5,12.52-.66,1.49-1.24,2.88-1.83,4.26-3.38.12-12.72.4-15.79.09-3.76-.4-13.38-1.57-18.82-3s-18.83-5.87-22.18-6.13-7.67-.92-4.18.52S250.37,224,256,225.54s14.51,4.3,19.25,4.69c3.82.32,13.07.55,16.52.63-.3.57-.61,1.17-1,1.77a33.94,33.94,0,0,1-13.06,3.69c-8,.34-17.3,1-23.43-.7S234,224,229,220.15c-3.23-2.46-8.86-8.67-12.47-12.78,3.07-1.79,5.46-7.28,6.57-10.7.59-1.81,1.95-2.93,3.62-4,4-2.63,7.91-5.5,10.32-10a85.93,85.93,0,0,1,6.8-11.58c2.75-3.66,6.19-6.76,9.37-10.06,1.29-1.34,2.8-2.46,4-3.86a23.45,23.45,0,0,0,2.11-3.49l-.58-.64a12.82,12.82,0,0,0-2.46,1c-7.79,4.91-13.2,12.18-18.1,19.94-2.31,3.66-6.32,7.93-11.53,13.49-1.16,1.24-1-10.09,2-15.54,1.12-2.06,1.15-4.74,1.69-7.14C232.19,156.32,237.86,152.12,245.36,150.05ZM229.5,122.36c2.59,2.53,6.41,11.78,6.68,15.08l-10.12,9.12-.83-.18C226.29,138.46,227.19,130.51,229.5,122.36Zm-13.28-9.43c0-1,.17-1.89.29-3.11,5.08.38,8.41,3.45,11.31,7.33-8,8.9-8.18,20-8.9,30.91-.29,4.34-.86,8.65-1.3,13h-1.09c-.13-3-.47-6-.34-9,.25-5.84.7-11.67,1.22-17.49a26,26,0,0,0-.76-9C215.63,121.58,216.26,117.16,216.22,112.93Zm-4.73-4.24c1,7.66.41,15,0,22.29-2.22-6.75-2.36-13.87-3.74-21.35Zm-8.29,2.25a25.12,25.12,0,0,0-.35,4.44c.84,8.87,1.86,17.72,2.66,26.6.35,3.77.27,7.59.47,11.38.25,5,.62,9.9.87,14.86q.26,5,.31,10c.06,3.94,0,7.88,0,12.78-.69-3.69-1.19-6.53-1.74-9.36-.78-4-1.68-8-2.37-12-.65-3.71-1.29-7.43-1.6-11.18-.5-6.1-.78-12.23-1.06-18.35-.22-4.95-.13-9.92-.52-14.85-.37-4.78-1-10.53-4.74-14C197,110.08,198.49,110,203.2,110.94Zm-23,15.51c2.86-3.94,5.64-8,8.66-11.75.89-1.12,2.47-1.64,4.35-2.82,0,1.82.07,2.8,0,3.75a126.17,126.17,0,0,0,.15,28.35c.58,4.43,2.2,8.72,3.25,13.09,1.11,4.66,2.15,9.34,3.15,14a4.33,4.33,0,0,1-.58,3c-.29-.86-.54-1.75-.88-2.59-2.59-6.29-5.12-12.61-7.82-18.84-3-6.91-5.83-13.92-10.06-20.17C179.09,130.59,178.71,128.51,180.2,126.45Zm1.93,22.25c-4.39-2.69-6.45-6.5-6.48-12A21.62,21.62,0,0,1,182.13,148.7Zm-72.88,86.45c-1.17-2.45-2.42-5.22-3.92-8.4-.54-1.16-1.39-3.53-2.24-6.06a85.67,85.67,0,0,0,12.47,1.54c6.32.18,16.74,0,24.17-1.74a149.64,149.64,0,0,0,21.76-7.3c4.83-2.09,16.73-6.43,16.73-6.43,6.33-2.26-5.2-1.22-8-.35S150,212.5,146.06,213s-26.41,1.91-32,1.56A92.47,92.47,0,0,1,100.2,212a38.53,38.53,0,0,1-1.75-18.06c1.41-10.08,5.11-15.77,12.27-22.17,8.44-7.55,17.91-13.43,27.37-19.33,3.44,3.3,12.7,12.16,16.89,15.94,5.21,4.69,12.09,9.74,14.69,12.52s6.88,9,8.37,10.08,2.6.87-2.23-7.12S168,173,164.65,169s-8.74-7.83-12.27-10.09c-2.84-1.82-5.56-7.45-7.78-9.95,5-.39,18.14,1.83,20.68,2.68a24.9,24.9,0,0,1,8.93,5.38c5.62,5,7.68,11.8,9.53,18.63.8,2.94-.05,6.34,0,9.53A23.94,23.94,0,0,0,187,197.3c1,1.7,2.26,3.78,3.88,4.46,4.74,2,6.73,6.33,9.18,10.32,1.59,2.6,12,2.38,13.33,5.26s3.36,5.66,5.18,8.66c-2.69.8-4.13-3.16-6.81-1.2-1.95,1.43-3.85,2.62-2.25,5.81l-4.35-1.91c.07-1.18.15-2.45.21-3.48l6.48-4.19c-.7-4.55-10.62,1.71-11.73,2.78-.36-2-.62-3.52-.89-5.08-1.06-1.52-3.59.09-4.5-2.37-.46-1.22-1.35-2.23-.62-3.61,1.58-.39,3.18-1,1.41-1.56-3-.95-4.84-1.3-12.09-.95S160,223.1,151.26,228.32s-14.13,6.61-24,8A50.41,50.41,0,0,1,109.25,235.15Z" fill="#63513d"/></svg>