<svg xmlns="http://www.w3.org/2000/svg" width="22" height="22" viewBox="0 0 22 22"><title>icon</title><path d="M20.93,2,12.42,3.14c0,.23.15,1.5.39,1.5H14.1V19.21h7.25V2.4A.42.42,0,0,0,20.93,2ZM19.48,13.43H15.22V4.76h4.26Z" fill="#d96227"/><path d="M13.21,13.53,13,13a.43.43,0,0,0-.4-.25h-.93a.43.43,0,0,0-.37.23l-1-2.42a1.17,1.17,0,0,0-1.13-1H4.63a1.17,1.17,0,0,0-1.13,1l-1,2.47a.43.43,0,0,0-.41-.28H1.18a.45.45,0,0,0-.4.25l-.23.5a.44.44,0,0,0,.4.63l.77,0v4.53a.52.52,0,0,0,.52.52H3.62a.52.52,0,0,0,.52-.52V17.3H9.63v1.37a.52.52,0,0,0,.52.52h1.38a.52.52,0,0,0,.52-.52V14.15h.75A.44.44,0,0,0,13.21,13.53ZM3.3,16.34A.68.68,0,1,1,4,15.66.68.68,0,0,1,3.3,16.34Zm5-.55H5.53v-.46H8.27ZM3.58,12.87s.52-1.24.68-1.69l.15-.42a.23.23,0,0,1,.22-.21H9.17c.11,0,.19.09.23.21a.75.75,0,0,0,0,.17l.77,1.94Zm6.92,3.47a.68.68,0,1,1,0-1.36.68.68,0,0,1,0,1.36Z" fill="#d96227"/></svg>