<svg xmlns="http://www.w3.org/2000/svg" viewBox="0 0 112.57 148.47"><defs><style>.cls-1{fill:#ff8a3d;}</style></defs><title>icon-locations</title><g id="Layer_2" data-name="Layer 2"><g id="Isolation_Mode" data-name="Isolation Mode"><path class="cls-1" d="M56.28,15.05A41.24,41.24,0,1,0,97.52,56.28,41.28,41.28,0,0,0,56.28,15.05ZM78,70.17,57.81,81.84a5,5,0,0,1-7.5-4.56L51.84,44l-12.3,7.1a5,5,0,1,1-5-8.67L54.76,30.73a5,5,0,0,1,7.5,4.56L60.73,68.6,73,61.5a5,5,0,0,1,5,8.67Z"/><path class="cls-1" d="M56.28,0A56.35,56.35,0,0,0,0,56.28c0,24.59,14.37,48,26.42,63.31s25.93,27.64,28.07,28.52a4.6,4.6,0,0,0,1.78.36,4.69,4.69,0,0,0,3.08-1.15l.07,0c5.44-4.59,53.15-46.12,53.15-91A56.35,56.35,0,0,0,56.28,0Zm0,101.91a45.63,45.63,0,1,1,45.63-45.63A45.68,45.68,0,0,1,56.28,101.91Z"/></g></g></svg>