<svg xmlns="http://www.w3.org/2000/svg" width="262.54" height="283.03" viewBox="0 0 262.54 283.03"><polygon points="56.4 113.36 53.26 113.58 55.63 115.65 56.4 113.36" fill="#e7e4dc"/><path d="M164.59,65.24a1.72,1.72,0,0,0-1.13-2.31l-1.08-.46-1.28,3,1.1.46A1.67,1.67,0,0,0,164.59,65.24Z" fill="#e7e4dc"/><path d="M188.38,191.52a1.46,1.46,0,1,0,2.17-.2A1.45,1.45,0,0,0,188.38,191.52Z" fill="#e7e4dc"/><path d="M114.88,64.08a3,3,0,1,0-1.21-5.85l-1.56.32,1.22,5.85Z" fill="#e7e4dc"/><polygon points="71.07 88.1 68.06 87.17 69.52 89.96 71.07 88.1" fill="#e7e4dc"/><path d="M206,173.55a1.61,1.61,0,0,0-1.37,2.9,1.61,1.61,0,0,0,1.37-2.9Z" fill="#e7e4dc"/><path d="M200.41,184a1.61,1.61,0,0,0-1.78,2.67,1.61,1.61,0,0,0,1.78-2.67Z" fill="#e7e4dc"/><path d="M224.21,86.08a107.59,107.59,0,1,0-121,157.72,108.37,108.37,0,0,0,28,3.71,107.63,107.63,0,0,0,93-161.43ZM157,68.77l3.79-9a.26.26,0,0,1,.38-.16L164.48,61c2.4,1,3.35,3.12,2.48,5.21a3.44,3.44,0,0,1-3,2.17l.74,3.52c.05.24-.09.34-.31.25l-2-.86a.4.4,0,0,1-.25-.32l-.61-3h0l-1.16-.49-1,2.27a.26.26,0,0,1-.38.16l-1.73-.73A.27.27,0,0,1,157,68.77Zm-11.11-3.1,2.35-9.45a.27.27,0,0,1,.36-.21l6.46,1.61a.26.26,0,0,1,.22.35l-.38,1.54a.26.26,0,0,1-.36.21l-4.36-1.08-.45,1.81,3.82.95a.27.27,0,0,1,.21.36l-.38,1.53a.27.27,0,0,1-.36.22l-3.81-.95-.48,1.89,4.44,1.1a.27.27,0,0,1,.21.36L153,67.44a.27.27,0,0,1-.36.21L146.15,66A.26.26,0,0,1,145.93,65.67Zm1.59,47.83,12,6.61.23-13.64a4.27,4.27,0,1,1,8.53.14l-.34,19.56,5.14,8.9a4.26,4.26,0,0,1-7.39,4.26l-5.14-8.9L143.4,121a4.27,4.27,0,1,1,4.12-7.47ZM132.63,54.31a.26.26,0,0,1,.31-.27l.85.06a.48.48,0,0,1,.35.19l5.17,6.42.44-5.77a.26.26,0,0,1,.31-.27l1.83.14a.27.27,0,0,1,.27.32L141.42,65a.26.26,0,0,1-.31.27l-.85-.06a.49.49,0,0,1-.35-.19l-5.19-6.45-.43,5.76a.27.27,0,0,1-.31.28l-1.82-.14a.27.27,0,0,1-.27-.32Zm-8.18.17,1.87-.12a.26.26,0,0,1,.31.27l.64,9.71a.26.26,0,0,1-.27.31l-1.88.13a.27.27,0,0,1-.31-.28l-.64-9.71A.26.26,0,0,1,124.45,54.48Zm-14.9,2.39,3.82-.8c3.19-.66,5.74.91,6.36,4s-1.08,5.5-4.27,6.16l-3.82.79a.26.26,0,0,1-.35-.23l-2-9.53A.26.26,0,0,1,109.55,56.87ZM94.41,62.34a5.91,5.91,0,0,1,3.44-.6.27.27,0,0,1,.24.34L98,63.61a.3.3,0,0,1-.36.28,4.23,4.23,0,0,0-2.29.38c-.69.33-1.14.79-.87,1.34s.86.42,2.32.23,3.19-.3,4.1,1.61c.83,1.73.09,3.5-2,4.51a6.22,6.22,0,0,1-4,.65.33.33,0,0,1-.28-.38l.18-1.63a.27.27,0,0,1,.34-.25A4.58,4.58,0,0,0,98,70c.61-.29,1-.76.72-1.37s-.88-.61-2.34-.4c-1.69.24-3.29.34-4.11-1.39S92.28,63.35,94.41,62.34Zm-9,4.38a1.33,1.33,0,0,1,1.91.47,3.28,3.28,0,0,1,.12,3.28.31.31,0,0,1-.4.15l-.36-.11a.27.27,0,0,1-.17-.39,1.65,1.65,0,0,0,0-1.22.65.65,0,0,1-.15.12,1,1,0,0,1-1.47-.4A1.3,1.3,0,0,1,85.38,66.72Zm-6.71,5.41L80.17,71a.27.27,0,0,1,.41.06l5.86,7.77a.27.27,0,0,1,0,.42l-1.51,1.13a.27.27,0,0,1-.41-.06l-5.86-7.77A.27.27,0,0,1,78.67,72.13Zm-6.18,5.26,1.38-1.27a.27.27,0,0,1,.42,0l6.57,7.18a.26.26,0,0,1,0,.41L79.45,85A.26.26,0,0,1,79,85L72.47,77.8A.25.25,0,0,1,72.49,77.39ZM65.05,85.3l.67-.8a.36.36,0,0,1,.4-.13l10.24,3c.22.06.25.23.11.4L75.2,89.26a.35.35,0,0,1-.4.1l-1.64-.53-2.55,3,.8,1.54a.35.35,0,0,1,0,.41L70.1,95.34c-.14.17-.31.17-.41,0L65,85.71A.35.35,0,0,1,65.05,85.3Zm-12,18.59,1-1.74a.31.31,0,0,1,.38-.16l3.53.92,3,.92-2.16-2.15-2.63-2.82a.31.31,0,0,1,0-.4l.54-1a.31.31,0,0,1,.36-.17l3.77.76,3,.66-2.29-2.21L58.87,94a.31.31,0,0,1-.06-.41l.9-1.6a.23.23,0,0,1,.41,0l7,7.46a.31.31,0,0,1,.06.4L66.5,101a.32.32,0,0,1-.38.16l-6.47-1.34,4.56,4.76a.31.31,0,0,1,.06.4l-.68,1.21a.31.31,0,0,1-.37.16l-10-2.08A.25.25,0,0,1,53.05,103.89Zm-3.27,9,.33-1a.35.35,0,0,1,.32-.26l10.63-1c.22,0,.31.12.24.33l-.63,1.88a.34.34,0,0,1-.33.24l-1.73.1-1.27,3.77,1.3,1.14a.34.34,0,0,1,.12.4l-.63,1.87c-.08.21-.23.27-.4.12l-7.86-7.24A.35.35,0,0,1,49.78,112.93ZM45.7,131.65l.28-1.86a.26.26,0,0,1,.33-.24l3.76.56.7-4.61L47,124.93a.26.26,0,0,1-.25-.33l.28-1.86a.26.26,0,0,1,.33-.25L57,123.94a.26.26,0,0,1,.24.33L57,126.13a.27.27,0,0,1-.34.25l-3.72-.56-.69,4.62,3.72.56a.25.25,0,0,1,.24.33l-.28,1.86a.25.25,0,0,1-.33.24L46,132A.27.27,0,0,1,45.7,131.65ZM87.78,189l-16.52,9.54a4.09,4.09,0,0,1-6.13-3.73l1.25-27.22-10,5.81a4.09,4.09,0,1,1-4.09-7.09l16.52-9.53a4.08,4.08,0,0,1,6.13,3.72l-1.25,27.22,10-5.8A4.09,4.09,0,0,1,87.78,189Zm10.28-5.94a4.08,4.08,0,0,1-5.58-1.5L77.86,156.26a4.09,4.09,0,0,1,7.08-4.08L99.56,177.5A4.08,4.08,0,0,1,98.06,183.08Zm16.3-22.38a4.09,4.09,0,1,1-4.09-7.08,4.91,4.91,0,1,0-4.91-8.51l-5.45,3.14L112.49,170a4.09,4.09,0,1,1-7.08,4.09L90.79,148.8a4.09,4.09,0,0,1,1.5-5.59l9-5.18a13.09,13.09,0,0,1,13.09,22.67Zm14.52,55.71-.89,1.25a.3.3,0,0,1-.45.07,4.22,4.22,0,0,0-2.17-.82c-.76,0-1.38.12-1.43.73s.54.8,1.9,1.36,2.91,1.32,2.75,3.43c-.15,1.92-1.66,3.08-4,2.9a6.27,6.27,0,0,1-3.82-1.44.35.35,0,0,1-.06-.48l1-1.32a.26.26,0,0,1,.41,0,4.64,4.64,0,0,0,2.72,1.17c.68.05,1.25-.16,1.3-.83s-.45-1-1.82-1.51c-1.59-.64-3-1.35-2.87-3.25s1.77-3,4.13-2.84a6,6,0,0,1,3.28,1.2A.28.28,0,0,1,128.88,216.41Zm6.79,8.93-1.88.07c-.19,0-.29-.08-.3-.28l-.41-9.72a.26.26,0,0,1,.28-.3l1.88-.08a.26.26,0,0,1,.3.28L136,225A.27.27,0,0,1,135.67,225.34Zm2-65.11a4.08,4.08,0,0,1-5.58-1.5l-14.62-25.32a4.08,4.08,0,0,1,1.5-5.58l9-5.19A13.09,13.09,0,0,1,141,145.31a4.09,4.09,0,1,1-4.09-7.08,4.91,4.91,0,0,0-4.91-8.51l-5.45,3.15,12.58,21.78A4.08,4.08,0,0,1,137.64,160.23Zm13.27,63.15-.83.16a.54.54,0,0,1-.39-.1L143,218.51l1,5.69a.26.26,0,0,1-.24.34l-1.79.33a.27.27,0,0,1-.34-.24L139.94,215a.26.26,0,0,1,.24-.34l.84-.15a.5.5,0,0,1,.39.09l6.62,4.9-1-5.68a.28.28,0,0,1,.24-.35l1.8-.33a.26.26,0,0,1,.34.24l1.78,9.7A.26.26,0,0,1,150.91,223.38ZM164.4,218a5.65,5.65,0,0,1-2.72,1.92A5.3,5.3,0,1,1,158,210a6,6,0,0,1,3.31-.3.3.3,0,0,1,.23.36l-.25,1.62a.25.25,0,0,1-.34.24,4,4,0,0,0-2.06.22,3,3,0,1,0,2.06,5.58,4.25,4.25,0,0,0,1.71-1.16.27.27,0,0,1,.41,0l1.24,1.07A.28.28,0,0,1,164.4,218Zm11.14-5-5.89,3.26a.26.26,0,0,1-.4-.12l-4.71-8.51a.26.26,0,0,1,.12-.4l5.83-3.23a.27.27,0,0,1,.4.12l.76,1.38a.26.26,0,0,1-.11.4l-3.93,2.18.9,1.63,3.44-1.91a.26.26,0,0,1,.4.12l.77,1.39a.27.27,0,0,1-.12.4l-3.44,1.9.95,1.71,4-2.21a.27.27,0,0,1,.4.11l.76,1.38A.27.27,0,0,1,175.54,213.05Zm.82-105a4.1,4.1,0,0,1-6.13-3.51l0-4a4.09,4.09,0,1,1,8.17-.07l0,4A4.1,4.1,0,0,1,176.36,108.09Zm11.83,95.52-1.34,1.16a.27.27,0,0,1-.42,0l-4.8-5.59-.91,1.64a.27.27,0,0,1-.41.12l-1.32-.71a.26.26,0,0,1-.11-.4l1.65-3.1a.86.86,0,0,1,.23-.3l.71-.61a.26.26,0,0,1,.41,0l6.34,7.38A.26.26,0,0,1,188.19,203.61Zm5.72-5.59a.29.29,0,0,1-.37.21l-1.31-.25a.26.26,0,0,1-.22-.36,8.19,8.19,0,0,0,.31-4.18,2.59,2.59,0,0,1-.71,1.67,3.13,3.13,0,0,1-4.63.26,3.51,3.51,0,0,1-.12-5.19,3.69,3.69,0,0,1,5.56-.32C194.66,191.87,195,194.68,193.91,198Zm8.54-10.72a3.67,3.67,0,0,1-5.38,1.15c-2.47-1.65-3.26-4.3-2.72-7.9a.27.27,0,0,1,.32-.26l1.4.07a.24.24,0,0,1,.25.32,7.72,7.72,0,0,0,.29,4.14,2.6,2.6,0,0,1,.46-1.75,3.13,3.13,0,0,1,4.55-.88A3.5,3.5,0,0,1,202.45,187.3Zm6.08-10.79a3.66,3.66,0,0,1-5.15,1.91c-2.68-1.27-3.85-3.79-3.83-7.42a.28.28,0,0,1,.27-.31l1.4-.13c.19,0,.3.08.3.29a7.79,7.79,0,0,0,.87,4.05,2.6,2.6,0,0,1,.21-1.8,3.12,3.12,0,0,1,4.37-1.52A3.49,3.49,0,0,1,208.53,176.51Zm-1.82-55.95-7.82,4.51a4.26,4.26,0,0,1-4.26-7.39l7.81-4.51a1.82,1.82,0,0,0-.7-3.38l-12.21-1.36a10.35,10.35,0,0,1-4-19.24L192.71,85A4.26,4.26,0,0,1,197,92.42l-7.2,4.16a1.81,1.81,0,0,0,.71,3.37l12.2,1.37a10.35,10.35,0,0,1,4,19.24Z" fill="#e7e4dc"/></svg>