<svg xmlns="http://www.w3.org/2000/svg" width="400" height="400" viewBox="0 0 400 400"><path d="M234.81,204c-.41-2.09-1.4-3-2.95-2.68s-2.14,1.5-1.73,3.59l.66,3.43q.61,3.14,3,2.69c1.56-.31,2.14-1.5,1.73-3.6Z" fill="#63513d"/><path d="M213.4,219.54q-2.06-9.21-10.41-7.77-8.34,1.8-6.71,11.1L201.37,249q2,9.33,10.37,7.79,8.31-1.71,6.74-11.11Z" fill="#63513d"/><path d="M254.91,230.35q-.61-3.15-2.95-2.69t-1.73,3.59l.67,3.43c.4,2.09,1.39,3,2.95,2.69s2.13-1.5,1.72-3.6Z" fill="#63513d"/><path d="M296.43,222.09c0-.07,0-.14,0-.21,0-.25,0-.49,0-.73v0c0-.31-.06-.61-.11-.92h0l0-.16c-.84-4.87-5.16-9-6.7-13.69a25.84,25.84,0,0,1-.94-6.05c-.22-3.18-.35-6.4-1.74-9.12a19.35,19.35,0,0,0-5.07-5.66l-1.52-1.27a25.06,25.06,0,0,1-4.1-4.14c-2.92-4-3.65-10-7.26-13.59-2.07-2.08-4.94-3.2-7.76-4.34-1.16-.47-2.31-.93-3.39-1.47a17.67,17.67,0,0,1-2.43-1.44c-2.55-1.86-4.5-4.67-6.67-7.07-.24-.26-.47-.51-.71-.75a14.12,14.12,0,0,0-3.7-2.88,15.13,15.13,0,0,0-4.92-1.38c-3.43-.44-7.1-.28-10.25-1.3-4-1.3-7.56-4.6-11.51-6.09a11.93,11.93,0,0,0-2.34-.64c-5-.78-10.24,2.14-15.25,2.14-4.07,0-8.32-1.93-12.43-2.23a12.44,12.44,0,0,0-1.83,0c-.33,0-.66.06-1,.11h0c-.29.05-.57.11-.85.18l-.29.08-.56.16-.33.11-.52.2-.33.13-.52.23-.3.14-.55.28-.26.13-.65.36-.15.08c-1.27.73-2.52,1.54-3.78,2.31l0,0L175,144l-.18.1-.58.34-.23.12-.56.3-.23.11-.57.28h0a15.6,15.6,0,0,1-1.71.68c-4.75,1.54-10.67.38-15.17,2.68s-7,7.71-11.08,10.7-10,3.64-13.58,7.25-4.34,9.59-7.26,13.59-8.44,6.65-10.69,11.07c-1.61,3.15-1.53,7-1.86,10.64h0c-.07.77-.15,1.53-.28,2.27v.09c-.06.32-.12.63-.19.93,0,.07,0,.14,0,.21-.08.35-.17.7-.28,1-1.56,4.79-6,8.91-6.73,13.85a11.81,11.81,0,0,0-.14,1.88,19.29,19.29,0,0,0,.41,3.51c.66,3.29,1.87,6.63,1.87,9.86a26.49,26.49,0,0,1-1,6.36c-.25,1-.5,2-.71,3,0,.08,0,.15,0,.23a15.65,15.65,0,0,0-.33,5.68,7.88,7.88,0,0,0,.17.87c0,.1.06.19.08.28s.11.39.17.58.07.21.11.32.13.35.19.52l.14.33c.07.17.15.34.23.51s.09.21.14.32l.27.53.14.28.34.61.1.19c.71,1.24,1.5,2.45,2.25,3.68a1.74,1.74,0,0,1,.11.18l.33.55a2.54,2.54,0,0,1,.16.28c.1.16.19.33.29.5l.17.32.26.48.17.35c.08.15.15.31.22.46a14,14,0,0,1,.69,1.72c1.53,4.74.38,10.66,2.68,15.16s7.71,7,10.69,11.08,3.65,10,7.26,13.59,9.59,4.34,13.58,7.25,6.65,8.44,11.08,10.7c3.15,1.6,7,1.52,10.63,1.85h0c.77.07,1.52.16,2.26.28l.1,0c.31.05.62.11.92.18l.22.05c.35.08.7.18,1,.29a19.27,19.27,0,0,1,3.41,1.55c3.44,1.94,6.71,4.59,10.44,5.18a12.69,12.69,0,0,0,1.85.13h0c.35,0,.69,0,1-.05,4.08-.32,8.3-2.22,12.34-2.22,4.39,0,9,2.23,13.38,2.27a11.16,11.16,0,0,0,5.06-1.13c3.62-1.6,6.94-4.53,10.66-5.73s8.18-.76,12.1-1.63a12.71,12.71,0,0,0,2.9-1l.17-.07h0a20.35,20.35,0,0,0,5.87-5.32,31,31,0,0,1,5.21-5.38c3.93-2.87,9.78-3.63,13.41-7.09.05-.06.12-.11.17-.16h0c3.61-3.61,4.34-9.59,7.26-13.59,2.61-3.59,7.11-6,9.71-9.5a10.68,10.68,0,0,0,1-1.58,11.44,11.44,0,0,0,.82-2.13c1.19-4.14.56-9,1.86-13,1.56-4.8,5.95-8.91,6.73-13.86a11.69,11.69,0,0,0,.14-1.87c0-4.4-2.28-9-2.28-13.38s2.15-8.79,2.27-13.12C296.42,222.26,296.43,222.17,296.43,222.09ZM139.35,296a85.58,85.58,0,0,1-23.76-75.59l.09-.5c.14-.77.29-1.55.46-2.32.07-.35.15-.7.23-1.05.13-.58.26-1.16.41-1.74s.24-.93.36-1.4.24-.9.37-1.35.32-1.11.49-1.67c.11-.35.21-.7.32-1l.63-1.89c.09-.26.18-.52.28-.78A85.69,85.69,0,1,1,139.35,296Z" fill="#63513d"/><path d="M258.17,177.29l0,0c-.89-.88-1.79-1.74-2.7-2.57l-.76-.68c-.81-.72-1.62-1.42-2.45-2.1l-.41-.35c-1-.77-1.91-1.51-2.88-2.23l-.79-.58c-.8-.57-1.6-1.13-2.41-1.68l-.69-.46c-1-.65-2-1.27-3-1.87l-.83-.48c-.8-.46-1.6-.91-2.41-1.34l-.9-.49c-1-.52-2-1-3.07-1.51l-.86-.39c-.8-.36-1.6-.71-2.41-1l-1.11-.45c-1-.41-2.06-.8-3.1-1.17l-.86-.29c-.81-.27-1.62-.54-2.44-.78-.43-.14-.87-.27-1.3-.39-.8-.23-1.59-.44-2.39-.65l-1.52-.37c-.83-.19-1.67-.38-2.5-.55l-1.49-.28-2-.34c-.53-.08-1-.17-1.58-.24q-1.4-.19-2.79-.33c-.56-.06-1.11-.11-1.67-.15l-1.72-.13-1.71-.09c-.95,0-1.9-.07-2.84-.07-.61,0-1.22,0-1.83,0s-1,0-1.51,0-1.26,0-1.89.08l-1.52.11c-1.07.08-2.13.18-3.19.3l-1.33.16-2,.28-1.23.21c-1.16.2-2.32.42-3.48.67l-1.2.26-2,.49-1.18.32a82.28,82.28,0,0,0-55.53,51.17h0c-.05.15-.1.3-.16.45l-.39,1.15c-.17.51-.35,1-.52,1.55l-.3,1q-.27.85-.51,1.71l-.21.8c-.18.64-.35,1.29-.51,1.94,0,.12,0,.24-.08.36a82.44,82.44,0,0,0-2.23,21.26v0c0,.88.06,1.77.11,2.66a.2.2,0,0,0,0,.07c0,.88.11,1.76.19,2.64a.19.19,0,0,1,0,.08c.08.88.18,1.76.29,2.64v.06c.11.89.24,1.77.38,2.66v0a82.31,82.31,0,0,0,53.09,64.36h0l.5.17q.57.21,1.14.39c.78.27,1.57.53,2.36.77l1.11.33c1.09.32,2.18.62,3.29.89l.81.19c.89.21,1.77.4,2.65.58l1.2.23c.86.16,1.71.3,2.57.43l.94.15c1.13.16,2.25.29,3.38.41l1.06.09q1.26.1,2.52.18l1.18.06c1,0,2,.07,3.05.07h.5c1.13,0,2.26,0,3.39-.08l1.13-.06c.85,0,1.7-.11,2.55-.19l1.06-.09c1.14-.11,2.27-.25,3.41-.41l.74-.11c.93-.14,1.85-.3,2.77-.47l1.12-.22c.9-.18,1.8-.38,2.7-.59l.79-.18c1.13-.28,2.25-.58,3.36-.91l.93-.28c.85-.26,1.7-.54,2.55-.83l1-.35c1.06-.38,2.12-.77,3.17-1.2l.17-.06c1.1-.45,2.19-.93,3.27-1.42l1-.45c.82-.4,1.65-.8,2.46-1.22l.86-.44c1.06-.56,2.1-1.15,3.14-1.75l.58-.36c.86-.51,1.71-1.05,2.55-1.6.31-.19.61-.39.92-.6.83-.56,1.66-1.14,2.48-1.73l.57-.4c1-.73,2-1.49,2.92-2.27l.72-.6c.75-.61,1.49-1.25,2.21-1.9l.8-.71c.93-.85,1.85-1.71,2.75-2.62A82.26,82.26,0,0,0,258.17,177.29Zm-60-13.88a9.64,9.64,0,1,1-9.64,9.64A9.64,9.64,0,0,1,198.19,163.41Zm-43.75,113.2-1.62-8.34,18-34.77a12.06,12.06,0,0,0,1.23-3.76,13,13,0,0,0-.21-2.86,9.45,9.45,0,0,0-3.31-5.64,8.24,8.24,0,0,0-6.8-1.44,8.35,8.35,0,0,0-5.53,3.49,10.34,10.34,0,0,0-1.65,7.13l-8.71,1.69a19.41,19.41,0,0,1,2.63-13.73,16.54,16.54,0,0,1,10.87-7.3q7.89-1.44,13.75,2.6A18.32,18.32,0,0,1,179,236.82l-14.79,28.71,23.3-4.53,1.72,8.85Zm70.21-17.95a17.88,17.88,0,0,1-11.19,7,17.63,17.63,0,0,1-12.79-2.34q-6.21-3.58-7.95-12.08L187.43,224q-1.58-8.57,2.84-14.22a17.32,17.32,0,0,1,11-6.88,17.58,17.58,0,0,1,13,2.22q6,3.65,7.79,12.15l5.29,27.23Q228.82,253.06,224.65,258.66Zm5.47-44.81c-1.42-.74-2.37-2.2-2.84-4.4l-.84-4.35a6.19,6.19,0,0,1,1-5.2,6.08,6.08,0,0,1,3.74-2.24,6.34,6.34,0,0,1,4.44.65c1.33.8,2.22,2.29,2.69,4.48l.85,4.36a8.23,8.23,0,0,1,.11,2.89,4.54,4.54,0,0,1-.94,2.22,6.25,6.25,0,0,1-3.86,2.33A6,6,0,0,1,230.12,213.85Zm8.6,29.81-4.15.81L247,195l4.15-.81Zm19.68-5a6.23,6.23,0,0,1-3.85,2.33,6,6,0,0,1-4.33-.74q-2.13-1.11-2.83-4.4l-.85-4.35a6.19,6.19,0,0,1,1-5.2,6.08,6.08,0,0,1,3.75-2.24,6.36,6.36,0,0,1,4.43.65c1.33.8,2.23,2.29,2.7,4.49l.84,4.35a8,8,0,0,1,.11,2.89A4.45,4.45,0,0,1,258.4,238.65Z" fill="#63513d"/><path d="M200,176.55c-12.26,0-18.67-27.28-18.67-54.22S187.75,68.11,200,68.11s18.66,27.28,18.66,54.22A156.88,156.88,0,0,1,217.11,145l-6.92-1a151.85,151.85,0,0,0,1.48-21.65c0-30.55-7.71-47.22-11.66-47.22s-11.67,16.67-11.67,47.22,7.71,47.22,11.67,47.22Z" fill="#63513d"/></svg>