<svg xmlns="http://www.w3.org/2000/svg" width="22" height="22" viewBox="0 0 22 22"><title>icon</title><path d="M8.18,7h0L7.92,3h.75V1.76H5.34V3h.75L5.85,7h0A2.12,2.12,0,0,0,4,9.3v10a.86.86,0,0,0,.76.93H9.29a.86.86,0,0,0,.76-.93V9.3A2.12,2.12,0,0,0,8.18,7ZM8,17.16H5V9.93H8Z" fill="#d96227"/><path d="M12,6.43a19.16,19.16,0,0,0,.27,3.12,1.74,1.74,0,0,1,1.24-.5,1.85,1.85,0,0,1,1.37.62c.24.21.37.33.64.32s.41-.11.64-.32A1.84,1.84,0,0,1,17.53,9h0a1.6,1.6,0,0,1,.51.08,21,21,0,0,0,.2-2.69Z" fill="#d96227"/><path d="M17.91,9.9a.89.89,0,0,0-.38-.08,1.14,1.14,0,0,0-.85.41,1.74,1.74,0,0,1-1.17.54,1.52,1.52,0,0,1-1.16-.53,1.09,1.09,0,0,0-1.7,0l-.2.18c.36,1.41,1,2.6,2.12,2.89V18.9c-.65.24-1.63.72-1.65,1.29h4.4c0-.57-1-1.05-1.65-1.29V13.32C16.92,13,17.58,11.52,17.91,9.9Z" fill="#d96227"/></svg>