<svg xmlns="http://www.w3.org/2000/svg" width="262.54" height="283.03" viewBox="0 0 262.54 283.03"><path d="M225.21,111.57c-6.89-1.15-40.16-1.72-59.09,0s-23,6.31-30.4,6.88-23.52-5.16-31-7.45-40.85-2.69-67.69,1.14c-4,.58-4,11.48-4,11.48a13.76,13.76,0,0,1,6.31,8c1.72,5.74,7.46,32.7,13.77,36.71s39.58,6.89,50.48,4.59,17.79-24.67,18.93-31,4.59-14.34,8-14.34S138,130.5,140.31,142s2.29,27,17.78,29.83,34.42.58,44.17-3.44,15.49-25.24,16.64-30.4,9.75-6.89,9.75-9.75S232.09,112.72,225.21,111.57ZM117.36,132.8s-52.2,27.53-57.65,31.83c0,0-4.88-2.58-6-5.73s-6.88-15.78-8.31-24.67-3.45-15.49,2.29-18.07,36.71-2.58,46.75-1.43,22.66,5.73,23,10.61A64.73,64.73,0,0,1,117.36,132.8Zm37.29,29.25s-3.73-2.58-5.74-12.91-5.74-23.8-2-26.38c7.33-5.07,9.47-5.17,28.11-6.31s22.66.28,26.68.57,9.18-.57,9.46,2.58.58,5.74.58,5.74S181,142.26,154.65,162.05Z" fill="#e7e4dc"/></svg>