<svg xmlns="http://www.w3.org/2000/svg" width="232.61" height="180" viewBox="0 0 232.61 180"><title>Icons</title><path d="M133.72,97.11h-12.2l-1.77-4.66a28,28,0,0,0-10.42-13.3,27.7,27.7,0,0,0-16.19-5.1H66.08a28.6,28.6,0,0,0-26.61,18.4l-1.78,4.66H25.5a2.45,2.45,0,0,0-2.11,1.11,2.58,2.58,0,0,0-.33,2.44L24.83,106a2.24,2.24,0,0,0,2.44,1.78H33.7A15.52,15.52,0,0,0,28.38,113a13.37,13.37,0,0,0-2,7.2v10.65a13.59,13.59,0,0,0,3.55,9.31v13.75a5.31,5.31,0,0,0,5.32,5.33H45.9a5.31,5.31,0,0,0,5.32-5.33V145H108v8.87a5.33,5.33,0,0,0,5.33,5.33H124a5.31,5.31,0,0,0,5.32-5.33V140.13a13.55,13.55,0,0,0,3.55-9.31V120.17a13.36,13.36,0,0,0-2-7.2,15.55,15.55,0,0,0-5.33-5.21H132a2.24,2.24,0,0,0,2.44-1.78l1.77-5.32a2.61,2.61,0,0,0-.33-2.44A2.45,2.45,0,0,0,133.72,97.11Zm-80.95.44A14,14,0,0,1,58,90.79a13.8,13.8,0,0,1,8.09-2.55H93.14a14.19,14.19,0,0,1,13.3,9.31l3.33,8.43H49.45Zm-3.1,34.6a32.7,32.7,0,0,1-6.43.44h-.89a7.1,7.1,0,0,1,0-14.19q2.88,0,6.77,3.88c2.58,2.59,3.88,4.84,3.88,6.77C53,130.67,51.89,131.71,49.67,132.15Zm72.18-1.66a6.81,6.81,0,0,1-5,2.1H116a32.63,32.63,0,0,1-6.43-.44c-2.22-.44-3.33-1.48-3.33-3.1,0-1.93,1.29-4.18,3.88-6.77s4.84-3.88,6.77-3.88a7.06,7.06,0,0,1,5,12.09Z" fill="#da6118"/><path d="M209.72,24.77v-.51a3.58,3.58,0,0,0-3.58-3.58h-54.4c-5.82,0-17.75,14-17.75,14a3.58,3.58,0,0,0,3.58,3.58h10.88v50h0v71.12h61.27V105.65h0V24.78ZM203.14,88.2H155v-50h48.11Z" fill="#da6118"/></svg>