<svg xmlns="http://www.w3.org/2000/svg" width="230.77" height="199.89" viewBox="0 0 230.77 199.89"><title>Icons</title><path d="M114,37.28a66.07,66.07,0,1,0,66.07,66.07A66.07,66.07,0,0,0,114,37.28Zm45.24,84.81a49.08,49.08,0,0,1-10.75,15.74A47.05,47.05,0,0,1,114,151.44a50.54,50.54,0,0,1-39.77-21.52,47.75,47.75,0,0,1-8.83-26.57,45.52,45.52,0,0,1,3.63-18.63c.31-.73.66-1.45,1-2.17s.74-1.41,1.1-2.12.82-1.37,1.22-2.05.89-1.32,1.33-2a45.72,45.72,0,0,1,6.23-7.16,48.94,48.94,0,0,1,15.9-9.84,51.22,51.22,0,0,1,9-2.51,49.48,49.48,0,0,1,9.24-.84,48.66,48.66,0,0,1,9.25.82,51.29,51.29,0,0,1,9,2.5,48.84,48.84,0,0,1,15.91,9.85,45.7,45.7,0,0,1,11,15.45,47.44,47.44,0,0,1,.13,37.42Z" fill="#da6118"/><path d="M130.82,62.79a40.32,40.32,0,0,0-8.19-2.7,40.66,40.66,0,0,0-17.2,0,40.58,40.58,0,0,0-8.2,2.69,42.92,42.92,0,0,0-13.78,10,46.25,46.25,0,0,0-12.37,30.59,44.15,44.15,0,0,0,2.85,16.6,43.52,43.52,0,0,0,3.82,7.63,41.35,41.35,0,0,0,19.54,16.2,42.35,42.35,0,0,0,16.74,3,44.22,44.22,0,0,0,30.23-13.2,43.44,43.44,0,0,0,12.33-30.22,44.93,44.93,0,0,0-12-30.56A43,43,0,0,0,130.82,62.79Z" fill="#da6118"/><path d="M34.4,30.48V60.67H31.34V30.48h-2.9V60.67H25.39V30.48H22.48V60.67H19.43V30.48H17.89L14.6,74.29a1.65,1.65,0,0,0,.62,1.42l6.66,5.36V91.85a6,6,0,0,0-1,3.06l-2.8,58.14a8.8,8.8,0,1,0,17.58,0l-2.8-58.14a5.91,5.91,0,0,0-.93-3V81.07l6.65-5.35a1.68,1.68,0,0,0,.63-1.44l-3.28-43.8ZM20.93,152.65l1.87-51.59,2.11,57.46C22.33,158.28,20.93,152.65,20.93,152.65Z" fill="#da6118"/><path d="M214,123.08,213,33.8A3.34,3.34,0,0,0,211.5,31a3.37,3.37,0,0,0-4.13.34c-33,31.3-13.26,70.43-6.3,81.89l-2.49,39.79a8.8,8.8,0,1,0,17.59,0Zm-12.69,29.57,1.87-38.84,1.06,22.35,1.05,22.36C202.75,158.28,201.35,152.65,201.35,152.65Z" fill="#da6118"/></svg>