<svg xmlns="http://www.w3.org/2000/svg" width="262.54" height="283.03" viewBox="0 0 262.54 283.03"><path d="M197.35,49.59c-5.89,9.54-24.23,43.17-24.23,92.25,0,38.75,6.16,73.5,15,91.6l9.19-5.75Z" fill="#e7e4dc"/><path d="M201,49.59v178.1l9.19,5.75c8.89-18.1,15-52.85,15-91.6C225.18,92.76,206.84,59.13,201,49.59Z" fill="#e7e4dc"/><path d="M142.26,49.59l-9.19,5.75v178.1c5.89-9.54,24.23-43.17,24.23-92.25C157.3,102.44,151.15,67.69,142.26,49.59Z" fill="#e7e4dc"/><path d="M65.19,49.59v178.1l9.19,5.75c8.89-18.1,15-52.85,15-91.6C89.42,92.76,71.08,59.13,65.19,49.59Z" fill="#e7e4dc"/><path d="M61.59,227.69V49.59c-5.89,9.54-24.23,43.17-24.23,92.25,0,38.75,6.16,73.5,15,91.6Z" fill="#e7e4dc"/><path d="M105.24,141.19c0,49.08,18.34,82.71,24.23,92.25V55.34l-9.19-5.75C111.4,67.69,105.24,102.44,105.24,141.19Z" fill="#e7e4dc"/></svg>