<svg xmlns="http://www.w3.org/2000/svg" width="971" height="1058.3" viewBox="0 0 971 1058.3"><title>icon-leaf-lighttan-left</title><path d="M257.5,93.1c-28.5,16.2-32.4,27.1-26.1,62.5,2.7,15.2,8.8,31.2,7.2,45.5-2.6,22.3-6.5,43.1,7.4,64.4,2.8,4.3,2.9,10.3,4.1,15.6,3,13.1,4.7,26.6,9,39.4,17.6,51.9,46.6,98.3,75.2,144.7,10.8,17.5,23.4,34,34.1,51.5,2.6,4.2,1.5,10.8,2,16.3-4.8-.9-10-.8-14.3-2.9-4-1.9-7.6-5.8-10.8-9.4-9.2-10.6-16.3-24.5-27.2-31.8-28.5-19-39.9-45.1-46.4-77.7a316.5,316.5,0,0,0-28.2-80.8c-24-46.6-35.7-94-33-144.6.9-17.4.8-34.9,1.1-50.1-12.8,14.7-24.2,32.7-39.9,44.5-27.7,20.8-45.1,49.9-63.1,78.7-8.6,13.8-9,29.1.3,46.5,6.9,13,11.5,28.9,11.9,43.2.7,22.6,7,42,21,59.6Q175,450.05,209,491.1c19.9,24,40.2,47.6,60.7,71.1,8.5,9.8,22.3,44.5,3.5,54.3s-33.1-36.8-53.4-55.4c-34.4-31.7-72.4-36.1-86.4-81.2-7.1-22.8-15.3-45.4-24.1-67.7-5.9-14.7-4.6-50-5-53.1-1.7-12.9-18,11.1-38.6,36.7-27.2,33.7-35,72.7-21.3,113.6,9.9,29.5,34.7,51.1,59.3,68.5,32,22.8,66.3,41.8,99.3,63,14.8,9.5,28.9,20.3,42.9,31.1,7.6,5.9,7.7,14.2,1.1,13.8-21.4-1.3-44.5.6-63.9-8-20.7-9.2-38-28.6-56.5-43.9C97.8,610.1,69,586.2,41,561.4,29.2,551,19.3,538.3,7.6,525.7,4.8,561.7-.1,596.2,0,631c.1,28.5,4.7,58.5,22.7,83.2,12.3,17,17.7,34.9,21.3,54.4a137.73,137.73,0,0,0,6.4,22.8c14,38,40.8,65.5,70,91.5,20.7,18.4,40.2,38.1,67.5,44,37.8,8.2,74.6,4.4,111.1-1,34.1-5,59.2-23.6,70.9-57.7,8.6-25,15.3-51,22.8-76.7l6.6-.7c2.8,4.5,7.7,9,8,13.4a77.27,77.27,0,0,1-2.8,25.8c-5.1,17.5-11.6,34.3-17.1,51.6-4.7,14.8-16.5,31.7-18.2,36.6Q349,975.8,328.6,1033.3l22.7,12.6,27.4-97.1c13.7,23.5,25.9,42.8,36.4,62.9,9,17.5,18.2,35.1,37.5,40.1,16.7,4.3,34.5,7.7,50.9,6.1,33.9-3.4,67.3-10,100.7-16,34.2-6.1,62.2-23.7,87.6-49.1,5.4,3.9,11,9,17.4,12.4,8.7,4.7,18.2,11.4,26.9,11.5,48.7.4,81.2-30.7,113.4-61.1,6.9-6.5,9.2-18.4,13.6-27.8-9.3-3.6-18.5-7.7-27.9-10.8Q788,901.55,740.7,886.8c-47.7-15-107.2-24.4-148.7-55.6-4.6-3.4-24.4-16.8-13.6-26s25.5-1.4,29.2-.2c35.6,11.1,70.8,23.6,106.6,33.7,52.1,14.7,103.9,21.6,156.3,10.6,21.4-4.5,32.3-14.5,38.5-34.2,2.3-7.5,6.7-14.1,9.2-21.5,9.7-28.6,14.1-58.6,13.2-91.1-8.2,1.3-15.1,2.3-21.9,3.5-46.8,8.3-91.2,26.9-138.7,31-33.8,2.9-65.5-2.3-100.2-5.7-27.9-12.7-46.9-41.5-11.1-38s95.8,12.9,145.4,12.5c55.7-.4,105.5-21.2,151.7-49.6,3.8-2.3,6.7-8.4,7.2-13.2,2.8-32.2,4.9-64.6,7.2-98.1-10.5,1.6-20.5,2.6-30.2,4.7-46.5,10.2-96.2,6.7-141,25.7-22.7,9.6-47.3,15.6-71.8,20-24.9,4.5-50.6,5.8-76.1,6.6-5.4.2-14.6-6.8-17-12.5-4.5-10.4,4.8-12.8,12.2-15,48.3-14.2,96.8-28.5,145-42.8s91.1-37.2,118.5-81.9c11.6-18.9,27.2-38.6,16.6-65.7-6.3-15.8-10.9-30.8-13.5-48-4.4-28.3-17.3-55.9-26.6-83.8-4.2,5.4-4.8,10.1-6.4,14.2-14.1,36.9-30.1,73.7-59.7,98C778.8,399,733.5,429.6,688.3,460c-9.2,6.2-24.1,4.9-36.5,4.3-4.6-.2-11.8-7.6-13.6-12.9-2.1-6.4-2-15.9,1.4-20.6,5.3-7.5,13.5-13,21.5-17.7,23.5-13.7,47.7-26.1,71.1-39.8,42.4-24.7,84.4-49.8,104.1-100.3,5.3-13.5,13-25.8,19.8-38.6,9-17.1,9.9-34-2.4-52.2-7.3-10.7-12.4-22.9-19.1-34-2.7-4.6-7.1-8.1-11.8-13.4C816.4,175,811.9,185,798,198c-15.5,14.5-29.8,30.4-44.7,45.5-10.1,10.2-20.4,20.2-30.5,30.4-4.7,4.7-11,10.5-16.1,2.4-3.2-5.1-3.3-15.7-.3-20.5,19.6-31,41.3-60.4,60.3-91.8,8-13.1,14.9-29.6,14.8-45.1,0-10-13.8-21.1-21.4-31.7-.6-.8-2-1.1-2.6-1.9-9.8-13.7-25.4-25.9-13.2-43.4-11.8-.8-23.5.5-34.1-2.8-41-12.8-82.1-16.2-123.5-16.5-21.4-.2-27.5,3.9-30.2,26.9-1.9,15.9-1.2,32.3-2.8,48.3-4.8,47.7,8,94.2,17.2,141.2,5.6,28.6,6.7,58,7.9,86.9.4,10.5-5.8,20.1-18.3,19.2-11.8-.8-21.3-5-26.6-18.9-15.8-41.6-26.8-84.1-30.8-127.7-3.5-38.8-12.1-77-6.5-116.7C501.1,49.7,515.9,27.1,534,0c-20.3,2.4-38.4,2.6-55.4,6.9-20.7,5.2-40.7,13-60.3,21.1-16.8,6.9-31,16.4-28.7,40.6,2.4,25.4,1.6,50.8,3.3,76.2,5.4,84.2,29.6,163.8,70.3,239.7,8.9,16.6,14.6,35.3,18.8,53.6,1.5,6.4-4.3,18.7-9.7,20.6-11,3.8-22.5,1.2-33.7-9.4-34.5-32.6-47.6-75.4-53.5-118.1-7.7-55.9-28.8-110.2-27.2-167.3,1.1-40.9-10.7-82.9,2-126.1C323.5,57.5,290.1,74.6,257.5,93.1ZM557.6,895.2l128.2,90c-4.9,2.7-7.1,3.7-9.2,5-20.1,12.4-34,11.2-52.5-6-21-19.5-41.8-39.3-61.5-60.2-5.6-6-6.8-16.5-10.1-24.9Zm-21-222.7c13.8-17.9,87.1-9.9,84.5,12.6-2.4,21.3-4.5,33.4-38.1,24s-60.3-18.7-46.4-36.6ZM173,771.5c13.4,2.7,27.2,2.5,40.7,5,5.7,1.1,11,5.8,16.5,8.8-.1,1.6-.1,3.3-.2,5-10.5,5.1-21.7,9.1-31.3,15.5-13,8.8-27.6,11.3-41.5,4.2-28.1-14.3-55.2-31.2-82.6-47.1A120,120,0,0,1,60,753.1a66.56,66.56,0,0,1-7.8-7.2C90.5,754.1,131.7,763.2,173,771.5ZM335.5,646.7c28.4,41.4,21,78.2-11.9,53.9S311,611,335.5,646.7ZM503.9,506.5c3,5.1,7.8,15.2-.6,21.1s-16.6.6-21.1-3.6c-16-15.2-14.4-30.8-6.2-39.2S493.6,488.8,503.9,506.5Z" fill="#e7e4dc" opacity="0.8" style="isolation:isolate"/></svg>