<svg xmlns="http://www.w3.org/2000/svg" width="262.54" height="283.03" viewBox="0 0 262.54 283.03"><path d="M47.8,47.07c-2,0-3,3.36-3.25,5.33-2.07,14.26,13.06,98.65,15.26,117.13,2.43,20.4-9.37,30.68-5.52,50.51a3.92,3.92,0,0,0,2.16,2.79c16.41,7.85,46.83,16.74,64.67,11.63a4,4,0,0,0,2.1-1.42l.86-1.15a3.87,3.87,0,0,0,.75-1.74c2.23-15.19-3.56-27.45,6-39.74,5.88-7.55,53.65-31.9,61.69-48.87,7.42-15.65,9.54-20.16,16.63-27.26,2.21-2.21,9.44-6.46,9-8.46s-6.12-4.56-8.95-5.14c-15.94-3.23-31.91,11.63-40.23,24.81a5.6,5.6,0,0,1-4.91,2.52,6,6,0,0,1-3.89-2.29c-6.8-12.11-3.86-22.14-7.49-35.6-.67-2.49-2.61-7.82-5.24-10.86-3.85-4.45-7.4-5.87-13.83-4.06a11.1,11.1,0,0,0-5.5,5.32,3.94,3.94,0,0,1-6.11,2c-3.24-2.54-4.06-6.21-9.49-6.45-4.47-.2-8.49,4.12-8.48,4.85,0,.28-.29.47-.44.7a3.91,3.91,0,0,1-6.77-.24,7.84,7.84,0,0,0-6-5.21,11.93,11.93,0,0,0-7.16,1.19c-3.67,2-5.29,5-6.64,9.12a3.92,3.92,0,0,1-7.1.85c-9.49-15.83-6-23.91-17.58-36.88C51.78,49.84,49.62,47,47.8,47.07Z" fill="#e7e4dc"/></svg>