<svg xmlns="http://www.w3.org/2000/svg" width="214.07" height="168.91" viewBox="0 0 214.07 168.91"><title>Icons</title><polygon points="30 130.74 30 130.82 28.08 131.53 30 130.74" fill="#da6118"/><path d="M79.58,85.34c0,2.62-7,4.74-15.58,4.74S48.4,88,48.4,85.34s7-4.75,15.6-4.75S79.58,82.71,79.58,85.34Z" fill="#da6118"/><polygon points="31.17 130.26 30 130.82 30 130.74 31.17 130.26" fill="#da6118"/><path d="M193.41,70A4.57,4.57,0,0,0,188,68.3L64.05,117.16,30,130.82l-1.92.71h0l-.7.25a2.31,2.31,0,0,0,1.56,4.34l1.06-.38v5c0,5.9,15.92,10.69,35.3,10.69s35.3-4.79,35.3-10.69V110.53l90.64-33.67A4.58,4.58,0,0,0,193.41,70Z" fill="#da6118"/><path d="M168.37,18.85a4.48,4.48,0,0,0-5.81-.61L79.79,75.83a98.88,98.88,0,0,0-15.63-1.18C44.77,74.65,30,79.43,30,85.34v25.5L20.85,117a2.32,2.32,0,0,0,2.57,3.86L30,116.62V128c8-3.54,59.24-26.15,70-30.9l.56-.27V85.34c0-3-5-5.66-11.24-7.59l78.21-52.14A4.47,4.47,0,0,0,168.37,18.85ZM92.88,85.34c0,4.86-12.93,8.8-28.88,8.8h-.61a92.43,92.43,0,0,1-9.25-.53c-11.09-1.23-19-4.46-19-8.26,0-4.86,12.94-8.81,28.9-8.81a86.24,86.24,0,0,1,13.21,1c.77.12,1.52.25,2.24.39l.08,0c.73.13,1.43.28,2.1.44l.05,0c.7.16,1.36.33,2,.52s1.26.37,1.84.57C90.09,81,92.88,83.08,92.88,85.34Z" fill="#da6118"/></svg>