<svg xmlns="http://www.w3.org/2000/svg" width="218.48" height="189.25" viewBox="0 0 218.48 189.25"><title>Icons</title><path d="M143.79,68.72h25.9v73.4a21.65,21.65,0,0,1-21.59,21.59H70.38a21.65,21.65,0,0,1-21.59-21.59V68.72H74.7V60.08a34.21,34.21,0,0,1,4.59-17.4A33.6,33.6,0,0,1,91.84,30.13a35.29,35.29,0,0,1,34.81,0A33.6,33.6,0,0,1,139.2,42.68a34.21,34.21,0,0,1,4.59,17.4ZM83.33,92.47a6.45,6.45,0,1,0-4.58-1.89A6.25,6.25,0,0,0,83.33,92.47ZM92,60.08v8.64h34.54V60.08A17.17,17.17,0,0,0,97.1,47.94,16.58,16.58,0,0,0,92,60.08Zm43.18,32.39a6.45,6.45,0,1,0-4.59-1.89A6.25,6.25,0,0,0,135.15,92.47Z" fill="#da6118"/></svg>