<svg xmlns="http://www.w3.org/2000/svg" width="262.54" height="283.03" viewBox="0 0 262.54 283.03"><path d="M93,204.14v14.07h76.41V204.13c39.47-13.85,54.49-43.92,57.08-79.8h-11c-6.25-9.69-18.79-25.1-36.68-28-21.85-3.53-41,8.42-46.76,12.53a60.71,60.71,0,0,1-14.71-7c-6.52-3.94-12.68-7.66-24.07-7.66-15.48,0-28.76,8.75-38.4,25.31q-1.41,2.42-2.58,4.79H36C39,160.21,55.71,190.28,93,204.14ZM81.19,124.33c3.49-3.68,7.72-5.74,12.15-5.74,4.62,0,9.92,2.6,16,5.74Zm39.55,0c-2.68-1.24-5.25-2.58-7.73-3.87-6.92-3.6-13.46-7-19.67-7-7.22,0-13.92,4-18.75,10.87H69C73.75,116.82,81.5,109,93.34,109c7.19,0,12.25,2.82,18.65,6.38,5.69,3.17,12.31,6.84,21.81,9Zm68.66,0a60.47,60.47,0,0,0-31.68-12.66,42.46,42.46,0,0,1,17.81-1.15c9.17,1.48,16.65,7.65,22,13.81Zm-11.33-22.91c14.22,2.29,25,14.06,31.23,22.91h-5.05c-6-7.79-15.43-16.87-27.9-18.88s-23.8,1.85-31.52,5.67c-2-.16-3.92-.38-5.67-.66C147,105.82,161.9,98.81,178.07,101.42Zm-84.73-2c10,0,15.27,3.2,21.42,6.91,8,4.8,17,10.25,37.32,10.25a54.05,54.05,0,0,1,28,7.8h-8.36A58.79,58.79,0,0,0,151,121c-18.34,0-28-5.38-36.5-10.12-6.49-3.62-12.63-7-21.15-7-8.87,0-16.73,3.64-23.36,10.81a50.17,50.17,0,0,0-6.89,9.68H58.18C64.72,112.21,75.79,99.37,93.34,99.37Z" fill="#e7e4dc"/></svg>