<svg xmlns="http://www.w3.org/2000/svg" width="226.69" height="156.31" viewBox="0 0 226.69 156.31"><title>Icons</title><path d="M205,27.45a6,6,0,0,0-4.38-1.8H48.25a6.15,6.15,0,0,0-6.17,6.18v11.6h8.23V33.89H66.78a16,16,0,0,1-2.94,9.54h53.8a18.23,18.23,0,0,1,13.57,0H185a16,16,0,0,1-2.94-9.54h16.47V50.36a16.15,16.15,0,0,1-9.13-2.64l.42,38a16.15,16.15,0,0,1,8.71-2.39V99.76H190l.09,8.24h10.51a6.15,6.15,0,0,0,6.18-6.18v-70A6,6,0,0,0,205,27.45Z" fill="#da6118"/><path d="M178.44,48.32H26.1a6.15,6.15,0,0,0-6.18,6.17v70a6.15,6.15,0,0,0,6.18,6.17H178.44a6.15,6.15,0,0,0,6.17-6.17v-70a6.15,6.15,0,0,0-6.17-6.17ZM28.16,122.43V106a16.26,16.26,0,0,1,16.46,16.47Zm11.7-54.17A15.91,15.91,0,0,1,28.16,73V56.55H44.62A15.89,15.89,0,0,1,39.86,68.26Zm77,38.73q-6.06,7.2-14.54,7.2T87.73,107a26.34,26.34,0,0,1-6-17.5,26.32,26.32,0,0,1,6-17.5q6-7.2,14.54-7.2T116.81,72a26.32,26.32,0,0,1,6,17.5A26.33,26.33,0,0,1,116.81,107Zm59.57,15.44H159.91A16.26,16.26,0,0,1,176.38,106Zm0-49.41a16.26,16.26,0,0,1-16.47-16.47h16.47Z" fill="#da6118"/></svg>