<svg xmlns="http://www.w3.org/2000/svg" width="400" height="400" viewBox="0 0 400 400"><path d="M181.81,146.7a6.33,6.33,0,0,0-1.41.22c-1.15.24-2.3.49-3.46.67a62.91,62.91,0,0,1-7,.7,90.31,90.31,0,0,1-14-.59l-2.6-.32a14.21,14.21,0,0,1,0,6,18.32,18.32,0,0,1-3.48,7.11c-.29.4-.6.77-.91,1.15a318.64,318.64,0,0,0,33-6.33,19.55,19.55,0,0,0,.56-2.35,23.4,23.4,0,0,0,.36-3.32c0-1.06,0-2.41-.33-2.67A1,1,0,0,0,181.81,146.7Z" fill="#63513d"/><path d="M250.86,185.69c0-8.31-3.56-13.28-6.55-16-7.55-6.83-18.46-6-19.68-5.84a7.29,7.29,0,1,0,1.45,14.5c1.09-.08,6-.07,8.45,2.15.75.68,1.75,2,1.75,5.17,0,7.38-10.84,10.78-26.81,14.08V153.09c4.7,1.25,9.2,2.35,13.53,3.34a20.62,20.62,0,0,1-1.38-3.24,21.06,21.06,0,0,1-.84-3.44c-.09-.6-.17-1.16-.21-1.79a3.54,3.54,0,0,1,.49-2.25,2.76,2.76,0,0,1,1.05-.9,3.56,3.56,0,0,1,1.19-.33,8.57,8.57,0,0,1,2,.08c1.11.13,2.23.25,3.35.32,2.23.14,4.47.22,6.71.16a119.32,119.32,0,0,0,13.43-1.26c2.24-.32,4.49-.67,6.73-1.06s4.48-.75,6.69-1.2A62.34,62.34,0,0,0,275,137.85a45.39,45.39,0,0,0,5.85-3c.94-.57,1.85-1.19,2.77-1.81l1.28-1,1.26-1.06a57.15,57.15,0,0,0,4.51-4.56c-13.6-15.53-26.13-31.33-37.8-22.4-13.63,10.43-32.25,18-43.36,22V119.2h-.62a19.89,19.89,0,1,0-17.7,0h-.62v6.88c-11.11-4-29.73-11.58-43.36-22C136.26,95.73,124.61,109,112,123.43c.79,1,1.59,1.92,2.43,2.85a60.25,60.25,0,0,0,4.7,4.75l1.25,1.06,1.29,1c.91.62,1.82,1.24,2.76,1.81a45.39,45.39,0,0,0,5.85,3,62.7,62.7,0,0,0,12.75,3.67c2.21.45,4.44.83,6.69,1.2s4.49.74,6.73,1.06A119.32,119.32,0,0,0,169.91,145c2.25.06,4.48,0,6.72-.16,1.12-.07,2.23-.19,3.34-.32a8.57,8.57,0,0,1,2-.08,3.44,3.44,0,0,1,1.19.33,2.76,2.76,0,0,1,1.05.9,3.62,3.62,0,0,1,.5,2.25c-.05.63-.12,1.19-.21,1.79a21.09,21.09,0,0,1-.85,3.44,16.89,16.89,0,0,1-.71,1.83c2.48-.6,5-1.24,7.59-1.93v46.68c-16-3.3-26.82-6.7-26.82-14.08,0-3.56,1.3-4.76,1.73-5.15,2.35-2.15,7.06-2.26,8.48-2.17a7.29,7.29,0,0,0,1.45-14.5c-1.21-.12-12.13-1-19.68,5.84-3,2.7-6.55,7.67-6.55,16,0,13.22,9.46,19.91,21.68,24.08-11.67,5-21.68,13-21.68,26.14,0,17.51,18.3,26.44,29.12,29a7.29,7.29,0,0,0,3.32-14.19c-.17,0-17.87-4.55-17.87-14.77,0-8.52,13.28-13.78,26.82-17.23V275l6.18,40.61a3.33,3.33,0,0,0,6.58,0L209.47,275V218.68c13.55,3.45,26.81,8.71,26.81,17.23,0,10.18-17.57,14.7-17.86,14.77a7.29,7.29,0,0,0,1.67,14.38,7.21,7.21,0,0,0,1.65-.19c10.82-2.52,29.12-11.45,29.12-29,0-13.15-10-21.1-21.69-26.14C241.4,205.6,250.86,198.91,250.86,185.69ZM190.23,111a13.69,13.69,0,0,1-3.34-7.21,20.08,20.08,0,0,1-.24-4,8.6,8.6,0,0,1,1.33-4,15.16,15.16,0,0,1,5.58-5.31,30.39,30.39,0,0,0-3.85,6.19,8.43,8.43,0,0,0-.69,3.16,29.25,29.25,0,0,0,.33,3.48,15.88,15.88,0,0,0,2.4,6.41,14,14,0,0,0,5.36,4.66A10.25,10.25,0,0,1,190.23,111Zm7.52,126.3L197.52,256c-.14,6.21-.22,12.42-.41,18.63-.19-6.21-.27-12.42-.4-18.63l-.24-18.63c-.13-12.42-.12-24.84-.19-37.26s.06-24.83.19-37.25l.23-18.63c.14-6.21.22-12.42.41-18.63.19,6.21.27,12.42.41,18.63l.23,18.63c.14,12.42.13,24.84.19,37.25S197.89,224.92,197.75,237.34Z" fill="#63513d"/><path d="M148.24,159.34A35.58,35.58,0,0,0,151,152.7a31.86,31.86,0,0,0,1.29-5.47c-3.34-.45-6.66-1-10-1.62a59.09,59.09,0,0,1-13.54-4.15,44.43,44.43,0,0,1-6.24-3.52c-1-.67-1.94-1.38-2.87-2.11l-1.39-1.2-1.29-1.25a56.3,56.3,0,0,1-6.5-8.12c-10.77,12.35-22.21,25-34.44,25.22,0,0,6.05,8.15,26.74,11.56a25.4,25.4,0,0,0,5.44-.52,25.13,25.13,0,0,0,9.19-3.78,31.73,31.73,0,0,0,7-6.91,40.64,40.64,0,0,0,5.08-8.66l.25.06a19.63,19.63,0,0,1-3.3,10.05,22.55,22.55,0,0,1-7.94,7.16,26.72,26.72,0,0,1-10,3.31l-.29,0c9.82,1.08,22.41,1.12,38.42-.86A29.14,29.14,0,0,0,148.24,159.34Z" fill="#63513d"/><path d="M249.29,147.7a90.18,90.18,0,0,1-14,.59,63.09,63.09,0,0,1-7-.7c-1.16-.18-2.31-.43-3.46-.67a6.16,6.16,0,0,0-1.41-.22,1,1,0,0,0-.75.22c-.37.26-.36,1.61-.33,2.67a25,25,0,0,0,.36,3.32,24.21,24.21,0,0,0,1,3.69,298,298,0,0,0,33.15,5.71c-.52-.6-1-1.22-1.51-1.87a18.17,18.17,0,0,1-3.47-7.11,14,14,0,0,1,0-6Z" fill="#63513d"/><path d="M292.47,128.57a51.84,51.84,0,0,1-4.12,4.81l-1.3,1.25-1.39,1.2c-.93.73-1.88,1.44-2.87,2.11a44.9,44.9,0,0,1-6.23,3.52A59.25,59.25,0,0,1,263,145.61c-3.35.64-6.67,1.17-10,1.62a31.86,31.86,0,0,0,1.29,5.47,35.58,35.58,0,0,0,2.73,6.64,28.1,28.1,0,0,0,2.24,3.22c14.85,1.47,26.51,1.11,35.57-.15a26.27,26.27,0,0,1-8-3,22.58,22.58,0,0,1-7.95-7.16,19.52,19.52,0,0,1-3.29-10.05l.24-.06a40.26,40.26,0,0,0,5.09,8.66,31.68,31.68,0,0,0,7,6.91,25.13,25.13,0,0,0,9.19,3.78c.54.11,1.08.2,1.63.27,19.51-3.54,25.28-11.31,25.28-11.31C312.88,150.23,302.39,139.76,292.47,128.57Z" fill="#63513d"/></svg>