<svg xmlns="http://www.w3.org/2000/svg" width="350" height="360.68" viewBox="0 0 350 360.68"><title>icon-donation</title><path d="M203.48,319.74c5.36,4.7,5.51-6.51,12.42-8.27,35.11-9,74.61-21.46,89.76-54.39,3.36-7.32,5.24-15.86,2.44-23.42-3.38-9.15-12.69-14.77-17.57-23.22-12.93-22.46,9.67-54-4.42-75.76-3.4-5.23-8.6-9.15-11.62-14.61-7-12.69-.81-30.8-10.65-41.45s-27.4-5.45-42.07-5.26c-21.28.28-40.35-12-60.06-20S116.46,42.56,102,58.15c-5.3,5.7-8.31,13.12-12.81,19.46C80.71,89.51,67.57,97,55.93,105.77s-22.72,20.61-23.68,35.16c-1,15.59,9.73,29.32,13.38,44.51,2.37,9.85,1.68,20.15,1.2,30.27-.84,17.65-1,35.72,4.6,52.49s17.88,32.2,34.81,37.23c17.47,5.19,38.33-.76,53.09,9.92,8.67,6.28,14.34,17.81,24.92,19.38,14,2.08,24.94-15.15,39.1-14.41" fill="#f3f3ee"/><path d="M176.43,244.61h.23l-.08-.07Z" fill="#473729"/><path d="M301.49,207.37c-4.58-7.55-10.13-11-19.32-10.62-18.62.7-18.64.21-18.64-18.48,0-15.82,0-16-16.06-16.17-5.66,0-7.68-2.06-7.55-7.62.26-12,.1-24,.11-36,0-14.44,0-14.53-14.41-15.08-4.06-.16-7.14-.88-7.33-5.76-.17-4.19-3-4.88-6.49-4.87-21.64,0-43.27-.12-64.9.25-2.12,0-5.49,2.84-6,4.92-1,4.25-3.25,5.48-7.09,5.4-2.64-.06-5.29.15-7.93,0-5.18-.27-7.31,1.94-7.19,7.25.27,12,.13,24,.16,36.05,0,14.8,0,15-14.67,15.31-5.46.11-7.17,2.37-7,7.41.19,7,.29,14-.12,20.91-.13,2.19-1.55,5.5-3.18,6.08s-5.48-.64-6.55-2.26c-2.55-3.85-3.86-2.65-5.38.36-5.18,10.26-10.59,20.42-15.34,30.88-2.64,5.79-2.42,14.57-6.63,17.52-4.66,3.25-12.91,1.71-19.58,1.6-4.44-.08-5.7,1.88-5.1,5.6,1.93,11.84,3.61,23.74,6.24,35.43.79,3.49,1.26,6-.51,7.17a15.46,15.46,0,0,0,.91,4.52c13.52,1.4,27.05,3.14,40.61,3.42,30.25.62,60.51.18,90.77.18,36.27,0,72.54.09,108.8-.09,7.18,0,14.35-1.16,21.53-1.72,1.32-.11,2.65-.2,4-.29l5.66-11.39.43-1.48C323.22,257.57,316.39,231.9,301.49,207.37Zm-179.73-18.3q.38-37.84.17-75.7c0-5.8.9-7.4,6.28-7.38,33.65.15,67.3.21,100.94,0,6.45,0,7.2,2.48,7.11,8.54-.25,15.38.14,30.77-.07,46.14-.08,6.15,2.59,9.84,9.56,9,5.86-.72,7.72,2.39,7.31,7.72a40.18,40.18,0,0,0,0,6.49c.47,5.4-2.06,7.35-7.24,7.06-3.58-.2-7.83-1.53-8.8,4.43-.15.87-4.18,1.54-6.42,1.56-17.06.13-34.12.07-51.19.07s-34.13-.17-51.19.09C122.29,197.15,121.7,195,121.76,189.07Zm-15.87-9.31c.14-1.67.33-2.14.45-3.46.36-3.65,1.66-5.11,4.57-6.27,4.59-1.83,8.47.32,8,6.45a58.37,58.37,0,0,0,0,6.48c.19,4.51-.32,7.9-6.33,8-6.4.1-7-3.48-6.75-8.31C105.94,181.68,105.81,180.72,105.89,179.76Zm205.89,77.32H297.45q-106.72,0-213.44,0c-1.63,0-3.25-.31-4.88-.47,1.64-.14,3.27-.38,4.9-.38q112.13,0,224.26,0h3.5Zm-2.31-5.91c-11.05-.19-17.11,1.35-25.71.29-6.39-.78-12.95,0-19.44-.08a20.35,20.35,0,0,1-4.73-.31l-12.21.21c-52.35.24-103.19,1.07-155.53,1a56.71,56.71,0,0,1-14.35-1.12,13,13,0,0,1-2.78-2.58,3.77,3.77,0,0,1,.15-2.8C80.26,231.43,85.34,217,91.5,203c1.09-2.48,6.7-4.19,10.23-4.22,45.88-.28,91.77-.19,137.65-.2,14.15,0,28.31.4,42.44-.2,8-.34,13.44,2.27,16.89,9.34,2.94,6,6.6,11.83,8.56,18.16a9.13,9.13,0,0,1,.34,1.73c1.21,3.87,3.64,7.53,4.74,11.39,0,0-.08,0,0,0a76.45,76.45,0,0,1,1.75,10.32C314.13,249.91,310.52,251.19,309.47,251.17Z" fill="#473729"/><path d="M146.4,244.46c-6.26-.3-12.72-1.05-18.54-3.15-2.29-.82-4.09-5.78-4.31-9-.38-5.68,2.71-11.45,2.94-17.2.06-1.44-.8-2.93-1.25-4.4a15.88,15.88,0,0,0-1.52,3.65c-1,7.53-4.36,15.07-4.77,22.64-.3,5.66-2.75,7.59-8,7.58-10,0-20.1.58-30.12.21-3-.11-3.91.24-3.56,2.3,3.34.84,6.35,1.87,9.61,2a18.89,18.89,0,0,1,3.79-.47c8.4,0,17.18,1.89,25.13,0,17.55-4,34.74,3.18,52,.09,3-.55,5.79-2.69,8.67-4.14C166.42,244.61,156.39,244.93,146.4,244.46Z" fill="#473729"/><path d="M277.16,204.94c-1.75-1.71-5.12-2.44-7.78-2.45-32.4-.16-64.8-.07-97.2-.16-4.85,0-8.63.6-8.58,6.74s4.15,6.61,8.82,6.6c16.8,0,33.6,0,50.4,0,12.6,0,25.2.06,37.8,0q6.3,0,12.6-.11a13.28,13.28,0,0,0,4.77-1.29c.95-.4,1.9-.81,2.86-1.13-.3-.7-.55-1.44-.79-2.18C279.32,208.7,278.65,206.4,277.16,204.94Z" fill="#473729"/><path d="M86.1,190.94c.06-1,.1-2,.11-2.94a12.81,12.81,0,0,0-.22-2.82,1.09,1.09,0,0,0-.19-.43s.1.05-.08,0l-.34-.09a12.53,12.53,0,0,0-1.38-.3c-.94-.18-1.9-.28-2.86-.37a113,113,0,0,0-11.65-.28c-1.95,0-3.9,0-5.84.21-1,.09-1.94.2-2.89.36-.47.09-1,.21-1.4.32a3,3,0,0,0-1,.77,23.68,23.68,0,0,0-3.16,4.87c-.9,1.74-1.68,3.54-2.45,5.34-2.94,7.28-5.75,14.61-8.5,22s-5.69,14.65-8.67,21.94l0-.15c-.11,1.74-.19,3.47-.34,5.2H35c-.14-1.73-.22-3.46-.34-5.2v-.05l0-.09q3.3-11.37,7.52-22.41a222.87,222.87,0,0,1,9.56-21.64c.9-1.76,1.84-3.5,2.8-5.22a31.58,31.58,0,0,1,3.27-5,3.83,3.83,0,0,1,1.28-1c.51-.16,1-.3,1.46-.43,1-.26,1.94-.47,2.92-.66,2-.37,3.93-.61,5.91-.79a51.6,51.6,0,0,1,6-.12,49.78,49.78,0,0,1,6,.53c.5.07,1,.15,1.48.26s1,.21,1.48.35a9.91,9.91,0,0,1,1.46.47l.37.13a1.27,1.27,0,0,1,.54.38A2.13,2.13,0,0,1,87,185a11.55,11.55,0,0,1-.13,3.07A26.41,26.41,0,0,1,86.3,191Z" fill="#473729"/><ellipse cx="209.22" cy="222.63" rx="4.99" ry="2.07" fill="#473729"/><ellipse cx="208.13" cy="231" rx="5.84" ry="2.41" fill="#473729"/><ellipse cx="205.94" cy="239.84" rx="7.03" ry="2.91" fill="#473729"/><ellipse cx="227.09" cy="222.63" rx="4.99" ry="2.07" fill="#473729"/><ellipse cx="227.09" cy="231" rx="5.84" ry="2.41" fill="#473729"/><ellipse cx="227.09" cy="239.84" rx="7.03" ry="2.91" fill="#473729"/><ellipse cx="243.45" cy="222.63" rx="4.99" ry="2.07" fill="#473729"/><ellipse cx="245.63" cy="231" rx="5.84" ry="2.41" fill="#473729"/><ellipse cx="246.73" cy="239.84" rx="7.03" ry="2.91" fill="#473729"/><polyline points="121.67 197.07 121.67 80.24 236.1 80.24 236.1 197.47" fill="#fff" stroke="#473729" stroke-miterlimit="10" stroke-width="2"/><polygon points="253.63 196.8 236.19 196.8 236.19 160.65 253.63 166.49 253.63 196.8" fill="#473729"/><path d="M250,170c4.58-1.83,8.47.32,8,6.45a56,56,0,0,0,0,6.48c.19,4.51-.33,7.9-6.34,8-6.39.1-7-3.48-6.74-8.31.05-1-.08-1.92,0-2.88.14-1.67.33-2.14.46-3.46C245.73,172.65,247,171.19,250,170Z" fill="#fff"/><ellipse cx="176.43" cy="297.06" rx="152.53" ry="6.84" fill="#473729"/><ellipse cx="284.9" cy="240.53" rx="16.17" ry="3.69" fill="#d96227"/><path d="M135.65,103.32a38.38,38.38,0,0,1,7.1-1.27c1.18-.14,2.36-.16,3.54-.25s2.36,0,3.54,0,2.36,0,3.55.12,2.36.15,3.53.32a39.35,39.35,0,0,1,7.08,1.38v.2l-14.17,0-14.17-.22Z" fill="#d96227"/><path d="M135.65,127.67c3.61-.36,7.21-.56,10.82-.67s7.21-.18,10.82-.06,7.22.43,10.82.51,7.22,0,10.82-.23,7.22-.33,10.83-.39,7.21-.15,10.82-.12c7.21.08,14.43.33,21.64,1v.2c-7.21.63-14.43.88-21.64,1-3.61,0-7.22-.06-10.82-.13s-7.22-.2-10.83-.39-7.21-.3-10.82-.22-7.21.36-10.82.5-7.21.06-10.82,0-7.21-.32-10.82-.68Z" fill="#d96227"/><path d="M135.65,143c3.61-.36,7.21-.56,10.82-.68s7.21-.17,10.82,0,7.22.43,10.82.5,7.22,0,10.82-.22,7.22-.33,10.83-.39S197,142,200.58,142c7.21.09,14.43.34,21.64,1v.2c-7.21.63-14.43.88-21.64,1-3.61,0-7.22-.06-10.82-.13s-7.22-.2-10.83-.39-7.21-.3-10.82-.23-7.21.37-10.82.51-7.21,0-10.82-.06-7.21-.31-10.82-.67Z" fill="#d96227"/><path d="M135.65,158.33c3.61-.36,7.21-.57,10.82-.68s7.21-.17,10.82-.06,7.22.44,10.82.51,7.22,0,10.82-.22,7.22-.34,10.83-.4,7.21-.15,10.82-.12c7.21.08,14.43.33,21.64,1v.2c-7.21.63-14.43.88-21.64,1-3.61,0-7.22-.05-10.82-.12s-7.22-.2-10.83-.4-7.21-.3-10.82-.22-7.21.36-10.82.51-7.21.05-10.82-.06-7.21-.32-10.82-.67Z" fill="#d96227"/></svg>