<svg xmlns="http://www.w3.org/2000/svg" width="350" height="360.64" viewBox="0 0 350 360.64"><title>icon-donation</title><path d="M44.15,215.13c-4.7,5.36,6.5,5.51,8.27,12.42,9,35.11,21.46,74.62,54.39,89.76,7.32,3.36,15.86,5.24,23.42,2.44,9.15-3.38,14.77-12.69,23.22-17.57,22.46-12.93,54,9.67,75.76-4.42,5.23-3.39,9.15-8.6,14.61-11.62,12.69-7,30.8-.81,41.45-10.65s5.45-27.4,5.26-42.06c-.28-21.29,12-40.36,20-60.07s10.8-45.25-4.79-59.74c-5.7-5.29-13.12-8.31-19.46-12.81-11.9-8.45-19.37-21.59-28.16-33.22S237.51,44.86,223,43.9c-15.59-1-29.32,9.73-44.51,13.38-9.85,2.37-20.15,1.69-30.27,1.2-17.65-.84-35.72-1-52.49,4.61S63.49,81,58.46,97.89c-5.19,17.47.76,38.33-9.92,53.09-6.28,8.67-17.81,14.34-19.38,24.93-2.08,14,15.15,24.93,14.41,39.1" fill="#f3f3ee"/><path d="M295.86,86.7H60.37a7.84,7.84,0,0,0-6.3,6.44V246.75c1.4,4.65,3.86,6.47,8.72,6.47H293c5.73,0,8-1.8,9.29-7.33V94A7.87,7.87,0,0,0,295.86,86.7Zm-4.35,152.76a1.76,1.76,0,0,1-1.22,1.22q-112.7.07-225.39,0a1.64,1.64,0,0,1-1.14-1.14q-.09-69.64,0-139.29A1.7,1.7,0,0,1,65,99.1q56.34-.07,112.66,0h0q56.32,0,112.66,0a1.86,1.86,0,0,1,1.28,1.3Q291.63,169.93,291.51,239.46Z" fill="#473729"/><path d="M214.46,293.67a3.26,3.26,0,0,0-.4-1,5.63,5.63,0,0,0-1.42-1.38,19.64,19.64,0,0,0-2-1.41c-.08-.11-.15-.22-.24-.33-1.37-1.83-2.74-3.67-4.15-5.47a1.53,1.53,0,0,0-1-.53q-27,0-54.1,0a1.53,1.53,0,0,0-1,.53c-1.42,1.8-2.78,3.64-4.16,5.47l-.1.13a19.55,19.55,0,0,0-2.35,1.61,5.44,5.44,0,0,0-1.41,1.38,3,3,0,0,0-.41,1,1.14,1.14,0,0,0,.26,1.08l.08-.05s0,0,0,0a.63.63,0,0,0,.16.29,2.06,2.06,0,0,0,1.13.56q5.67.56,11.36,1c.22,0,.46-.28.69-.44-.23-.16-.45-.46-.69-.47-1.61,0-3.23,0-4.84,0v-.27h56.78v.1c-1.19.06-2.39.09-3.57.19-.23,0-.44.33-.65.51.21.14.43.39.65.4a15.34,15.34,0,0,0,2.71,0c2.67-.36,5.33-.75,8-1.25.19,0,.34-.28.48-.56l.05,0a1,1,0,0,0,.27-.65.22.22,0,0,0,.05-.08h0A1.27,1.27,0,0,0,214.46,293.67Zm-65.91-.93c-.14.57,0,1.2-.07,1.78,0,.25-.44.67-.61.64-1.75-.31-3.5-.7-5.24-1.05-.14,0-.28,0-.42-.06a8.74,8.74,0,0,1,.63-.76c.4-.42.73-.94,1.16-1.4s1.15-1.18,1.76-1.74a.8.8,0,0,0,.41.1C148.21,289.91,149.05,290.64,148.55,292.74Zm60,2.44c-.21,0-.66-.11-.67-.2a28,28,0,0,1-.11-4.39c0-.18,1.54-.22,2.36-.33l.23-.05c.58.55,1.16,1.1,1.7,1.68s.75,1,1.15,1.4c.21.24.42.46.59.69C212.09,294.38,210.34,294.8,208.59,295.18Z" fill="#473729"/><path d="M203.64,255.23c0-.19-.07-.38-.09-.56a2,2,0,0,0-1.54-1.13q-23.83-.09-47.67,0a2,2,0,0,0-1.57,1.07,6.16,6.16,0,0,0-.11,1.12h0l-.1,4.79q-1.05,9.06-1.93,18.13c0,.35.71,1.11,1.09,1.11,8.81.07,17.61.05,26.41.05s17.56,0,26.34-.06a1.85,1.85,0,0,0,1.21-1.36c-.57-5.95-1.24-11.9-1.94-17.84l-.07-4.44a2.62,2.62,0,0,0,0-.88Z" fill="#473729"/><path d="M190.12,295.67H161.81c-1.88.17-3.77.29-5.66.5,1.89.21,3.78.34,5.66.51h34c1.89-.16,3.78-.29,5.66-.5-1.88-.2-3.77-.33-5.66-.5Z" fill="#473729"/><polygon points="251.85 213.88 111.48 216.29 111.14 136.75 250.63 136.99 251.85 213.88" fill="#fff"/><path d="M110.4,211.42c-.38-2.93-.55-5.86-.68-8.79s-.17-5.85,0-8.78.43-5.86.5-8.79,0-5.86-.22-8.79-.35-5.85-.39-8.78-.15-5.86-.13-8.79c.09-5.86.34-11.71,1-17.57h.2c.63,5.86.88,11.71,1,17.57,0,2.93-.06,5.86-.13,8.79s-.2,5.85-.39,8.78-.3,5.86-.23,8.79.37,5.86.51,8.79,0,5.85-.06,8.78-.29,5.86-.67,8.79Z" fill="#473729"/><line x1="111.08" y1="215.45" x2="173.3" y2="177.43" fill="#473729"/><line x1="251.08" y1="215.45" x2="189.43" y2="177.43" fill="#473729"/><path d="M251,211.71c-.38-2.93-.55-5.86-.67-8.79s-.18-5.86-.06-8.79.43-5.85.51-8.78,0-5.86-.23-8.79-.34-5.86-.39-8.78S250,161.92,250,159c.09-5.86.34-11.72,1-17.57h.2c.63,5.85.88,11.71,1,17.57,0,2.93-.06,5.86-.13,8.79s-.2,5.85-.39,8.78-.3,5.86-.23,8.79.37,5.86.51,8.78.06,5.86,0,8.79-.3,5.86-.68,8.79Z" fill="#473729"/><path d="M126.34,145.45c1.16-2.88-3-75.71-3-75.71L227,65.13l5.89,80.32" fill="#fff"/><path d="M126.81,145.63l-.93-.37c.81-2.09-1.38-46.29-3-75.49l0-.51,104.7-4.65,0,.48,5.9,80.32-1,.07-5.86-79.83L123.86,70.22C124.4,79.72,128,142.79,126.81,145.63Z" fill="#473729"/><path d="M251.34,194.5h0V173.39c0-.14-.54-36.58,0-.43-.1.14-.05.3-.05.45-.06,10.88.11,21.77-.1,32.65,0,1.11,0,2.22,0,3.33,0,.38,0,.75,0,1.13s-.09.42-.23.49a3.35,3.35,0,0,1-1.93,3.7c.09.07.18.15.13.28s-.21.13-.34.13h-.58q-67,0-134.08,0a3.54,3.54,0,0,0-2.48.77c-.14.11-.32.32-.51.22s-.12-.38-.12-.58c0-.36,0-6.21,0-14.48,0,6.27,0,10.42,0,10.4a2,2,0,0,0,0,.24c0,1.35,0,2.71,0,4.06,0,.51.06.55.58.55h15.27a2,2,0,0,1,.73.09c1,.37,2-.41,3.09-.25l.92.14c1.43.25,2.87.37,4.31.54.91.1,1.82.08,2.73.21a8.32,8.32,0,0,0,1.65.17c1.11-.08,2.21.13,3.31.16.84,0,1.69,0,2.54.12,1.21.13,2.43.17,3.65.21s2.18,0,3.27.11c.56.06,1.11,0,1.66,0a9.21,9.21,0,0,0,2.57.12l.14,0a14.44,14.44,0,0,0,1.86,0c1.09,0,2.18,0,3.27.08.8,0,1.59.12,2.39.09.63,0,1.26,0,1.9,0,1.72.05,3.45,0,5.18.09s3.75,0,5.63,0c3-.05,6.06-.06,9.1.06,1.93.07,3.88,0,5.82-.08,1.27-.07,2.54.07,3.81-.09a2.33,2.33,0,0,1,.83,0,1.73,1.73,0,0,0,.68,0c.52-.08,1,0,1.56-.08,1.19-.05,2.37-.09,3.56-.1a31.76,31.76,0,0,0,4.47-.15c.61-.1,1.21,0,1.81,0a8.55,8.55,0,0,1,.87-.09c1.4,0,2.8,0,4.2-.1s2.63-.23,4-.22a7.55,7.55,0,0,0,1.26,0,13.48,13.48,0,0,1,2.2-.15,20,20,0,0,0,2.18-.19c.36,0,.71-.1,1.07-.1,1,0,2-.15,3-.24s2.2-.28,3.29-.46c.85-.14,1.7.87,2.52.54a5.93,5.93,0,0,1,2.37-.46c4.8,0,9.6,0,14.4,0,.82,0,.82,0,.82-.85Z" fill="#473729"/><path d="M111.14,136.75l.17.1,6.32,4.11,8.94,5.82,6.31,4.12,10.76,7,4.55,3,5.48,3.59,5,3.3c2.76,1.82,5.54,3.64,8.29,5.48,2.05,1.39,4.14,2.74,6.15,4.19a.59.59,0,0,0,.71,0c1.09-.59,2.21-1.14,3.34-1.64a21.66,21.66,0,0,1,3.11-1.19,3.61,3.61,0,0,1,1.93,0,18.49,18.49,0,0,1,2.39.88c1.3.56,2.59,1.16,3.84,1.83a.65.65,0,0,0,.77,0c.71-.52,1.44-1,2.17-1.5l6.13-4.13c1.85-1.23,3.71-2.44,5.56-3.66,2.13-1.4,4.24-2.82,6.37-4.22q3.89-2.55,7.79-5.08l6-3.94,10.31-6.68,6.55-4.3q5.26-3.43,10.55-6.85c.15-.1.45-.19.4-.35s-.36,0-.55,0H233.93c-1,0-.86,0-.93-1a.22.22,0,0,1,.23-.25l.39,0h5.78c.09,0,.22,0,.24-.11s-.09-.13-.16-.17c-.61-.4-1.23-.79-1.85-1.18-1.62-1-3.2-2.08-4.84-3.07a1.16,1.16,0,0,1-.58-.86c-.14-.79-.31-1.57-.47-2.35q-.08-.33-.18-.66c0-.08-.07-.2-.2-.17s-.09.13-.09.21c0,.29,0,.58,0,.88.05.69.13,1.39.16,2.09,0,1.11.17,2.21.23,3.32.07,1.33.24,2.66.35,4s.22,2.73.34,4.1c.14,1.67.25,3.35.43,5a.59.59,0,0,1-.34.67c-1.67,1-3.32,2-4.94,3-1.39.9-2.84,1.72-4.22,2.65-1.11.74-2.27,1.41-3.39,2.14l-4.64,3c-1.07.69-2.13,1.39-3.19,2.1l-4.88,3.26-2.35,1.59c-1.17.77-2.35,1.53-3.5,2.33-1.46,1-2.89,2-4.33,3-1.27.89-2.54,1.77-3.8,2.67-1.5,1.07-3,2.11-4.48,3.24a1.13,1.13,0,0,1-1.24.11c-.76-.36-1.47-.78-2.21-1.16-.55-.27-1.13-.44-1.68-.69a5.58,5.58,0,0,0-4.51-.13,28.28,28.28,0,0,0-4.17,2.05,1.23,1.23,0,0,1-1.54,0l-.2-.14c-.69-.52-1.39-1-2.09-1.53-1.37-1-2.73-2-4.11-2.92l-4.54-3.15c-1.15-.79-2.3-1.6-3.48-2.36-.89-.58-1.75-1.19-2.64-1.78l-2.94-1.93c-1.06-.7-2.12-1.41-3.19-2.09-.7-.45-1.4-.9-2.09-1.36s-1.52-1-2.26-1.46c-1.29-.86-2.62-1.66-3.93-2.48q-2.29-1.44-4.6-2.87c-1.54-.95-3.09-1.9-4.64-2.83s-2.9-1.76-4.41-2.53a1.37,1.37,0,0,1-.81-1.27c0-.07,0-.13,0-.2-.07-1-.14-2-.22-2.92l-.27-3.17c-.07-.71-.13-1.43-.2-2.14,0-.37-.08-.4-.45-.42H111.18a.13.13,0,0,0-.09,0C111.06,136.68,111.1,136.72,111.14,136.75Z" fill="#473729"/><path d="M123,135.3h3.07c.45,0,.51-.07.52-.51s-.12-1.07-.12-1.61c0-.28-.13-.33-.38-.17-1.06.67-2.11,1.35-3.16,2-.06.05-.15.1-.1.19S122.92,135.3,123,135.3Z" fill="#473729"/><path d="M236.71,195.68v26.95a1.9,1.9,0,0,0,2.58,1.77l9.25-4.88,3.88,9.56a.9.9,0,0,0,1.28.41l3.92-2.29A.91.91,0,0,0,258,226l-4.65-9.29,7.39-3.29a1.9,1.9,0,0,0,0-3.23l-21.54-15.92A1.65,1.65,0,0,0,236.71,195.68Z" fill="#d96227"/><path d="M134.53,90.12a39.32,39.32,0,0,1,7-1.76c1.17-.23,2.35-.33,3.52-.5s2.36-.21,3.54-.31,2.36-.1,3.55-.12,2.37,0,3.56.06a39.26,39.26,0,0,1,7.16.89l0,.2-14.17,1-14.17.77Z" fill="#d96227"/><path d="M134.17,112c3.56-.58,7.14-1,10.72-1.34s7.16-.61,10.75-.72,7.2,0,10.8-.15,7.17-.5,10.74-.89,7.15-.78,10.74-1.06,7.16-.59,10.75-.78c7.18-.36,14.37-.55,21.58-.37v.2c-7.13,1.08-14.29,1.77-21.46,2.29-3.58.25-7.18.39-10.77.54s-7.18.24-10.78.27-7.19.15-10.77.44-7.16.81-10.73,1.17-7.17.5-10.77.61-7.19.13-10.8,0Z" fill="#d96227"/><path d="M134.17,125.83c3.56-.58,7.14-1,10.72-1.34s7.16-.61,10.75-.72,7.2,0,10.8-.15,7.17-.49,10.74-.89,7.15-.78,10.74-1,7.16-.6,10.75-.79c7.18-.36,14.37-.55,21.58-.36v.2c-7.13,1.07-14.29,1.76-21.46,2.29-3.58.24-7.18.38-10.77.53s-7.18.24-10.78.27-7.19.15-10.77.44-7.16.81-10.73,1.17-7.17.5-10.77.61-7.19.13-10.8,0Z" fill="#d96227"/><path d="M135.17,140.08c3.56-.58,7.14-1,10.72-1.33s7.16-.62,10.75-.72,7.2,0,10.8-.16,7.17-.49,10.74-.88,7.15-.78,10.74-1.06,7.16-.59,10.75-.79c7.18-.36,14.37-.55,21.58-.36v.2c-7.13,1.07-14.29,1.76-21.46,2.29-3.58.25-7.18.39-10.77.54s-7.18.24-10.78.27-7.19.14-10.77.44-7.16.8-10.73,1.17-7.17.49-10.77.6-7.19.13-10.8,0Z" fill="#d96227"/></svg>