<svg xmlns="http://www.w3.org/2000/svg" width="22" height="22" viewBox="0 0 22 22"><title>icon</title><polygon points="1.73 16.16 1.73 16.17 1.48 16.27 1.73 16.16" fill="#d96227"/><path d="M7.8,10.23c0,.28-.73.5-1.63.5s-1.63-.22-1.63-.5.73-.49,1.63-.49S7.8,10,7.8,10.23Z" fill="#d96227"/><polygon points="1.88 16.1 1.73 16.17 1.73 16.16 1.88 16.1" fill="#d96227"/><path d="M21.49,8.71a.6.6,0,0,0-.71-.22l-14.6,5.9L1.73,16.17l-.25.09h0l-.09,0a.32.32,0,0,0-.2.32.3.3,0,0,0,.4.24l.14,0v.65c0,.77,2.08,1.4,4.61,1.4S11,18.24,11,17.47V13.52L21.21,9.61A.6.6,0,0,0,21.49,8.71Z" fill="#d96227"/><path d="M19,2.16a.59.59,0,0,0-.76-.08L8.23,9a13.93,13.93,0,0,0-2-.15c-2.53,0-4.46.62-4.46,1.39v3.33l-1.19.81a.3.3,0,0,0-.12.36.31.31,0,0,0,.45.15l.86-.56v.87c1-.47,7.74-3,9.15-3.66l.07,0V10.23c0-.38-.66-.73-1.47-1L18.84,3A.58.58,0,0,0,19,2.16Zm-9,8.07c0,.64-1.69,1.15-3.77,1.15H6.09a11.59,11.59,0,0,1-1.21-.07c-1.45-.16-2.48-.58-2.48-1.08S4.09,9.08,6.17,9.08a11.26,11.26,0,0,1,1.72.13l.3,0h0l.27.06h0l.26.06L9,9.47C9.58,9.67,9.94,9.94,9.94,10.23Z" fill="#d96227"/></svg>