<svg xmlns="http://www.w3.org/2000/svg" width="22" height="22" viewBox="0 0 22 22"><title>icon</title><path d="M15.49,11a4,4,0,0,1-.31,1.55,4.3,4.3,0,0,1-.89,1.3,3.91,3.91,0,0,1-1.32.86,4,4,0,0,1-1.54.27,4.14,4.14,0,0,1-2.79-1.19,4.77,4.77,0,0,1-.51-.6,4.5,4.5,0,0,1-.39-.67A4,4,0,0,1,7.4,11a3.78,3.78,0,0,1,.3-1.54l.38-.69a4,4,0,0,1,1.83-1.4,4.26,4.26,0,0,1,1.5-.28h0a3.5,3.5,0,0,1,.77.07,4.55,4.55,0,0,1,.74.2,4.08,4.08,0,0,1,1.32.82,3.84,3.84,0,0,1,.91,1.28A4.11,4.11,0,0,1,15.49,11Z" fill="#d96227"/><path d="M11.42,4.52A6.48,6.48,0,1,0,17.9,11,6.48,6.48,0,0,0,11.42,4.52Zm4.27,8.25a4.86,4.86,0,0,1-1,1.48,4.68,4.68,0,0,1-1.51,1,4.51,4.51,0,0,1-1.64.31h-.11a4.7,4.7,0,0,1-3.17-1.36,4,4,0,0,1-.57-.67,4.51,4.51,0,0,1-.44-.77A4.37,4.37,0,0,1,6.85,11a4.22,4.22,0,0,1,.34-1.76l.06-.13.37-.65a4.24,4.24,0,0,1,.6-.68,4.46,4.46,0,0,1,1.5-.93,4.88,4.88,0,0,1,.84-.24,6.25,6.25,0,0,1,.87-.08,4.24,4.24,0,0,1,.86.08,6,6,0,0,1,.85.23,4.91,4.91,0,0,1,1.5.93A4.38,4.38,0,0,1,16,11,4.62,4.62,0,0,1,15.69,12.77Z" fill="#d96227"/><path d="M4.16,6.34a.45.45,0,0,0-.36,0,.29.29,0,0,0-.2.26V9.18s-.05.06-.12.06-.12,0-.13,0L3.22,6.6A.31.31,0,0,0,3,6.34a.43.43,0,0,0-.35,0,.31.31,0,0,0-.21.26L2.33,9.2s-.06,0-.13,0-.12,0-.13-.06V6.6a.29.29,0,0,0-.2-.26.45.45,0,0,0-.36,0,.32.32,0,0,0-.21.24A19.56,19.56,0,0,0,1.05,9a2.42,2.42,0,0,0,.29,1.2,1.76,1.76,0,0,0,.81.72l-.21,4.37a.42.42,0,0,0,.11.32.37.37,0,0,0,.28.14h1a.38.38,0,0,0,.28-.14.41.41,0,0,0,.1-.32l-.21-4.37a1.76,1.76,0,0,0,.81-.72A2.32,2.32,0,0,0,4.62,9a19.56,19.56,0,0,0-.25-2.37A.32.32,0,0,0,4.16,6.34Z" fill="#d96227"/><path d="M20.84,6.43a.35.35,0,0,0-.27-.13,1.65,1.65,0,0,0-1.08.55,3.62,3.62,0,0,0-.87,1.38A3.21,3.21,0,0,0,18.46,10a3.29,3.29,0,0,0,1.07,1.82l-.24,3.39a.45.45,0,0,0,.1.33.33.33,0,0,0,.28.15h.9a.35.35,0,0,0,.27-.13.44.44,0,0,0,.11-.31V6.74A.44.44,0,0,0,20.84,6.43Z" fill="#d96227"/></svg>