<svg xmlns="http://www.w3.org/2000/svg" width="262.54" height="283.03" viewBox="0 0 262.54 283.03"><path d="M94.18,68.66c-2.12-.89-3.49.71-5,1.48-.33.16,0,1.55,0,2.54C91.44,71.81,93.7,71.39,94.18,68.66Z" fill="#e7e4dc"/><path d="M89.29,78.75A17.31,17.31,0,0,1,92.09,77c1.19-.5,1-1.09.49-1.88L89,78.35Z" fill="#e7e4dc"/><path d="M94.34,71.49a15.24,15.24,0,0,1-2.67,1.24c-3.15.74-3.16.69-3.43,3.66l4.33-1.31s0,0,0,0l0,0h-.08a5.51,5.51,0,0,0,1.63-.88C94.88,73.34,96,72.33,94.34,71.49Z" fill="#e7e4dc"/><path d="M208.73,177c.15-2.3.58-4.57.64-6.87,0-1.12.4-13.94.45-14.24.6-3.74,2-16.65,2.41-19.32.47-3.19,4-16.37,4.72-19.88s1.07-7.41,1.51-11.13c.24-2-.47-16.67-1.17-22-.42-3.22-.66-6.69-2-9.52-2.39-4.84-3.43-10.34-7-14.59-.53-.62-4.89-7.17-6.85-9.58-1.69-2.08-3.73-3.86-5.46-5.9s-12.37-9.9-15.78-10.05c-2.87-.12-13.25-1.19-15.49-.76-5.29,1-16.52,8.06-17.48,9a40.63,40.63,0,0,0-9.3,12.5c-1.12,2.36-1.93,4.87-3,7.5a39.7,39.7,0,0,1-1.72-5.31c-.77-4.39-3.76-7.7-5.4-11.67a28.53,28.53,0,0,0-3.57-5.73A37.26,37.26,0,0,0,121,36.17c-2.13-2.26-16.93-6.19-20.77-6-3,.16-15.69,3.15-18.37,4.22a43.75,43.75,0,0,0-18.08,13A121.39,121.39,0,0,0,55.41,60c-4.4,7.1-6.74,15-8.68,23.07-.49,2-2.47,11-2.54,12.77-.21,5.79-.38,11.55.72,17.29.66,3.45.91,7,1.7,10.4.35,1.52,2,2.76,2.31,4.28.39,1.72,1.25,12.47.55,15.14-1.42,5.42-.23,14.93.82,19.07.85,3.32,4.39,10,4.4,10.3a38.42,38.42,0,0,0,.11,3.88c.53,3.75,1.21,7.47,1.75,11.21.5,3.55,1,7.09,1.29,10.66.17,2.25.58,11.76,1.14,14.19q2.16,9.38,4.53,18.7a88.38,88.38,0,0,0,4.75,8.83c2.34,2.28,4.62,4.64,7.14,6.7,3,2.46,6.36,4.67,10.26,5.37,4.26.76,8.61,1.49,13,.62,2.76-.54,5.86-.64,8.15-2a41.18,41.18,0,0,0,8.51-7.39c4.08-4.39,5.89-10.15,7.75-15.64,1.34-4,1.34-8.42,1.7-12.67.26-3.06.17-6.16.17-9.24,0-4,.08-8-.11-11.94-.14-2.8.67-23.24,1.47-25.52a108.42,108.42,0,0,0,5.49-22.38c.36-2.86.31-5.78.55-8.66.38-4.46.83-8.91,1.26-13.36,0-.12,2.64,10.36,3.26,14.46.85,5.65,2,20.86,1.89,22-1.29,9.73-2.65,19.46-3.85,29.2-.65,5.25-1.12,10.52-1.48,15.8-.26,3.75-1,7.51.12,11.28A66.36,66.36,0,0,0,144,238.26a16.07,16.07,0,0,0,5,4.47c7.14,3.8,14.93,5.67,22.85,7.1a21.35,21.35,0,0,0,17.27-4.31c6.69-5,11.91-11.28,14.58-19.33a86.58,86.58,0,0,0,2.82-11.34,78.65,78.65,0,0,0,1.36-11.22c.18-4.27-.2-8.56-.15-12.84,0-1.92.58-3.82.72-5.73C208.58,182.36,208.55,179.65,208.73,177ZM70.37,173.64a14.91,14.91,0,0,1-2.28,5.91c-1,1.42-3.09.56-4.66-1.62-1.46-2-3-4-4.3-6.14a101.14,101.14,0,0,1-4.59-11.22c-.77-4.44-1.64-8.89-2-13.37a35.87,35.87,0,0,1,.59-8.76c.7-4.14,1.7-8.23,2.71-12.31a13.16,13.16,0,0,1,1.54-2.91c.33.13.17,2.2.07,2.86-.63,3.94.48,8.21,2.22,12.3,1,2.29,2.25,4.45,3.27,6.73a73.21,73.21,0,0,1,4,9.68c1.28,4.45,2,9.06,2.9,13.62A15.4,15.4,0,0,1,70.37,173.64Zm58.23-31.85c-1.2,8.87-1.92,17.93-5.33,26.39a37.17,37.17,0,0,1-2.58,6,8,8,0,0,1-6.1,3.71c-.83.08-2.21-1.25-2.62-2.23a34.91,34.91,0,0,1-2.6-8.18c-.27-1.8.45-3.84,1.09-5.65,1-2.74,2.18-5.39,3.36-8,2.42-5.4,4.9-10.77,7.32-16.17,1.28-2.85,2.42-5.76,3.76-8.58a16.16,16.16,0,0,1,3.31-4.25C128.4,130.46,129.35,136.24,128.6,141.79Zm-4.1-31.29c1.6,2,2.84,3.92,1.9,6.55-1.36,3.84-2.56,7.73-3.87,11.59a12.33,12.33,0,0,1-1.14,1.88C120.13,123.23,122.46,116.91,124.5,110.5Zm5.64,2.72c-.42-.79-1.48-2.7-1.87-3.46a125.55,125.55,0,0,0-8.25-13c-3.38-4.76-8-8.1-12.69-11.41C105,83.69,96.55,79.45,94.74,78c-2.22,1.73-4.83,3.8-7.47,5.82-1,.8-8.69,6.82-9.82,7.82-3.24,2.9-6.8,5.51-9.61,8.77s-5,7.22-7.37,10.9c-1.71,2.63-3.39,5.27-5,8-.71,1.17-1.19,2.49-1.81,3.72a11,11,0,0,1-1.51,2.32c-.89,2.36-1.71-7.52,2.23-17.09,1.09-2.64,8.47-15,12.19-20.23C70.67,82.2,75,76.4,81.09,72.23c3-2.06,4.84-3.76,8-5.76A38.32,38.32,0,0,0,93.89,63c1.87,1.4,3.13,2.21,4.55,3.31,3.26,2.52,6.49,5.09,9.65,7.74,2.57,2.16,5.08,4.41,7.49,6.76a40.54,40.54,0,0,1,10.14,15c1.42,3.46,2.44,7.1,3.52,10.7C129.75,108.26,130.36,113.16,130.14,113.22Zm4.46-5a37,37,0,0,0-.33,8.46,11.79,11.79,0,0,1-.41,3.88c-.15-1.08-.52-6.48-1.05-8.1a43.43,43.43,0,0,1-1.13-5.49c-.45-2.31-1-4.61-1.28-7a16.51,16.51,0,0,1,1.28-8.27c.83-2,1.38-4.11,2.06-6.17.15-.45.31-.9.47-1.35l.36,0a10.71,10.71,0,0,1,.13,2,23.73,23.73,0,0,0,.78,9.51C136.74,99.92,135.47,104.11,134.6,108.19Zm21.79,70a7.32,7.32,0,0,1-6.1-5.16c-1.37-4.1-2.73-8.21-3.78-12.4s-1.64-8.27-2.47-12.4c-.7-3.42-1.69-6.81-2.13-10.27-.54-4.16-.66-8.37-.93-12.57a11.64,11.64,0,0,1,.15-1.66l.45,0A50.36,50.36,0,0,0,143,129c1.17,3,2.18,6.09,3.91,8.73a47.92,47.92,0,0,1,6.51,15.76c.36,1.6.93,3.14,1.28,4.74.62,2.88,1.15,5.78,1.69,8.68a31.26,31.26,0,0,0,.53,3.53C157.74,173.1,156.92,175.6,156.39,178.22Zm47.74-7.69c-.81,2.65-1.68,5.28-2.65,7.87a21,21,0,0,1-2,3.76,2.56,2.56,0,0,1-.89.85h-.07v0a2.61,2.61,0,0,1-3.15-.85c-2.84-3.41-2.8-7.44-2.5-11.51.49-6.65,2.77-12.86,4.85-19.13,1.88-5.65,4.51-11.12,4.65-17.25a13.12,13.12,0,0,1,.61-2.52c.23.65.34.92.41,1.19.54,2.32,1.27,4.62,1.58,7,.64,5,1.07,10,1.58,15a9.61,9.61,0,0,0,0,1.51C208,161.53,205.52,165.94,204.13,170.53Zm1.12-51.13c-1.87-3.55-3.87-7-5.91-10.48-1.63-2.76-3.31-5.51-5.14-8.15a68.63,68.63,0,0,0-4.41-5.39c-3.27-3.79-6.51-7.61-9.86-11.33s-7.66-4.34-11.86-1.77c-5.93,3.61-11.75,7.4-17.52,11.26a40.77,40.77,0,0,0-4.44,4.1c-2,1.81-4,3.59-6.35,5.66a19,19,0,0,1,.83-4c1.84-4,3.17-8.6,6-11.87a78.6,78.6,0,0,1,9.82-10.12c1.66-1.35,6-5.26,6.72-5.73,3.66-2.38,7.39-4.67,11.1-7L176.86,63c1.18,1.52,2.36,3.11,3.64,4.63s2.71,3.07,4.12,4.55c.51.55,5.88,5.82,7.64,8.24a146.6,146.6,0,0,1,11.93,21.23c1.6,4,2.62,9.79,3.54,14a95,95,0,0,1,1.16,10.43l-.65.14C207.25,123.92,206.39,121.59,205.25,119.4Z" fill="#e7e4dc"/><path d="M175.72,71.11a4.46,4.46,0,0,0-1.23,0c.4-.45.64-.61.73-.82.21-.55.35-1.12.52-1.67-.58-.08-1.38-.42-1.72-.16a14.16,14.16,0,0,0-2.19,2.37,15.73,15.73,0,0,0-1.14,1.66c-.5.77-1,1.55-1.6,2.54l2.87.26-3.32,2.6c1,.36,1.93,1,2.32.77,1.52-.9,3.32-1.82,4.11-3.23.43-.75.58-1.68,1.4-2.33a1.61,1.61,0,0,0,.57-1.36C176.92,71.44,176.2,71.26,175.72,71.11Z" fill="#e7e4dc"/></svg>