<svg xmlns="http://www.w3.org/2000/svg" width="227.7" height="197.23" viewBox="0 0 227.7 197.23"><title>Icons</title><path d="M126.58,63.91a17.93,17.93,0,0,1-1.89.78A20.35,20.35,0,0,0,126.58,63.91Z" fill="#da6118"/><path d="M138,42.93a16.05,16.05,0,0,0-1.22-2.68c-.23-.4-.48-.78-.73-1.16.25.37.5.76.72,1.16A15.34,15.34,0,0,1,138,42.93Z" fill="#da6118"/><path d="M128.27,35.5a3.28,3.28,0,0,1-1.18,1.56A3.28,3.28,0,0,0,128.27,35.5Z" fill="#da6118"/><path d="M112.82,64.75a12.25,12.25,0,0,1-2.08-1.23A12.94,12.94,0,0,0,112.82,64.75Z" fill="#da6118"/><path d="M122.4,31.09h0c-.09.44-.17.85-.23,1.22C122.22,31.94,122.3,31.53,122.4,31.09Z" fill="#da6118"/><path d="M128.67,32.91c-.09.5-.14.9-.17,1.18,0-.28.08-.68.18-1.18Z" fill="#da6118"/><path d="M105.86,38.84l.15-.26a4.92,4.92,0,0,0-.24.45c-.1.17-.18.33-.27.51C105.62,39.3,105.73,39.07,105.86,38.84Z" fill="#da6118"/><path d="M186.39,74.71a0,0,0,0,1,0,0,7.29,7.29,0,0,0-1.84-2.24c-12.07-9.77-27.2-15.87-41.74-19.67a19.12,19.12,0,0,0-2-14.84,23,23,0,0,0-10.53-9.44A11.7,11.7,0,0,1,136.56,23a3.27,3.27,0,0,0-2.28-6.12,18.11,18.11,0,0,0-10.39,9.71,22.82,22.82,0,0,0-12.7,1.56,19.09,19.09,0,0,0-10.75,11.51,24.92,24.92,0,0,0-1.17,7l-.66,0A18.41,18.41,0,0,0,83.26,54L42.09,108.86a1.86,1.86,0,0,0-.14.2,9.45,9.45,0,0,0-1.42,5c.15,18.19,0,55.53,0,61.85a4.51,4.51,0,0,0,1.7,3.5,5.28,5.28,0,0,0,4.41,1c8.95-1.88,40.6-10.8,71.22-19.43,28-7.89,56.9-16,64.67-17.71a5.64,5.64,0,0,0,4.66-5.39V77.84A6.7,6.7,0,0,0,186.39,74.71Zm-38-3.94a2.49,2.49,0,0,1,.58-1.24l3.53-3.93.39-.44,0,0a2.34,2.34,0,0,1,3.45,3.16l-3.93,4.37a2.32,2.32,0,0,1-3.23.22s0,0-.06-.05a2.44,2.44,0,0,1-.27-.29s0,0-.05,0a1.09,1.09,0,0,1-.08-.15A2.29,2.29,0,0,1,148.37,70.77ZM103.93,46.28a.31.31,0,0,1,0-.09,19.64,19.64,0,0,1,.93-5.06c.12-.37.25-.72.4-1.08.08-.16.16-.34.23-.51s.17-.34.27-.51a1.11,1.11,0,0,1,.09-.19l.15-.26a5.58,5.58,0,0,1,.32-.52,7.65,7.65,0,0,1,.64-.93,15.06,15.06,0,0,1,6.09-4.71,17.49,17.49,0,0,1,1.7-.65,2,2,0,0,0,.26-.06A18,18,0,0,1,120.2,31a20.47,20.47,0,0,1,2.2.14c-.1.44-.18.85-.23,1.22-.14.86-.19,1.49-.21,1.79,0,.11,0,.18,0,.21a4.23,4.23,0,0,0,.12,1,3.4,3.4,0,0,0,.12.34.49.49,0,0,1,0,.11,2.75,2.75,0,0,0,.31.52,3.06,3.06,0,0,0,.21.29,3.27,3.27,0,0,0,2.37,1.14h.09a3.29,3.29,0,0,0,1.88-.61,3.26,3.26,0,0,0,1.18-1.57,3.3,3.3,0,0,0,.21-1,3.43,3.43,0,0,1,0-.4c0-.27.07-.68.16-1.18A18.41,18.41,0,0,1,136,39.09c.25.38.49.76.73,1.16A17.32,17.32,0,0,1,138,42.93a14.1,14.1,0,0,1,.16,9.18,17.39,17.39,0,0,1-4,6.28,25.5,25.5,0,0,1-5.73,4.54c-.61.36-1.24.68-1.86,1a17.93,17.93,0,0,1-1.89.78,16.14,16.14,0,0,1-10.59.57,12.19,12.19,0,0,1-1.28-.51,12.94,12.94,0,0,1-2.08-1.23l-.6-.48-.45-.4a12.73,12.73,0,0,1-1.39-1.46l-.49-.63c-.16-.22-.31-.43-.45-.65s-.28-.43-.41-.65-.26-.43-.37-.64a20.18,20.18,0,0,1-1.41-3.22,24.31,24.31,0,0,1-1.25-8.85C103.93,46.45,103.92,46.37,103.93,46.28Zm30.26,31.88a2,2,0,0,1-.65.39A2.3,2.3,0,0,1,131,78a1.42,1.42,0,0,0-.13-.12l-3.82-4.46a2.33,2.33,0,1,1,3.54-3l3.82,4.47A2.32,2.32,0,0,1,134.19,78.16Zm-12.53,6.49a2.3,2.3,0,0,1-.72,2.5,2.12,2.12,0,0,1-.78.43l-3.77,1.23-1.81.59-.26.06a2.4,2.4,0,0,1-.46.05,2.34,2.34,0,0,1-2.13-1.39l-.09-.22c0-.06,0-.11,0-.17a2.34,2.34,0,0,1,.68-2.26,2.53,2.53,0,0,1,.42-.31,2.19,2.19,0,0,1,.44-.2l1.4-.45,4.19-1.35a2.31,2.31,0,0,1,2.62.88c0,.07.09.11.13.18h0A2,2,0,0,1,121.66,84.65ZM98,80l.14-.2.21-.23L102,75.39a2.31,2.31,0,0,1,.93-.62,2.24,2.24,0,0,1,.68-.15,2.31,2.31,0,0,1,2.43,2.65s0,0,0,0a1.44,1.44,0,0,1-.09.4l-.06.12a1.51,1.51,0,0,1-.13.29c0,.06-.07.09-.1.14a1.37,1.37,0,0,1-.18.24l-.17.2-3.75,4.18a2.35,2.35,0,0,1-1.73.77,2.38,2.38,0,0,1-1.35-.43c-.07-.06-.15-.1-.21-.16a2.34,2.34,0,0,1-.56-.74s0-.1,0-.14A2.3,2.3,0,0,1,98,80ZM87.78,60.4a2.27,2.27,0,0,1,.89-.72,2.54,2.54,0,0,1,.44-.15h.09a2.32,2.32,0,0,1,2.54,1.33l2.42,5.36A2.34,2.34,0,0,1,92,69.5a2.34,2.34,0,0,1-2.12-1.38L89,66,87.5,62.76A2.32,2.32,0,0,1,87.78,60.4Zm-11.29,20a2.33,2.33,0,0,1,3.29.25L83.6,85.1a2.33,2.33,0,0,1-.25,3.29,1.7,1.7,0,0,1-.23.17,2.41,2.41,0,0,1-1.29.39,2,2,0,0,1-.6-.09,2.2,2.2,0,0,1-1.17-.72l-3.82-4.45A2.33,2.33,0,0,1,76.49,80.4Zm-14.65,15s0,0,0,0h0a2,2,0,0,1,.42-.19l1.89-.61,3.69-1.21a2.28,2.28,0,0,1,.93-.1h0a2.33,2.33,0,0,1,2,1.59l0,.12a2.31,2.31,0,0,1-.17,1.66,2.25,2.25,0,0,1-1.36,1.16l-5.58,1.81a1.11,1.11,0,0,1-.29.07,2.18,2.18,0,0,1-.43,0,2.33,2.33,0,0,1-2.22-1.61A2.31,2.31,0,0,1,61.84,95.41ZM181.93,79.14v32.75a2.68,2.68,0,0,0-1.84-.19c-5.82,1.59-9,.59-12.76-.57-4-1.22-8.41-2.61-15.69-.63s-10.45,5.44-13.22,8.48c-2.64,2.89-4.91,5.38-10.73,7s-9,.58-12.75-.58c-3.93-1.22-8.4-2.61-15.68-.63s-10.43,5.42-13.2,8.47c-2.63,2.88-4.9,5.37-10.71,7s-9,.58-12.74-.58c-4-1.22-8.4-2.61-15.68-.63a2.59,2.59,0,0,0-1.12.64c0-6.56,0-21.41,0-24.58Z" fill="#da6118"/><path d="M106.07,77.27s0,0,0,0" fill="#da6118" stroke="#000" stroke-linecap="round" stroke-linejoin="round" stroke-width="0"/><path d="M106,77.71l-.06.12" fill="#da6118" stroke="#000" stroke-linecap="round" stroke-linejoin="round" stroke-width="0"/><path d="M105.78,78.12c0,.06-.07.09-.1.14" fill="#da6118" stroke="#000" stroke-linecap="round" stroke-linejoin="round" stroke-width="0"/><path d="M97.73,82.32s0-.1,0-.14" fill="#da6118" stroke="#000" stroke-linecap="round" stroke-linejoin="round" stroke-width="0"/><path d="M112.7,85.16a2.53,2.53,0,0,0-.42.31" fill="#da6118" stroke="#000" stroke-linecap="round" stroke-linejoin="round" stroke-width="0"/><path d="M148.81,72.48a1.09,1.09,0,0,1-.08-.15" fill="#da6118" stroke="#000" stroke-linecap="round" stroke-linejoin="round" stroke-width="0"/><path d="M89.11,59.53h0" fill="#da6118" stroke="#000" stroke-linecap="round" stroke-linejoin="round" stroke-width="0"/><path d="M61.86,95.39s0,0,0,0" fill="#da6118" stroke="#000" stroke-linecap="round" stroke-linejoin="round" stroke-width="0"/><path d="M103.94,46.19a.31.31,0,0,0,0,.09" fill="#da6118" stroke="#fff" stroke-linecap="round" stroke-linejoin="round" stroke-width="0"/></svg>