<svg xmlns="http://www.w3.org/2000/svg" width="497.26" height="283.03" viewBox="0 0 497.26 283.03"><path d="M117.57,220a35.32,35.32,0,1,0-38.81,1c-21.65.77-34.28,1.69-34.28,2.68,0,2.65,90.55,4.8,202.25,4.8S449,226.38,449,223.73c0-1.24-19.77-2.37-52.23-3.22a35.34,35.34,0,1,0-37.82-.78c-32.11-.51-70.69-.8-112.21-.8C197.62,218.93,152.6,219.34,117.57,220ZM97.39,169.15a21.9,21.9,0,1,1-21.9,21.9A21.9,21.9,0,0,1,97.39,169.15Zm281.07-.76a21.9,21.9,0,1,1-21.9,21.9A21.9,21.9,0,0,1,378.46,168.39Z" fill="#e7e4dc"/><path d="M127.37,65.6c28.87-2.27,105-4.92,129.94-5.1,39.35-.28,103.05-.85,153.15,0,21.77.37,14.74-3.65-17.49-5.9l-.34,0c-5.66-.57-4-5.66-2.55-8.21s8.49-5.66,1.13-5.66-11,3.11-14.72,7.64a14.39,14.39,0,0,1-8.77,5.09c-63.42-1.69-142.69-2-204.12,3.12C133.05,59.07,98.49,67.86,127.37,65.6Z" fill="#e7e4dc"/><path d="M378.46,209.69a19.54,19.54,0,1,0-19.54-19.54A19.53,19.53,0,0,0,378.46,209.69Zm-6.1-15.76a1.7,1.7,0,1,1,1.7,1.7A1.7,1.7,0,0,1,372.36,193.93Zm12.47,1.42a1.61,1.61,0,1,1,1.61-1.61A1.61,1.61,0,0,1,384.83,195.35ZM383,187.74a1.61,1.61,0,1,1,1.6,1.61A1.6,1.6,0,0,1,383,187.74Zm10.88,12.45c-.43-.15-3.9-1.28-4.53-2.06s-2.34-2.12-2.27-2.83a30.24,30.24,0,0,1,1.42-3.83,8.36,8.36,0,0,1,2.55-.35,36,36,0,0,1,5.38.57C396.54,195.79,394.34,200.33,393.92,200.19Zm-10.77-21a9.07,9.07,0,0,1,2.7-3.9c3.89,1.07,7.5,4.68,6.94,5.39s-2.91,3.47-3.83,3.82-2.34.85-2.9.57-3.05-2-3.12-2.69A21.4,21.4,0,0,1,383.15,179.15Zm-4,4.34a1.56,1.56,0,1,1-1.56,1.56A1.55,1.55,0,0,1,379.12,183.49Zm2,13.51a1.7,1.7,0,1,1-1.7-1.7A1.7,1.7,0,0,1,381.15,197Zm.59,3.12a17.36,17.36,0,0,1,1.84,3,21.1,21.1,0,0,1-.07,4.68c-3.33,1-8.43.07-8.43-.15a35.23,35.23,0,0,1,.64-4.81,13.16,13.16,0,0,1,1.55-2.77S381.38,199.55,381.74,200.12Zm-7.53-10.44a1.56,1.56,0,1,1,1.55-1.56A1.56,1.56,0,0,1,374.21,189.68Zm-1.68-14.78c.57-.22,2.27,2.34,2.62,3.4a13.29,13.29,0,0,1,.35,4c-.07.85-2.19,2.19-2.76,2.55s-1.91-.22-2.83-.64-4.11-3.12-4.18-3.61S368.07,176.6,372.53,174.9Zm-5.31,16.65a5.5,5.5,0,0,1,3,.7c.21.92,1.21,3.26,1.21,3.62a11.45,11.45,0,0,1-1.78,2.62,27,27,0,0,1-4.46,2.55c-.42.14-2.76-3.9-3.54-7.94A18.76,18.76,0,0,1,367.22,191.55Z" fill="#e7e4dc"/><path d="M97.39,210.44a19.54,19.54,0,1,0-19.54-19.53A19.53,19.53,0,0,0,97.39,210.44ZM91.3,194.68a1.7,1.7,0,1,1,1.7,1.7A1.7,1.7,0,0,1,91.3,194.68Zm12.47,1.42a1.61,1.61,0,1,1,1.6-1.6A1.61,1.61,0,0,1,103.77,196.1Zm-1.8-7.6a1.61,1.61,0,1,1,1.61,1.6A1.61,1.61,0,0,1,102,188.5Zm10.88,12.44c-.42-.14-3.89-1.27-4.53-2.05s-2.34-2.13-2.27-2.84a32.29,32.29,0,0,1,1.42-3.82,8.15,8.15,0,0,1,2.55-.36,37.09,37.09,0,0,1,5.38.57C115.48,196.55,113.28,201.08,112.85,200.94Zm-10.76-21a9.1,9.1,0,0,1,2.69-3.89c3.9,1.06,7.51,4.67,6.94,5.38s-2.9,3.47-3.82,3.83-2.34.85-2.91.56-3-2-3.11-2.69A21.49,21.49,0,0,1,102.09,179.9Zm-4,4.35a1.56,1.56,0,1,1-1.56,1.56A1.56,1.56,0,0,1,98.05,184.25Zm2,13.5a1.7,1.7,0,1,1-1.7-1.7A1.7,1.7,0,0,1,100.08,197.75Zm.59,3.12a17.22,17.22,0,0,1,1.84,3,20.43,20.43,0,0,1-.07,4.67c-3.33,1-8.43.07-8.43-.14a37,37,0,0,1,.64-4.82,12.57,12.57,0,0,1,1.56-2.76S100.32,200.3,100.67,200.87Zm-7.53-10.44a1.56,1.56,0,1,1,1.56-1.55A1.55,1.55,0,0,1,93.14,190.43Zm-1.68-14.78c.57-.21,2.27,2.34,2.62,3.4a13,13,0,0,1,.36,4c-.07.85-2.2,2.2-2.76,2.55s-1.92-.21-2.84-.64-4.11-3.11-4.18-3.61S87,177.35,91.46,175.65ZM86.15,192.3a5.59,5.59,0,0,1,3,.71c.21.92,1.2,3.26,1.2,3.61a11.36,11.36,0,0,1-1.77,2.62,26.39,26.39,0,0,1-4.46,2.55c-.43.14-2.77-3.89-3.54-7.93A18.79,18.79,0,0,1,86.15,192.3Z" fill="#e7e4dc"/><path d="M461,147.66c.55-4,2-14.88,1.49-18.79-.26-2.28-1.07-6.28-1.94-10.06-.41.67-.9,1.5-1.4,2.37a47.5,47.5,0,0,1,1.27,7.6c.44,4.91-1.92,14.85-2.95,18.86Z" fill="#e7e4dc"/><path d="M328.26,113.7c.28-12.75-4.11-32.86-4.53-36.26s-3.46-7.3-6-8.22c-3.83-1.42-8.22-1.56-17.43-2s-46.61-.95-74.66,1.6-38.53,7.93-50.29,16.29-27.91,22.38-27.91,22.38-6,.71-33.71,2.41-59.86,9-62.48,10.06a10.38,10.38,0,0,0-4,3c3.69.2,10.79.75,12,1.07,1.55.42,1.27,1.42,1.27,2.55s-6.66,10.2-8.64,12.47c-1.44,1.64-6.4,3.22-9,3.95,0,1,.07,1.57.07,1.57s-6.94,2.13-7.65,2.55-2,4.11-2.12,14,1,12.74,4.82,15.86,7.65,1.84,10.34,3.54,9.49,4.54,9.49,3.4-.28-1.7-.43-5.66S59.94,158.8,69,150.86s32-7.65,39.38-8.07,13.74,1.13,16,5.38S136,175.09,138,179.48s4.82,4.67,6.8,4.39,172.55-1.46,174-2.45,2.12-1.14,6.51-12.19S328,126.45,328.26,113.7ZM82.33,132.31c-7.94,1.84-16.29,4.95-21.39,10.62-1.73,1.92-2.66,3-3.14,3.54-.08.18-.12.29-.12.29s-.81.8.12-.29c.55-1.26,2.8-6.32,4.41-7.93,1.84-1.84,5.53-5.53,15.72-7.37s12.61-2.83,16-2.55a73.89,73.89,0,0,1,8.64,1.56C91,130.75,90.26,130.46,82.33,132.31Zm45.09-19.46c-4.34.19-53.26,3-71.77,9.63l-4.35-.56s18.7-6.43,48.55-9.07,37-2.45,37-2.45A31.46,31.46,0,0,1,127.42,112.85ZM237.16,98.31a45.77,45.77,0,0,1-2.55,13.31c-.56,1.42-2,1.7-11.33,1.7s-53.83,2.27-55.53,2-.28-13,0-14.74,7.08-7.36,14.17-13.31,18.7-8.5,25.49-9.64,24.38-1.83,26.64-2c4.25-.28,5.1,1.42,5.1,3.12S237.45,91.79,237.16,98.31Zm71.12,4.2c-.28,2.55-.56,3.12-2.83,4.11s-9.64,3.87-12.33,4.29-15.44.71-24.08,1-12.75.56-14.31.56-4.53-.14-4.53-4,.73-13.44.71-15.44c-.15-9.92.85-13.32,1.13-14.45a4.44,4.44,0,0,1,4.53-3.4c3.26-.15,38.68-.76,42.93-.48s6.66.71,7.37,5.25S308.57,100,308.28,102.51Z" fill="#e7e4dc"/><path d="M416.81,181h0S416.81,181.06,416.81,181Z" fill="#e7e4dc"/><path d="M468.33,152.11c-.42-1.84-1.27-3.12-2.55-3.12s-5,.14-5,.14-11.14,0-11.42-.61,4.91-19.46,5.57-21.91c.54-2,4-7.75,5.16-9.71a62.46,62.46,0,0,0-2-7.15c-.85-1.84-2.12-1.42-3.68-1.28s-124.21.7-124.21.7-.28,9.77,0,16.86-.28,24.93-.71,30a52.5,52.5,0,0,1-2.55,13.6c-1.41,3.82-4.81,11.47-6.23,12.18h15.58s1.85-.28,3.12-7.79,6.52-17.28,9.49-20.68,10.48-9.92,17.28-11.76,28.9-2.13,32.73-2,7.22.56,9.63,5.24,6.94,22.8,7.65,29.89c.5,5,.58,6.05.58,6.23.24,0,9.53-1.43,13-2.27s5.1-1.41,5.1-1.41,1.81-1,10.6-1.54,10.48-.43,12.6-1.28,7.65-6.66,8.36-9.21S468.76,154,468.33,152.11Zm-110-20.7C346.77,135.9,338,147,338,147a21.13,21.13,0,0,1,3.83-6.66,40.57,40.57,0,0,1,11.05-9.2A55.07,55.07,0,0,1,374,125.46c9.35-.43,19.69.28,19.69.28S371.75,126.17,358.29,131.41Z" fill="#e7e4dc"/></svg>