<svg xmlns="http://www.w3.org/2000/svg" width="400" height="400" viewBox="0 0 400 400"><path d="M305.22,219.23c-4.58-4.39-11.56,2.57-7,7,5,4.8.69,15.71-3.45,20-1.15,1.19-3.8,2.05-6.28,2.05l.24-6.22a67.13,67.13,0,0,0-5.92-22.81S258.15,163.49,175,181c-1-4.23-3.67-7.72-6.66-10.93-6.48-7-17.07-6.34-23.35-5.15a3.43,3.43,0,0,0-2.22,5.25,31.83,31.83,0,0,1,4,8.07,15.66,15.66,0,0,1-4.66,16.34,73.31,73.31,0,0,0-21.28,31.88l-24.67-3.32c-2.52,0-6.48,4.81-4.56,4.56,0,0-4.31,6.91,0,17,7.34,17.15,12,14.74,12,14.74,0,2.52,1.16,7.15,3.68,7.15h13.17a73.7,73.7,0,0,0,21.68,33.08c.1.09.19.14.28.23.33.33.66.61,1,.89,9.17,8.28,10,18,10,20.42v.29l3.53.23c2.68.23,5.36.47,8,.81s5.34.72,8,1.18a64.66,64.66,0,0,1-8.11.21c-2.69-.05-5.38-.22-8.07-.41l-3.39-.31v5.68a4.56,4.56,0,0,0,4.56,4.56h30.34a4.56,4.56,0,0,0,4.56-4.56v-7.31a95.23,95.23,0,0,0,10.33.56,101.7,101.7,0,0,0,13.16-.88V322l4.24-.31c2.68-.14,5.37-.27,8.06-.3s5.39,0,8.1.08a64.45,64.45,0,0,1-8,1.32c-2.68.31-5.37.52-8.06.69-1.44.08-2.89.14-4.34.19v5.22a4.56,4.56,0,0,0,4.56,4.56h30.29a4.56,4.56,0,0,0,4.56-4.56v-2.55c.23-5.12,1.82-17,11.17-26.66a79.91,79.91,0,0,0,14.38-21.78,66.16,66.16,0,0,0,5.62-15,.79.79,0,0,0,.05-.24c.37-1.54.66-3.12.92-4.7a17.47,17.47,0,0,0,11.51-3c5.19-3.63,8.4-10.92,9.89-16.89C311.14,231.33,310.45,224.23,305.22,219.23ZM158.48,234.62c-.63,2.57.14,1.94-10,1.79-5.62-.08-11.32,1.84-10-3.61.63-2.57,1.54-12,10.08-14C154.07,217.59,159.81,229.17,158.48,234.62ZM256,220.13c-.9-.85-1.67-1.8-2.61-2.6s-1.81-1.63-2.69-2.46l-1.32-1.25-1.4-1.14q-1.4-1.14-2.76-2.31l-2.88-2.12-1.43-1.07-1.5-1c-1-.64-2-1.33-3-1.92a76.45,76.45,0,0,0-12.86-6.1,70.86,70.86,0,0,0-14.11-3.61,34.69,34.69,0,0,1,15.07.24,47.77,47.77,0,0,1,14.19,5.62c1.1.65,2.13,1.41,3.2,2.11l1.56,1.1,1.47,1.23c1,.84,2,1.63,2.88,2.51s1.75,1.83,2.62,2.76l1.28,1.4,1.14,1.51q1.14,1.52,2.22,3.06a14.66,14.66,0,0,1,1,1.6c.31.55.63,1.09.92,1.65.6,1.1,1.19,2.2,1.72,3.33C257.76,221.87,256.87,221,256,220.13Z" fill="#63513d"/><path d="M225.36,135.19a3.71,3.71,0,0,0,3-2.6,20.43,20.43,0,0,0,.56-5.39c0-1.26,0-2.31-.11-3.17a6.43,6.43,0,0,0-.49-2.11,5.34,5.34,0,0,0-2.94-2.42Z" fill="#63513d"/><path d="M218.91,98.61a13.27,13.27,0,0,0-.64,4.3,12.31,12.31,0,0,0,.52,4.11,5,5,0,0,0,2.72,2.45V96A4.14,4.14,0,0,0,218.91,98.61Z" fill="#63513d"/><path d="M275.33,104.73l-1.05-2.23-.53-1.11c-.19-.36-.41-.71-.61-1.07l-1.22-2.14-1.36-2.05-.69-1-.76-1-1.51-1.93L266,90.48A49.82,49.82,0,1,0,182.74,145a50.17,50.17,0,0,0,17.81,21.36,47.41,47.41,0,0,0,8.8,4.78,51.51,51.51,0,0,0,9.58,2.94,55.53,55.53,0,0,0,10,1,51.25,51.25,0,0,0,19.56-3.94,50.53,50.53,0,0,0,26.87-66.46Zm.82,29.31a13.69,13.69,0,0,0-1.54-2.94,13.54,13.54,0,0,0-2.17-2.51l-.59-.5a50.08,50.08,0,0,0,1.41-11.76c0-.44,0-.87,0-1.3a8.56,8.56,0,0,0,.62,1.6,8.47,8.47,0,0,0,1.53,2.12,7.12,7.12,0,0,0,2.45,1.65c0-.18.06-.35.09-.53.1,1.36.15,2.73.13,4.09a50,50,0,0,1-1.5,11.37C276.43,134.89,276.3,134.45,276.15,134Zm-8.92-41.53,1.45,1.95.73,1,.65,1,1.3,2,1.15,2.14c.18.36.39.71.56,1.07l.5,1.11,1,2.22a48.7,48.7,0,0,1,3,11A10.2,10.2,0,0,0,277,115a9,9,0,0,0-1.54-2.12,7.12,7.12,0,0,0-2.45-1.65,1,1,0,0,1,0,.17,49.45,49.45,0,0,0-5.86-19Zm-39.12,5.8A4.21,4.21,0,0,0,225.36,96v15.16l3.17,1.28a14.8,14.8,0,0,1,4.15,2.3,9.93,9.93,0,0,1,2.48,3.06,14.4,14.4,0,0,1,1.14,4.11,41,41,0,0,1,.3,5.24,29.54,29.54,0,0,1-.57,6,14,14,0,0,1-1.85,4.79,10.53,10.53,0,0,1-3.5,3.4,12.72,12.72,0,0,1-5.32,1.58v6.34h-3.85v-6.34a13.37,13.37,0,0,1-4.56-1.36,12.4,12.4,0,0,1-3.59-2.71,12,12,0,0,1-3.16-8.53v-3h7.69V130a6.62,6.62,0,0,0,.83,3.24,4,4,0,0,0,2.79,2V117.84l-2.56-1q-5-2-6.68-5.39a18.62,18.62,0,0,1-1.7-8.42,17.45,17.45,0,0,1,2.72-9.84,11.14,11.14,0,0,1,8.22-4.87V82.62h3.85v5.65a13.37,13.37,0,0,1,4.64,1.4,12.35,12.35,0,0,1,3.58,2.83,12,12,0,0,1,2.26,3.77,11.71,11.71,0,0,1,.76,4.15v3.77h-7.7v-1.73A9.88,9.88,0,0,0,228.11,98.31Zm-35.34,58.25q-1.52-1.63-2.89-3.41c.83.76,1.7,1.48,2.58,2.18A6.92,6.92,0,0,0,192.77,156.56Zm3.88,3.79a5.49,5.49,0,0,0,.26-1.86A49.47,49.47,0,0,0,207,163.37c0,.23,0,.45,0,.67a7,7,0,0,0,.62,2.24,6.75,6.75,0,0,0,1.32,1.91l0,0A49.62,49.62,0,0,1,196.65,160.35Zm14.73,8.84a6.28,6.28,0,0,0,.17-2.2,6.91,6.91,0,0,0-.63-2.23l-.13-.24a49.79,49.79,0,0,0,12.65,1.63,51.86,51.86,0,0,0,6-.37,6.61,6.61,0,0,0,0,1.26,6.9,6.9,0,0,0,.62,2.23,6.65,6.65,0,0,0,1.32,1.92,6.49,6.49,0,0,0,1.43,1.09c-1.3.11-2.62.17-3.93.16A47.92,47.92,0,0,1,211.38,169.19Zm22.39,3A6.19,6.19,0,0,0,234,170a7.06,7.06,0,0,0-1.95-4.15l-.4-.37a49.22,49.22,0,0,0,17.27-6.31,9.08,9.08,0,0,0,.13,1.31,8.91,8.91,0,0,0,.85,2.47,9,9,0,0,0,1.54,2.13,7.58,7.58,0,0,0,1.44,1.13A49.23,49.23,0,0,1,233.77,172.21Zm29.54-13.84a48.23,48.23,0,0,1-9.31,7.17,8.61,8.61,0,0,0-.11-1.78,9,9,0,0,0-2.4-4.59,8.7,8.7,0,0,0-1.12-.94,49.88,49.88,0,0,0,12.17-11,9.51,9.51,0,0,0,.12,1.22,9,9,0,0,0,.86,2.48,8.47,8.47,0,0,0,1.53,2.12,7.29,7.29,0,0,0,1.89,1.39A50.67,50.67,0,0,1,263.31,158.37Zm10.77-15.7a49.13,49.13,0,0,1-6.42,10.81,7.93,7.93,0,0,0-.11-1.78,8.39,8.39,0,0,0-.86-2.48,8.64,8.64,0,0,0-1.54-2.11,7.24,7.24,0,0,0-1.6-1.24,49.41,49.41,0,0,0,7.27-14.15,14.16,14.16,0,0,0,3,3.9,10.47,10.47,0,0,0,2.22,1.56A49.72,49.72,0,0,1,274.08,142.67Z" fill="#63513d"/></svg>