<svg xmlns="http://www.w3.org/2000/svg" width="22" height="22" viewBox="0 0 22 22"><title>icon</title><polygon points="21.11 5.84 21.11 14.49 19.63 14.49 19.63 7.42 3.2 7.42 3.2 5.84 21.11 5.84" fill="#d96227"/><path d="M.89,8.25V16.9H18.8V8.25Zm.89,7.67V14.49a1.37,1.37,0,0,1,1,.42,1.38,1.38,0,0,1,.41,1Zm1-5.62a1.4,1.4,0,0,1-1,.41V9.29H3.2A1.4,1.4,0,0,1,2.79,10.3Zm7.05,4.92a2.64,2.64,0,1,1,2.64-2.64A2.65,2.65,0,0,1,9.84,15.22Zm7.9.65H16.31a1.42,1.42,0,0,1,1.43-1.42Zm0-5.21a1.42,1.42,0,0,1-1.43-1.42h1.43Z" fill="#d96227"/></svg>