<svg xmlns="http://www.w3.org/2000/svg" width="262.54" height="283.03" viewBox="0 0 262.54 283.03"><path d="M122.68,104.94c-1.1,12.37,3.7,17,11.65,21.42,10.26,5.75,27.49-4.86,32.7-12.6,9.08-13.51,15.92-31.54,9.32-48.29C168,44.22,143.18,29.58,130.84,49.29c-7.56,12.07,4.07,20.83,3.18,29.76C133.15,87.69,123.79,92.58,122.68,104.94Z" fill="#e7e4dc"/><path d="M73.76,141c-15.29,5.59-31.42,16.15-35.92,33.59-5.71,22.12,5.73,48.53,27.3,39.84,13.21-5.33,9-19.25,14.92-25.95,5.78-6.48,16.23-4.93,24.39-14.28s7-15.89,3.16-24.18C102.7,139.35,82.52,137.8,73.76,141Z" fill="#e7e4dc"/><path d="M214.22,167.5c17.62-14.54,23.88-42.64,1.33-48.28-13.82-3.46-18.56,10.31-27.33,12.22-8.48,1.85-16-5.55-28.13-2.78s-15,8.76-16.76,17.7c-2.31,11.53,13.11,24.64,22.08,27.2C181.07,178,200.33,179,214.22,167.5Z" fill="#e7e4dc"/><path d="M128.37,235.84c19.27,12.27,47.93,9.54,46.33-13.65-1-14.22-15.54-14.47-20.06-22.21-4.38-7.5.32-17-6-27.61s-13-11.55-22-10.48c-11.68,1.37-19.38,20.08-19,29.4C108.12,207.57,113.18,226.17,128.37,235.84Z" fill="#e7e4dc"/><path d="M66.85,69.72C44.05,71.13,22.47,90.18,37.4,108c9.15,10.92,21.07,2.57,29.28,6.18,8,3.49,9.71,13.91,21.13,18.78s17.27,1.72,24-4.46c8.64-8,3.87-27.64-1.88-35C99.86,80.69,84.82,68.62,66.85,69.72Z" fill="#e7e4dc"/></svg>