<svg xmlns="http://www.w3.org/2000/svg" width="22" height="22" viewBox="0 0 22 22"><title>icon</title><polygon points="19.64 10.78 13.96 10.78 14.92 17.43 18.68 17.43 19.64 10.78" fill="#d96227"/><path d="M19.88,8.72v.94H13.73V8.72H17l.41-1.63a.38.38,0,0,1,.34-.27l1.28-.07a.38.38,0,0,1,.38.35.36.36,0,0,1-.35.38l-1,.06-.3,1.18Z" fill="#d96227"/><path d="M10.64,7.49v-1a3.06,3.06,0,1,0-6.11,0v1H2.13v8a1.91,1.91,0,0,0,.56,1.38,1.82,1.82,0,0,0,1.36.58H11a1.81,1.81,0,0,0,1.36-.58,1.88,1.88,0,0,0,.57-1.38v-8Zm-5-1a1.91,1.91,0,0,1,3.82,0v1H5.68ZM5.62,9.37A.58.58,0,1,1,5.79,9,.57.57,0,0,1,5.62,9.37Zm4.62,0A.58.58,0,1,1,10.41,9,.57.57,0,0,1,10.24,9.37Z" fill="#d96227"/></svg>