<svg xmlns="http://www.w3.org/2000/svg" width="350" height="359.14" viewBox="0 0 350 359.14"><title>icon-donation</title><path d="M176.86,39.51c-3.62-6.13-7.27,4.46-14.38,4-36.16-2.46-77.59-3-102.27,23.57C54.72,73,50.27,80.48,50.56,88.53c.34,9.76,7.43,18,9.41,27.56,5.26,25.37-26.08,48.27-19.5,73.33,1.59,6,5.31,11.39,6.46,17.52,2.7,14.24-8.86,29.5-2.86,42.69C50.15,263,68.39,263.39,82.38,267.8c20.3,6.39,34.59,24,50.79,37.79s45,22.73,57.45,16.24c6.91-3.58,19.95-10.53,26.21-15.15,11.75-8.65,19.4-13.06,33.21-17.77s28-12.46,33.5-26c5.84-14.48-.07-30.9,1.21-46.46.84-10.1,4.71-19.66,8.34-29.13,6.32-16.49,12.11-33.62,12.05-51.29s-6.9-36.18-21.41-46.25c-15-10.4-36.64-11.27-47.32-26-6.27-8.67-8-21.4-17.6-26.2-12.68-6.37-28.43,6.58-41.65,1.45" fill="#f3f3ee"/><path d="M294.6,128c-.35-1.54-.9-3-1.36-4.55l-.15,0c.61,2.45,1.21,4.9,1.82,7.35l-.24.07c-.14-.42-.28-.83-.39-1.14l-2.93-.5.08,1.36h-.15l-.45-2-.19,0,.33,2.58-.3.14c-.17-.22-.28-.54-.5-.65a4,4,0,0,0-1.72-.57c-3.31.2-6.62.43-9.91.8-1.52.17-3.07.56-3.56,2.39,0,.07-.16.11-.38.25a16.36,16.36,0,0,0-1-1.43c-.4-.47-.82-1.07-1.35-1.25a2.44,2.44,0,0,0-2.17.05,6.93,6.93,0,0,1-2.71.75c-2.15.22-4.31.31-6.47.46-.49,0-1,0-1.46.09-2.5.24-5,.54-7.5.74-3.41.27-6.82.47-10.22.71-2.55.17-5.08.41-7.63.54a2.61,2.61,0,0,0-2.24,1.3l-.52.81-.25-.07c0-.37-.06-.73,0-1.1.06-2.45.12-4.89.19-7.34q.19-6.39.4-12.79.3-9.7.6-19.4l.24-7.88,5.74-.47c4.19-.36,8.39-.67,12.57-1.06A60.23,60.23,0,0,1,264.21,91a56,56,0,0,1,12.06,8.16A62.16,62.16,0,0,1,293,123.35a44.69,44.69,0,0,0-2.31-7.17,55,55,0,0,0-3.34-6.81A57,57,0,0,0,278,97.28a56.3,56.3,0,0,0-12.29-9.2,62.44,62.44,0,0,0-14.37-5.56l-.26-.06-.32,0c-4.3.26-8.59.61-12.88.92l-5.32.38c0-1.11.06-2.22.1-3.33a20.51,20.51,0,0,1,3.21-10.6c3.16-5,6.2-10,9.32-15a7.3,7.3,0,0,0,1.13-3.91c0-1.68.09-3.36.13-5,0-2.35.12-4.69.11-7,0-1.57-.48-2.09-2-2.35-6.48-1.15-13-2.24-19.42-3.46-1.42-.27-2.44.65-3.7.8-.15,0-.33.35-.39.57a5.16,5.16,0,0,0-.19,1.23q-.3,13.48-.57,27c-.15,7.4-.28,14.8-.46,22.19h0l-7.73.64L199.31,86.6c-4.29.38-8.57.82-12.86,1.25s-8.56.87-12.84,1.35c-8.06.88-16.11,1.84-24.16,3a21.85,21.85,0,0,0-5.77,0,28.11,28.11,0,0,0-4.84.91,32.9,32.9,0,0,0-14.93,9.89,50,50,0,0,0-8.78,14.57,64.56,64.56,0,0,0-4.32,18c-.49,5.32-.74,10.68-.81,16-.1,7.66.06,15.32.09,23,0,9.27,0,18.54,0,27.81a19.81,19.81,0,0,0,.61,6.48,8.29,8.29,0,0,0,3.61.45c3.59-.5,7.21-.84,10.81-1.28,2.27-.27,4.53-.64,6.8-.91,1.14-.13,2.28-.18,3.42-.2,5.22-.06,10.43-.09,15.64-.16,1.54,0,3.09-.21,4.63-.12,2.64.15,5.27.2,7.92.15a50,50,0,0,1,5.33.2c1.81.15,3.6.44,5.39.69.15,0,.28.2.42.31a2.38,2.38,0,0,1-.05.26l-54.37,3.57,0,.24,7-.43,16.64-1c4.29-.28,8.58-.58,12.87-.83,5.23-.32,10.46-.59,15.69-.9,2.06-.12,4.13-.19,6.17-.45a15.65,15.65,0,0,1,4.27.06c.9.12.79.38.94,1.25a15.44,15.44,0,0,1,.27,3.52,5.5,5.5,0,0,1-.79,2.1c-1.28.47-2.54,1-3.85,1.37a16.12,16.12,0,0,1-5.57.82,6.15,6.15,0,0,0-2.25.4c-1.37.43-2.71.93-4,1.42a24.28,24.28,0,0,1-2.53,1c-2.21.53-4.44.93-6.65,1.44q-7.66,1.76-15.32,3.58a6.05,6.05,0,0,1-3,0q-21.79-5.39-43.59-10.73a4.13,4.13,0,0,0-2.36.12c-5.92,2.13-11.86,4.21-17.77,6.34-9,3.25-18.2,6.23-27.06,10a46.31,46.31,0,0,0-15,10,10.12,10.12,0,0,0-3,8.7,4,4,0,0,0,.22.72l.23,0a4.51,4.51,0,0,1,0-1.22,12.07,12.07,0,0,1,1.2-3.84c1.59-2.28,4-3.81,6.13-5.52a19.93,19.93,0,0,1,1.84-1c1.19-.73,2.34-1.53,3.52-2.28.45-.28,1-.49,1.43-.73a1,1,0,0,1-.48.6,41.89,41.89,0,0,0-8,6.66,10.36,10.36,0,0,0-2.89,6A6.22,6.22,0,0,0,36.78,255c.81.66,1.65,1.28,2.52,1.87,1.4.94,1.48.91,2.6-.33.08-.07.14-.16.21-.23a33.54,33.54,0,0,1,4-3.64c3-1.95,6.12-3.63,9.17-5.46s6.71-2.93,10.07-4.41c1.14-.5,2.38-.79,3.57-1.2,3-1,5.94-2,8.93-3,1.32-.44,2.69-.76,4-1.2,2.45-.81,4.88-1.69,7.33-2.49,2.68-.88,5.38-1.74,8.09-2.55a24.26,24.26,0,0,1,3.37-.69c.88-.13,1.19.28.91,1.09a3,3,0,0,1-.5.91,19.22,19.22,0,0,1-1.5,1.75,1.18,1.18,0,0,0-.31,1.49,7.25,7.25,0,0,1,.68,1.87,12.1,12.1,0,0,0,2.69,5.49c1.18,1.56,2.38,3.1,3.56,4.65.34.45.66.91,1,1.36q1.69,2.45,3.4,4.88c.4.58.16.93-.37,1.14a18.67,18.67,0,0,1-2.42.83c-.7.16-1.45.11-2.15.26-1.26.26-2.5.67-3.76.9-1.53.26-3.09.38-4.63.6-2.87.42-5.73.91-8.61,1.29s-5.55.68-8.33.91c-2.47.21-5,.29-7.43.4-.85,0-1.7,0-2.34,0a.38.38,0,0,1,0-.1H66.06a1.25,1.25,0,0,1-.72.13c-3-.1-6,0-9-.33a81.45,81.45,0,0,1-13.4-2.47,20.88,20.88,0,0,1-7.1-3.27c-1.07-.8-2.11-1.64-3.29-2.55a10.72,10.72,0,0,1,.5,1.29,6.6,6.6,0,0,0,2.32,3.53,21,21,0,0,0,7.19,4,81.62,81.62,0,0,0,18,3.35c1.71.13,3.43.21,5.15.31,0,.06,0,.13,0,.2-3.17-.2-6.35-.28-9.49-.64a81.26,81.26,0,0,1-13.47-2.66A20.86,20.86,0,0,1,33,256.21a4.94,4.94,0,0,1-.44-.65l-.23.19a15.37,15.37,0,0,1,.54,1.75c.28,1.54.47,3.11.73,4.66a7.57,7.57,0,0,0,1.69,3.77,18.67,18.67,0,0,0,4.62,3.87A85.13,85.13,0,0,0,53.19,274a2.21,2.21,0,0,1,1.58-.1,12.67,12.67,0,0,0,1.73.26c3.37.31,6.75.71,10.13.9a74.91,74.91,0,0,0,8.07,0c4.61-.21,9.23-.41,13.81-.93A177,177,0,0,0,110,270.23c3.93-1,7.8-2.16,11.68-3.3a8.18,8.18,0,0,0,1-.36c4.68-2,9.44-3.88,14.09-6,7.29-3.31,14.54-6.72,21.8-10.09l22.07-10.25c1.48-.69,3-1.39,4.47-2.07.46-.21.81-.43.64-1.14a22.48,22.48,0,0,1-.57-6.49c.06-1-.33-1.41-1.1-1.56-.44-.08-.87-.23-1.3-.35a4.66,4.66,0,0,1,1.09-.67,1.5,1.5,0,0,0,.86-1.54c-.06-.76-.67-.69-1.16-.8-.91-.21-1.84-.37-2.75-.61s-1.55-.51-2.33-.77l0-.12,8.22,1.68c0,.22,0,.62,0,1q-.09,6.93-.19,13.85-.17,13.65-.33,27.29c-.17,12.87-2.6,43-2.78,55.86,10.38,0,24-11.16,33.38-17.16.68-.43,1.42-.74,1.45-1.54s.08-1.82.1-2.73q.33-14.7.62-29.38.31-14.89.64-29.8.26-12.22.5-24.44a1.53,1.53,0,0,1,1.17-1.45l19.6-4.57c9.16-2.13,18.31-4.33,27.5-6.35,2.36-.51,4.73-.89,7.07-1.62,3.22-1,6.59-1.59,9.87-2.44,1.63-.42,3.34-.52,4.87-1.43a7.75,7.75,0,0,1,2.76-.64A1.24,1.24,0,0,0,294,199.1c.22-6.85.5-13.7.75-20.55q.57-15.88,1.12-31.77A74,74,0,0,0,294.6,128ZM219.43,103.2c-.11,5.31-.15,10.63-.24,16,0,1.1-.14,2.2-.21,3.31a16,16,0,0,0-1.76-2.23,42.6,42.6,0,0,0-3.94-3.13,17.32,17.32,0,0,0-2.83-1.57,1.74,1.74,0,0,0-1.72-.14l.67,2.55-.24.09c-.16-.21-.33-.41-.47-.63-1.12-1.68-2.22-3.37-3.34-5-.47-.7-1-1.34-1.48-2a38.12,38.12,0,0,0-2.28-3.62,29.42,29.42,0,0,0-7.74-7.14c-.58-.33-1.25-.5-1.79-.88-1.38-1-3.1-1.05-4.55-1.81,0,0-.09.07-.18.16.46.48,1.37.64,1.29,1.74-1.77.15-3.53.34-5.3.42-1.49.07-3,0-4.49,0l-3.36,0c-2.05,0-4.11-.1-6.17-.07a7.36,7.36,0,0,1-4.5-1.38,16.63,16.63,0,0,0-3.9-2.18c1.24.86,2.34,1.6,3.42,2.36,3.16,2.22,5.7,5.12,8.42,7.84a38.07,38.07,0,0,1,2.64,3.37c.22.27.61.68.85.63,1.29-.22,2.41.34,3.59.6,1.78.4,3.57.72,5.32,1.21,2.82.79,5.61,1.7,8.41,2.58a3.34,3.34,0,0,1,1.12.55c1.16,1,2.29,1.92,3.41,2.92s2,1.84,3,2.76a11.4,11.4,0,0,1,2.73,3.29c.9,1.85,1.81,3.69,2.77,5.51a3.86,3.86,0,0,1-1.22,5,11.28,11.28,0,0,1-5.08,2.11c-1.94.39-3.95.48-5.93.7-1.52.16-3,.33-4.57.46-1,.09-1.95.12-2.92.21-.52.05-1.09.12-1,.88.15,2.4.33,4.81.46,7.21.05.88,0,1.75,0,2.63H186c0-.2-.06-.39-.08-.58-.29-4.05-.6-8.08-1.22-12.1a70.48,70.48,0,0,0-3.5-13.48A57.18,57.18,0,0,0,175.08,110a44.74,44.74,0,0,0-9.28-10.46,29,29,0,0,0-3.05-2.4A34.71,34.71,0,0,0,153,92.79c-.84-.19-1.68-.36-2.53-.49q11.67-.24,23.3-.8,6.45-.28,12.9-.65c4.3-.23,8.6-.46,12.89-.75l12.89-.83,7.33-.54Q219.6,96,219.43,103.2Z" fill="#473729"/><path d="M198.68,100.43c-.65.21-.73.94-.12,1.17,1,.37,1.29,1.12,1.79,2a19.71,19.71,0,0,0,3.1,3.38.93.93,0,0,0,.57.25,19.62,19.62,0,0,0,4,0c2.4-.43,4.75-1.14,7.12-1.73a2.58,2.58,0,0,0,1.85-1.14c-.45-1-1.57-1-2.3-1.53l0-.24,2.64-.43c0-.11,0-.22,0-.33a4.33,4.33,0,0,0-1-.47,25,25,0,0,0-3.5-.64q-6-.42-11.92-.68A7,7,0,0,0,198.68,100.43Z" fill="#473729"/><path d="M256.47,102.39c-1.9-1.56-4.19-2.4-6.38-3.44-.41-.2-.85-.34-1.28-.51l-.1.23c.42.22.84.45,1.27.65a3.08,3.08,0,0,1,1.91,2.19,2.08,2.08,0,0,0,1.7,1.65,4.46,4.46,0,0,0,1.25.15,1.6,1.6,0,0,1,1.37.62c.5.53,1,1,1.56,1.55.24.22.5.41.76.61l.15-.14c-.15-.3-.41-.59-.42-.89C258.21,103.78,257.33,103.1,256.47,102.39Z" fill="#473729"/><path d="M111.67,209.63l0-.25a4.78,4.78,0,0,0-1.8-.22c-1.66.46-3.28,1.09-4.92,1.66l.07.25Z" fill="#473729"/><path d="M99.6,213.32c.89,0,1.77-.14,2.66-.22l0-.14-5.44.32v.05C97.73,213.33,98.67,213.36,99.6,213.32Z" fill="#473729"/><polygon points="67.95 210.35 184.75 173.85 183.45 223.85 160.47 232.86 67.95 210.35" fill="#fff"/><path d="M67.9,210.35,126,191.84c9.76-3.08,19.56-6.15,29.37-9.14l29.34-9,.22-.07v.23c-.15,4.17-.19,8.34-.28,12.51l-.25,12.5-.46,25v.31l-.29.12-23,9.05-.16.06-.16,0-23.26-5.69c-7.76-1.89-15.5-3.85-23.2-5.8Zm.1,0,46.53,11c7.72,1.8,15.41,3.6,23.06,5.45l23,5.56-.31,0,23-9-.29.43.84-25,.4-12.5c.12-4.16.29-8.33.36-12.49l.22.16-29.07,9.24c-9.65,3.1-19.32,6.11-29,9.11Z" fill="#473729"/><polygon points="78.69 209.85 104.3 201.56 127.95 206.35 101.45 214.85 78.69 209.85" fill="#d96227"/><path d="M150.93,197.3a35.16,35.16,0,0,1,6.14-2.35c1.06-.26,2.15-.46,3.2-.75a27.7,27.7,0,0,0,3.09-1.11c2-.85,4.09-1.58,6.17-2.25a55.22,55.22,0,0,1,6.4-1.54l0,.1a55.14,55.14,0,0,1-6.1,2.46c-2.09.66-4.19,1.26-6.33,1.75a30.8,30.8,0,0,0-3.16.89c-1,.37-2,.84-3.05,1.25A34.36,34.36,0,0,1,151,197.4Z" fill="#d96227"/><path d="M153.93,201.3a48.6,48.6,0,0,1,7.42-2.65c1.27-.32,2.57-.57,3.83-.92a38,38,0,0,0,3.73-1.26c2.45-.95,4.94-1.78,7.45-2.55a76.25,76.25,0,0,1,7.66-1.84l0,.09c-2.41,1.07-4.89,2-7.38,2.77s-5,1.47-7.6,2.06c-1.28.3-2.55.62-3.79,1s-2.46,1-3.69,1.4a49.36,49.36,0,0,1-7.63,2Z" fill="#d96227"/></svg>