<svg xmlns="http://www.w3.org/2000/svg" viewBox="0 0 800 800"><defs><style>.cls-1{fill:#ff8a3d;}</style></defs><title>Asset 1</title><g id="Layer_2" data-name="Layer 2"><g id="Layer_1-2" data-name="Layer 1"><path class="cls-1" d="M400,0C179.44,0,0,179.44,0,400S179.44,800,400,800,800,620.56,800,400,620.56,0,400,0ZM590.67,521.71,413.38,624.07a43.87,43.87,0,0,1-65.76-40L361.05,292,253.2,354.27a43.87,43.87,0,0,1-43.87-76L386.62,175.92a43.87,43.87,0,0,1,65.76,40L439,508,546.8,445.73a43.87,43.87,0,1,1,43.87,76Z"/></g></g></svg>