<?xml version="1.0" encoding="utf-8"?>
<!-- Generator: Adobe Illustrator 23.0.1, SVG Export Plug-In . SVG Version: 6.00 Build 0)  -->
<svg version="1.1" id="Layer_1" xmlns="http://www.w3.org/2000/svg" xmlns:xlink="http://www.w3.org/1999/xlink" x="0px" y="0px"
	 viewBox="0 0 1080 399" style="enable-background:new 0 0 1080 399;" xml:space="preserve">
<style type="text/css">
	.st0{opacity:8.000000e-02;}
	.st1{fill:#FFFFFF;}
</style>
<title>Asset 2</title>
<g>
	<g id="Layer_1-2">
		<g class="st0">
			<path class="st1" d="M1069.6,31.6c-7.3,0.6-14.7,0.4-22-0.6c-11.9-1.6-22.6-6.2-33.3-10.9c-3.9-1.7-7.2-4.7-10.6-7.3
				c-3.5-2.8-7.5-4.8-11.9-5.8c-4.1-1-8.5-0.9-12.5,0.4c-6.8,2.1-13.5,4.8-20.2,7.3c-6.8,2.6-13.5,5.8-20.4,8.1
				c-4.6,1.5-9.5,2.4-14.3,2.7c-5.7,0.4-11.3,1.8-17,1.9l-17.6-0.1c-5.7,0.6-11.4,0.2-16.9-1.1c-4.7-1.3-9.8-2.2-14.3-3.7
				c-7-2.3-13.6-5.4-20.4-8.1c-6.6-2.6-13.3-5.2-20.1-7.4c-4-1.3-8.4-1.5-12.5-0.4c-4.4,1-8.4,3-11.9,5.8c-3.4,2.6-6.7,5.6-10.6,7.3
				c-10.7,4.7-21.4,9.3-33.3,10.9c-7.3,1-14.7,1.3-22,0.6c-9.9-0.9-18.8-4.8-27.6-8.6c-7.4-3.2-14.7-6.7-22.3-9.5
				c-5.2-1.7-10.5-3.1-15.9-4c-3.7-0.6-7.4-1.1-11.1-1.2c-3.2-0.2-18.9,2.3-21.9,4.6c-5.9,4.6-11.8,9.1-19,12
				c-4.2,1.7-8.1,4.1-12.4,5.2c-5.2,1.1-10.5,1.8-15.8,1.9c-10.1,0.6-19.8-1.8-28.7-5.6c-6.8-2.9-12.7-7.5-19.1-11.1
				c-5.5-3.1-10.9-6.2-17.1-8.1c-4.8-1.4-15.5-4.6-16.1-4.7c-1-0.1-7.8-1.5-10.6-1.8S477,1.2,474.6,2.9c-2,1.5-4.5,2.5-6.3,4.1
				c-4.6,4.1-10.1,6.7-15.6,9.5c-2.2,1.1-4.2,2.8-6.5,3.4c-4.8,1.2-9.7,2.1-14.7,2.7c-11.3,1.5-22.7,0-33.2-4.3
				c-4.8-2.1-9.6-4.4-14.5-6.3c-7-2.8-14-5.8-21.3-8c-6.3-1.8-12.7-3.1-19.2-4c-1.8-0.3-14.9,4-16.4,5.4c-2.6,2.5-5.6,4.7-8.7,6.6
				c-8.6,5.9-17.7,10.6-28.2,12.9c-4.2,0.9-8.4,0.9-12.5,1.7c-5.6,1.1-11,0-16.3-0.8c-5.2-0.8-10.2-2.7-14.8-5.4
				c-3.1-1.8-6.2-3.4-9.5-4.7c-3.1-1.3-10.7-4.4-11.4-4.7c0,0-8.2-6.9-14.3-7.5s-16.5,8.1-16.5,8.1c-2.5,1.9-6.3,2.2-9.4,3.5
				c-3.3,1.3-6.5,2.9-9.6,4.7c-4.5,2.8-9.5,4.6-14.8,5.5c-5.2,0.8-10.6,1.9-16.3,0.8c-4-0.8-8.3-0.8-12.5-1.7
				c-10.5-2.3-19.7-7-28.2-12.9c-3-2.1-6.2-4-8.7-6.6C94,3.4,86.8,1.1,84.9,0.5S66,1.5,59.9,3.4c-7.2,2.2-14.2,5.2-21.3,8
				c-4.9,2-9.7,4.2-14.5,6.3C13.4,22.2,9.9,26.5-0.1,29.8v54.5c8-2,19.2-10,25-11.8c1.8-0.6,3.4-1.5,5.1-2.1c2.3-0.7,9-3.5,10.2-4.1
				c2.7-1.1,5.3-2.4,7.8-3.8c8.9-5.1,18.7-7.1,28.9-8c3.1-0.3,4.9,1.6,7,3.1c4.8,3.6,9.3,7.6,14.4,10.7c5.8,3.5,28.1,10.8,28.6,11.1
				c3.8,2.2,8.4,0.8,12.2,2.5c0.3,0.1,13.9,1.2,20.4-0.8c6.1-1.9,12.1-4,18-6.5c5.5-2.3,17.3-9.6,18.1-9.8c7.7-3.4,10.8-10.1,30,0.1
				c1.2,0.5,13.8,8,19.2,10.3c5.9,2.5,11.9,4.7,18,6.5c6.5,1.9,20.1,0.9,20.4,0.8c3.9-1.7,8.5-0.3,12.2-2.5
				c0.5-0.3,22.7-7.6,28.6-11.1c5.1-3.1,9.6-7.1,14.4-10.7c2.1-1.5,3.8-3.4,7-3.1c10.2,0.9,20,2.9,28.9,8c2.5,1.4,5.1,2.7,7.7,3.8
				c1.2,0.5,13.6,5.6,15.4,6.2c5.8,1.8,23,5.4,25,5.3s9.7,0.1,11.3-0.1c3.5-0.5,7-1.2,10.4-2.1c4.4-1.2,8.7-2.6,12.9-4.1
				c8.5-3,16.4-7.3,23.6-12.8c4.8-3.6,9.6-6.5,16-3.8c0.5,0.2,5.9,1.5,6.8,1.8c1.5,0.4,29,13.2,29.7,13.7c2.9,1.8,5.4,3.9,9.3,5.3
				s21.7,8,23.6,8.8c5.1,2.1,10.7,1.4,16.1,2c8,0.9,16.1-0.1,23.6-2.8c2.6-0.9,5.2-1.9,7.8-3.1c6.5-3,13-5.9,19.2-9.3
				c3.5-1.9,6.3-4.8,9.4-7.3c2.7-2.1,19.8-2,22.7-1.4c5.3,1.2,10.3,3.8,15.3,6.1c1.8,0.8,3,2.4,6.2,3.8s15.6,5.2,15.8,5.6
				c2,0.5,16.4,5.3,20,6.4s9,0.6,11.2,0.8s11.5-0.3,13.8-0.3c3.6,0.1,7.2-0.2,10.7-1c8.8-2.4,17.8-4.6,26.2-8.2l0.9-0.4v0.2
				c6.6-2.8,13.2-5.6,18.8-9.9c2.2-1.7,7.8-5.8,8.5-6c1.7-0.3,3.5,0,5.1,0.8c3.2,1.5,6.4,3.4,9.8,4.1c2.7,0.5,4.7,1.7,7,2.7
				c3.8,1.7,15.6,6.3,17.4,7.2c5.2,2.6,11.6,0.5,16.7,3.5c0.1,0.1,12.9,1.5,19.1,1.6c2.2,0,4.5,0.1,6.7,0.1
				c4.3,0.1,11.6,0.3,15.5,0.2c6.3-0.1,12.4-1.8,18.7-1.7c0.2,0,12-0.9,17.2-3.4c1.8-0.9,13.7-5.6,17.5-7.2c2.3-1,4.3-2.2,6.9-2.7
				c3.4-0.7,6.5-2.6,9.8-4.1c1.6-0.8,3.3-1,5.1-0.8c0.6,0.2,6.3,4.3,8.4,6c5.6,4.4,10.7,6.7,18.8,9.7s18.2,6.2,27.1,8.6
				c3.5,0.8,7.1,1.1,10.7,1c2.3,0,11.6,0.6,13.8,0.3s7.5,0,11.2-0.8c1.2-0.3,3.5-0.7,5.1-1.1V29.9
				C1076.8,30.7,1072.7,31.3,1069.6,31.6z M1071.9,150.2c-6.4,1.9-12.7,3.9-18.4,7.7c-10,6.4-21.7,9.3-32.6,13.8
				c-2.9,1.2-6.2,1.3-9.4,1.6c-7.8,0.8-15.2-1.9-22.7-3.3c-4-0.9-8-2.3-11.7-4.1c-9.4-4.3-17.8-10.1-26.2-15.7
				c-4.8-3.2-9.7-4.5-15.2-2.2c-5.9,2.4-12,4.2-17.8,6.9c-12.2,5.6-24,11.9-37.2,15.1c-6,4-12.7,2.9-19.3,3.4
				c-9.8,0.8-19.1-1.3-28.6-2.4c-4.8-0.5-9.3-2.9-12.5-6.5c-1.2-1.4-2.9-2.8-4.6-3.1c-8.4-1.2-15.7-5.2-22.8-9.4
				c-6.3-3.9-14.1-4.9-21.2-2.6c-12.8,3.9-25.1,9.2-36.2,17c-2.3,1.7-4.8,3.1-7.5,4c-7.6,2.4-15.7,3-23.6,1.8
				c-3.8-0.7-7.5-1.6-11.1-2.8c-8.2-2.5-16.5-5-24.6-7.9c-8.7-3.2-16-9.4-25.2-11.5c-1.1-0.3-2.1-1.4-3.1-2.2
				c-2.7-2.4-6.4-3.3-9.9-2.3c-3.4,0.7-6.8,1.7-10,3.1c-4.9,2.3-9.5,5.2-14.3,7.6c-4.3,2.1-8.2,4.9-11.6,8.2
				c-6.1,6.3-13.3,10.9-22.2,12.4c-2.2,0.4-4.3,1.2-6.5,1.6c-12,2.4-24.1,3.6-36.1,0.2c-7-2-13.9-4.5-20.7-7.5
				c-8.8-3.8-17.4-8.1-26-12.1c-14.7-6.8-28.5-4.9-41.6,4.4c-5.5,3.9-11,7.8-16.6,11.3c-11.1,7.1-24.2,10.6-37.4,10
				c-8-0.3-15.9-1.5-23.6-3.6c-3.4-0.9-6.9-1.6-10-3.2c-6.2-3.1-12.2-6.7-18.4-10.1c-7-3.9-22.4-7.9-26.1-6.6
				c-5.8,2.1-17.7,6.9-22.8,10.2c-11,7.2-23.5,11.9-36.5,13.8c-18.1,2.6-35.6,1-52.3-7c-4.3-2.1-8.8-3.7-13.2-5.5
				c-5.9-2.4-11.9-4.5-16.9-8.8c-2.1-1.8-4.9-2.8-7.6-4c-2.9-1.3-6.1-2-8.9-3.5c-9.1-4.8-18.2-5.2-27.4-0.7
				c-8.3,4.1-16.3,8.8-24.6,12.9c-13.3,6.7-24,11.9-39,10.2c-7.3-0.8-18-3.5-25.3-4.9c-12-2.3-17.9-17-34.9-23.4V208
				c10.7,6.5,20.2,15.4,32.3,18.8s24,6.2,25.8,6.6c5.5,1,20.3-1.5,25.6-2.4c4.1-0.7,8.2-1.6,12.3-2.2c6.2-0.8,11.6-3.4,17-6.3
				c4.8-2.6,9.6-5.1,14.3-7.8c3.6-2,7.2-4.1,10.8-6.1c1.4-0.7,3-1.9,4.3-1.6c6.5,1.6,13.3,1.4,19.6,4.4c6.9,3.4,13.9,6.4,21.1,9
				c9.6,3.5,19.5,5.9,28.9,9.8c9.7,4,19.9,4,30.1,5.2c1.9,0.1,3.8,0,5.7-0.4c10.8-1.2,21.5-3.1,31.6-7.2c5.6-2.3,11.3-4.4,16.8-7
				c6.6-3.1,13.2-4.6,20.3-1.8c3.9,1.5,8,2.2,11.8,3.8c10.7,4.4,22,6.6,33.1,9.5c4.9,1.3,10,2.1,15.1,2.5c12.5,0.9,25,0.6,37.4-0.7
				c12.3-1.3,23.2-6.9,34.6-10.8c0.9-0.4,1.7-0.9,2.4-1.6c5.7-4.6,13-5.1,19.6-7.4c1.7-0.6,3.9-0.2,5.7,0.2c3.7,0.9,7.4,2,11,3.2
				c14.2,4.8,28.4,9.6,42.5,14.7c9.4,3.4,19.5,4,29.3,1.7c11.2-2.4,22.4-5.3,33.5-8.2c4.9-1.3,9.6-3.5,13.8-6.4
				c5.2-3.6,10.8-6.7,16.4-9.9c5.6-3.3,12.4-3.9,18.4-1.6c12,4.3,24.2,8.1,36.2,12.7c7.5,2.8,15.3,4.6,23.3,5.2c8,0.8,16,1.1,24,0.9
				c8.3-0.2,16.5-2.1,24.1-5.6c6.9-3.3,13.9-6.4,20.8-9.8c8.4-4.1,16.5-3.9,24.8,0.4c9.9,5.1,20,9.9,30.8,13
				c18.7,5.4,37.7,6.9,56.8,1.8c1.5-0.5,3.1-0.8,4.7-0.9c5,0.1,9.3-1.8,13.7-3.9c3.5-1.7,7.1-2.9,10.6-4.5c3.7-1.8,7.8-3.3,10.9-5.9
				c6-5.1,12.9-8.1,20.6-10.5c8.3,4.9,16.9,9.8,25.3,14.9c9.1,5.6,19.4,8.8,30,9.3c10.2,0.6,20.4-0.3,30.4-2.8
				c7-1.9,14.4-2.8,20.9-6.5s13.6-7.1,20.6-10.7c1.2,0.1,2.4,0.3,3.6,0.6l7,2.1v-57.2c-1.1-0.3-2.2-0.7-3.3-1
				C1075.1,149.5,1073.4,149.6,1071.9,150.2z M1000.7,332.7c-3.3-1.8-21.5-11-25-12.2c-3-1-6.4-1.5-9-3.1
				c-9.3-5.6-19.6-5.2-29.8-4.8c-8.3,0.4-16.5,2.1-23.3,7.6c-2,1.6-4.4,2.6-6.5,4c-4.3,2.9-9,4.9-14,6.1c-14,3.3-27.9,2.5-41.8-0.5
				c-4.3-1-9.2-1.5-12.7-3.9c-6.5-4.6-14.3-7.1-20-13c-3.1-3.3-7-5.6-11.4-6.8c-4.3-1.1-8.6-2.5-12.9-3.7
				c-5.4-1.5-22.2,1.8-26.6,5.4c-6.4,5.3-12.8,10.6-20.5,14c-2,0.9-3.6,2.6-5.4,3.9c-1.5,1.2-3.1,2.3-4.7,3.1c-5,2.2-10,4.3-15,6.3
				c-1.2,0.5-2.4,0.7-3.7,0.7c-6-0.7-12.1-1.1-18-2.4c-15.6-3.4-28.9-11.6-41.8-20.7c-2.8-2-5.4-4.6-8.5-6.2
				c-4.5-2.4-9-4.8-14.5-3.9c-6.2,1-12,4-18.5,3.9c-1,0.2-1.8,0.6-2.6,1.2c-4.8,3.2-9.7,6.1-14.2,9.7c-10.9,8.5-22.8,14-36.9,13.8
				c-9.9-0.1-19.9,0.8-29.3-3.3c-10.2-4.4-20.3-9-30.3-14c-6.1-3.1-12.7-4.2-19-6.4c-1.9-0.7-4.6,0-6.5,0.8c-3.2,1.4-6.3,3.2-9,5.4
				c-4,3.2-7.6,6.8-10.9,10.7c-5.7,7-13.1,9.8-21.7,10.5c-3.5,0.3-7,0.3-10.5,0.6c-8.1,0.5-16,0.1-23.3-4c-1.4-0.7-2.9-1.3-4.5-1.7
				c-8.8-3-17.3-6.4-24.9-12c-5.5-4.1-12.2-5.5-18.7-7c-8.8-1.9-15.6,3.1-21.2,8.8c-4.1,4.1-8.8,7.3-13.3,10.8
				c-4.1,3.1-9.1,4.9-14.2,5c-3.5,0.1-6.9,1-10.4,1.4c-4.1,0.4-8.3,1.1-12.4,0.9c-6-0.4-12-1.5-18-2.2c-7.3-0.9-14.3-3.6-20.3-7.9
				c-5-3.5-9.9-7-15.1-10.1c-2.7-1.6-5.8-3.6-8.7-3.5c-8.8,0.3-17.8,0.5-24.4,8.4c-3.2,3.9-7.2,7.6-11.7,9.7
				c-10.5,4.8-21.5,8.2-33.3,8c-3.2,0-6.4-0.1-9.6,0.2c-7,0.5-14.1-0.5-20.7-3c-8.7-3.3-17-7.2-25.6-10.7c-7.4-3-13.9-7.6-21.2-11
				c-6.2-3.1-13.3-3.8-20-2.1c-6.1,1.4-11.7,3.1-16.3,7.4c-5.5,5.1-25.5,13-38.4,15v53c16.5,0.5,35.9-10.6,44.5-14.8
				c6.7-3.2,13.2-3,19.6-1.4c12.4,3.3,24.5,7.7,36.8,11c8.9,2.4,18,4.7,27.1,5.2c16.9,1.2,33.9-0.6,50.2-5.3c4-1.1,7.8-2.7,11.9-3.8
				c10.7-2.8,21-3,31.8,1.4c12,5,24.8,8.5,37.2,12.4c5.5,1.7,11.1,3.1,16.7,4.4c5.9,1.2,12,1.5,18,0.9c6.6-0.7,13.7,0,19.6-3.5
				c4.5-2.6,9.3-4,14.2-5.5c5.9-1.5,11.3-4.3,16-8.1c10-8.4,21.3-11.4,33.7-4.8c0.8,0.5,1.7,0.9,2.6,1.3c5,2.1,9.9,4.9,15.1,6
				c12.7,2.6,25.5,5.4,38.8,4.4c11.5-0.7,22.7-4.1,32.7-9.8c5.2-3,10.6-5.8,16-8.5c1.8-0.7,3.7-1.1,5.6-1.1c5.1-0.1,10.2,1,14.9,3
				c5.6,2.3,11.3,4.5,16.8,7.1c16.5,7.7,33.6,11.6,52,10.2c5.8-0.5,11.4-0.7,16.7-3c12.2-5.3,25.7-8.3,34-20.1
				c7.2-5.5,11.2-6.3,17.2-1.6c3.1,2.3,6.5,4.1,10.1,5.3c15.2,6,31.1,9.7,47.1,13.2c10.7,2.3,21.8,1.9,32.2-1.2
				c9.5-2.8,19.2-4.9,28-9.7c4.8-2.6,10-4.4,15-6.3c4.5-1.7,9.5-2.8,14.1-1.3c6.6,2.1,13.5,3.6,19.6,7.4c8.7,5.4,18.1,9.2,27.9,12.3
				c14.1,4.4,28.8,6.4,43.5,5.8c4.5,0,8.9-0.8,13.1-2.4c6.5-2.6,13-5.3,19.3-8.3c5.4-2.6,10.2-6.5,16.4-7.2c0.6-0.1,1.2-0.4,1.7-0.8
				c3.1-2.5,6.5-2.1,10-1.4c6.3,1,12.5,2.6,18.5,4.6c8.1,3,16.5,4.8,24.6,8c7.4,2.9,14.2,4.8,22.2,4.1c10.2-0.8,29.3,5.4,39.7,5.5
				c14.4,0.2,29.5-6.8,37.3-3.8v-53c-13.7,2.8-17.7,1.6-34.8,3.9C1030.4,341.5,1010.5,337.9,1000.7,332.7L1000.7,332.7z"/>
		</g>
	</g>
</g>
</svg>
