<svg xmlns="http://www.w3.org/2000/svg" width="640.5" height="51.78" viewBox="0 0 640.5 51.78"><title>pattern-wave-orange-single</title><path d="M634.9,19a57.64,57.64,0,0,1-13.1-.4c-7.1-.9-13.4-3.7-19.8-6.5-2.3-1-4.3-2.8-6.3-4.3a17.33,17.33,0,0,0-7.1-3.4,14.3,14.3,0,0,0-7.4.2c-4,1.2-8,2.8-12,4.3s-8,3.4-12.1,4.8a34.53,34.53,0,0,1-8.5,1.6c-3.4.2-6.7,1.1-10.1,1.1H528.2a27.88,27.88,0,0,1-10-.7c-2.8-.8-5.8-1.3-8.5-2.2-4.2-1.4-8.1-3.2-12.1-4.8s-7.9-3.1-11.9-4.4a12.46,12.46,0,0,0-7.4-.2,18.69,18.69,0,0,0-7.1,3.4c-2,1.5-4,3.3-6.3,4.3-6.3,2.8-12.7,5.5-19.8,6.5a57.3,57.3,0,0,1-13.1.4c-5.9-.5-11.2-2.8-16.4-5.1-4.4-1.9-8.7-4-13.2-5.6a76.17,76.17,0,0,0-9.4-2.4,37,37,0,0,0-6.6-.7c-1.9-.1-11.2,1.4-13,2.7-3.5,2.7-7,5.4-11.3,7.1-2.5,1-4.8,2.4-7.4,3.1a42.37,42.37,0,0,1-9.4,1.1,37.72,37.72,0,0,1-17-3.3c-4-1.7-7.5-4.5-11.3-6.6-3.3-1.8-6.5-3.7-10.1-4.8-2.8-.8-9.2-2.7-9.6-2.8-.6-.1-4.6-.9-6.3-1.1s-7.8.5-9.3,1.5c-1.2.9-2.7,1.5-3.7,2.4a39.67,39.67,0,0,1-9.3,5.6c-1.3.7-2.5,1.7-3.9,2a83.35,83.35,0,0,1-8.7,1.6,37.89,37.89,0,0,1-19.7-2.6c-2.8-1.2-5.7-2.6-8.6-3.7-4.2-1.7-8.3-3.4-12.6-4.7A85.38,85.38,0,0,0,203.8,0c-1.1-.2-8.8,2.4-9.7,3.2a25.25,25.25,0,0,1-5.2,3.9,48.05,48.05,0,0,1-16.7,7.7c-2.5.5-5,.5-7.4,1-3.3.7-6.5,0-9.7-.5a25.19,25.19,0,0,1-8.8-3.2,41.8,41.8,0,0,0-5.6-2.8c-1.8-.8-6.3-2.6-6.8-2.8,0,0-4.9-4.1-8.5-4.5s-9.8,4.8-9.8,4.8c-1.5,1.1-3.7,1.3-5.6,2.1a37.68,37.68,0,0,0-5.7,2.8A24.65,24.65,0,0,1,95.5,15c-3.1.5-6.3,1.1-9.7.5-2.4-.5-4.9-.5-7.4-1a47.23,47.23,0,0,1-16.7-7.7,33.61,33.61,0,0,1-5.2-3.9c-.7-.9-5-2.3-6.1-2.6S39.2.91,35.6,2c-4.3,1.3-8.4,3.1-12.6,4.7-2.9,1.2-5.8,2.5-8.6,3.7C8.1,13.11,6,15.61,0,17.61v32.3c4.7-1.2,11.4-5.9,14.8-7,1.1-.4,2-.9,3-1.2,1.4-.4,5.3-2.1,6.1-2.4A39.47,39.47,0,0,0,28.5,37c5.3-3,11.1-4.2,17.1-4.7,1.8-.2,2.9.9,4.2,1.8a103.68,103.68,0,0,0,8.5,6.3c3.4,2.1,16.7,6.4,17,6.6,2.3,1.3,5,.5,7.2,1.5.2.1,8.2.7,12.1-.5a105.51,105.51,0,0,0,10.7-3.9c3.3-1.4,10.3-5.7,10.7-5.8,4.6-2,6.4-6,17.8.1.7.3,8.2,4.7,11.4,6.1a105.51,105.51,0,0,0,10.7,3.9c3.9,1.1,11.9.5,12.1.5,2.3-1,5-.2,7.2-1.5.3-.2,13.5-4.5,17-6.6a103.68,103.68,0,0,0,8.5-6.3c1.2-.9,2.3-2,4.2-1.8,6.1.5,11.9,1.7,17.1,4.7,1.5.8,3,1.6,4.6,2.3.7.3,8.1,3.3,9.1,3.7,3.4,1.1,13.6,3.2,14.8,3.1s5.8.1,6.7-.1a61.76,61.76,0,0,0,6.2-1.2c2.6-.7,5.2-1.5,7.7-2.4a51.5,51.5,0,0,0,14-7.6c2.8-2.1,5.7-3.9,9.5-2.3.3.1,3.5.9,4,1.1.9.2,17.2,7.8,17.6,8.1a24,24,0,0,0,5.5,3.1c2.3.8,12.9,4.7,14,5.2,3,1.2,6.3.8,9.6,1.2a31.66,31.66,0,0,0,14-1.7,43.7,43.7,0,0,0,4.6-1.8c3.9-1.8,7.7-3.5,11.4-5.5,2.1-1.1,3.7-2.8,5.6-4.3,1.6-1.2,11.7-1.2,13.5-.8,3.1.7,6.1,2.3,9.1,3.6,1.1.5,1.8,1.4,3.7,2.3s9.3,3.1,9.4,3.3c1.2.3,9.7,3.1,11.9,3.8s5.3.4,6.6.5,6.8-.2,8.2-.2a22.11,22.11,0,0,0,6.3-.6c5.2-1.4,10.6-2.7,15.5-4.9l.5-.2v.1c3.9-1.7,7.8-3.3,11.2-5.9,1.3-1,4.6-3.4,5-3.6a4.49,4.49,0,0,1,3,.5,26.34,26.34,0,0,0,5.8,2.4,19.22,19.22,0,0,1,4.2,1.6c2.3,1,9.3,3.7,10.3,4.3,3.1,1.5,6.9.3,9.9,2.1a107.51,107.51,0,0,0,11.3.9c1.3,0,2.7.1,4,.1,2.6.1,6.9.2,9.2.1,3.7-.1,7.4-1.1,11.1-1,.1,0,7.1-.5,10.2-2,1.1-.5,8.1-3.3,10.4-4.3a20.5,20.5,0,0,1,4.1-1.6,26.34,26.34,0,0,0,5.8-2.4,5.18,5.18,0,0,1,3-.5,60.47,60.47,0,0,1,5,3.6c3.3,2.6,6.3,4,11.2,5.8s10.8,3.7,16.1,5.1a22.46,22.46,0,0,0,6.3.6c1.4,0,6.9.4,8.2.2s4.5,0,6.6-.5c.7-.2,2.1-.4,3-.7V18A29.51,29.51,0,0,1,634.9,19Z" fill="#ff8a3d"/></svg>