<svg xmlns="http://www.w3.org/2000/svg" xmlns:xlink="http://www.w3.org/1999/xlink" width="990.23" height="680.23" viewBox="0 0 990.23 680.23"><defs><pattern id="a" width="992.06" height="680.89" patternTransform="translate(944.02 -2191.69)" patternUnits="userSpaceOnUse" viewBox="0 0 992.06 680.89"><rect width="992.06" height="680.89" fill="none"/><polygon points="992.06 0 21.16 0 0 0 0 14.57 0 680.89 992.06 680.89 992.06 0" fill="none"/><rect width="992.06" height="680.89" fill="#46362a"/><g opacity="0.3"><polygon points="992.06 0 992.06 14.71 21.43 680.89 0 680.89 0 666.18 970.63 0 992.06 0" fill="#645240"/><polygon points="992.06 680.89 969.97 680.89 992.06 665.63 992.06 680.89" fill="#645240"/><polygon points="992.06 568 827.64 680.89 784.79 680.89 883.6 613.07 305.42 613.07 206.61 680.89 163.76 680.89 793.38 248.66 793.38 248.12 794.31 248.12 992.06 112.35 992.06 141.9 968.52 157.97 992.06 157.97 992.06 182.48 932.8 182.48 837.17 248.12 992.06 248.12 992.06 272.63 801.45 272.63 603.84 408.26 992.06 408.26 992.06 432.77 568.12 432.77 472.49 498.41 992.06 498.41 992.06 522.92 436.77 522.92 341.14 588.56 919.31 588.56 992.06 538.58 992.06 568" fill="#645240"/><polygon points="21.16 0 0 14.57 0 0 21.16 0" fill="#645240"/><polygon points="431.08 272.63 0 568.54 0 539.13 23.55 522.92 0 522.92 0 498.41 59.26 498.41 154.89 432.77 0 432.77 0 408.26 190.61 408.26 388.23 272.63 0 272.63 0 248.12 423.94 248.12 519.58 182.48 0 182.48 0 157.97 555.29 157.97 650.92 92.33 71.83 92.33 0 141.63 0 112.21 163.49 0 206.35 0 107.54 67.82 686.64 67.82 785.45 0 828.3 0 431.35 272.49 431.35 272.63 431.08 272.63" fill="#645240"/></g></pattern></defs><title>pattern-lauhala-brown</title><rect width="990.23" height="680.23" fill="url(#a)"/></svg>